G04 #@! TF.GenerationSoftware,KiCad,Pcbnew,(5.1.8)-1*
G04 #@! TF.CreationDate,2021-07-09T23:14:26+09:00*
G04 #@! TF.ProjectId,L3PSG6n9Side,4c335053-4736-46e3-9953-6964652e6b69,rev?*
G04 #@! TF.SameCoordinates,Original*
G04 #@! TF.FileFunction,Legend,Top*
G04 #@! TF.FilePolarity,Positive*
%FSLAX46Y46*%
G04 Gerber Fmt 4.6, Leading zero omitted, Abs format (unit mm)*
G04 Created by KiCad (PCBNEW (5.1.8)-1) date 2021-07-09 23:14:26*
%MOMM*%
%LPD*%
G01*
G04 APERTURE LIST*
%ADD10C,0.120000*%
%ADD11C,0.150000*%
G04 APERTURE END LIST*
D10*
X77235000Y-85550000D02*
X77235000Y-84050000D01*
X75985000Y-81550000D02*
X71485000Y-81550000D01*
X70235000Y-84050000D02*
X70235000Y-85550000D01*
X71485000Y-88050000D02*
X75985000Y-88050000D01*
X70212000Y-73200000D02*
X70212000Y-74700000D01*
X71462000Y-77200000D02*
X75962000Y-77200000D01*
X77212000Y-74700000D02*
X77212000Y-73200000D01*
X75962000Y-70700000D02*
X71462000Y-70700000D01*
X65314000Y-108426000D02*
X65314000Y-98505000D01*
X77434000Y-100140000D02*
X77434000Y-98505000D01*
X77434000Y-102640000D02*
X77434000Y-101790000D01*
X77434000Y-105140000D02*
X77434000Y-104290000D01*
X77434000Y-108426000D02*
X77434000Y-106790000D01*
X69179000Y-98505000D02*
X65314000Y-98505000D01*
X77434000Y-98505000D02*
X73568000Y-98505000D01*
X69179000Y-108426000D02*
X65314000Y-108426000D01*
X77434000Y-108426000D02*
X73568000Y-108426000D01*
X69702018Y-106227432D02*
G75*
G02*
X69701000Y-100703000I1171982J2762432D01*
G01*
X72802295Y-101167247D02*
G75*
G02*
X72802000Y-105763000I-1928295J-2297753D01*
G01*
X81220000Y-99635000D02*
X82550000Y-99635000D01*
X81220000Y-100965000D02*
X81220000Y-99635000D01*
X81220000Y-102235000D02*
X83880000Y-102235000D01*
X83880000Y-102235000D02*
X83880000Y-107375000D01*
X81220000Y-102235000D02*
X81220000Y-107375000D01*
X81220000Y-107375000D02*
X83880000Y-107375000D01*
X81220000Y-75505000D02*
X82550000Y-75505000D01*
X81220000Y-76835000D02*
X81220000Y-75505000D01*
X81220000Y-78105000D02*
X83880000Y-78105000D01*
X83880000Y-78105000D02*
X83880000Y-83245000D01*
X81220000Y-78105000D02*
X81220000Y-83245000D01*
X81220000Y-83245000D02*
X83880000Y-83245000D01*
D11*
X72401666Y-80954761D02*
X72544523Y-81002380D01*
X72782619Y-81002380D01*
X72877857Y-80954761D01*
X72925476Y-80907142D01*
X72973095Y-80811904D01*
X72973095Y-80716666D01*
X72925476Y-80621428D01*
X72877857Y-80573809D01*
X72782619Y-80526190D01*
X72592142Y-80478571D01*
X72496904Y-80430952D01*
X72449285Y-80383333D01*
X72401666Y-80288095D01*
X72401666Y-80192857D01*
X72449285Y-80097619D01*
X72496904Y-80050000D01*
X72592142Y-80002380D01*
X72830238Y-80002380D01*
X72973095Y-80050000D01*
X73306428Y-80002380D02*
X73544523Y-81002380D01*
X73735000Y-80288095D01*
X73925476Y-81002380D01*
X74163571Y-80002380D01*
X74496904Y-80097619D02*
X74544523Y-80050000D01*
X74639761Y-80002380D01*
X74877857Y-80002380D01*
X74973095Y-80050000D01*
X75020714Y-80097619D01*
X75068333Y-80192857D01*
X75068333Y-80288095D01*
X75020714Y-80430952D01*
X74449285Y-81002380D01*
X75068333Y-81002380D01*
X72378666Y-78604761D02*
X72521523Y-78652380D01*
X72759619Y-78652380D01*
X72854857Y-78604761D01*
X72902476Y-78557142D01*
X72950095Y-78461904D01*
X72950095Y-78366666D01*
X72902476Y-78271428D01*
X72854857Y-78223809D01*
X72759619Y-78176190D01*
X72569142Y-78128571D01*
X72473904Y-78080952D01*
X72426285Y-78033333D01*
X72378666Y-77938095D01*
X72378666Y-77842857D01*
X72426285Y-77747619D01*
X72473904Y-77700000D01*
X72569142Y-77652380D01*
X72807238Y-77652380D01*
X72950095Y-77700000D01*
X73283428Y-77652380D02*
X73521523Y-78652380D01*
X73712000Y-77938095D01*
X73902476Y-78652380D01*
X74140571Y-77652380D01*
X75045333Y-78652380D02*
X74473904Y-78652380D01*
X74759619Y-78652380D02*
X74759619Y-77652380D01*
X74664380Y-77795238D01*
X74569142Y-77890476D01*
X74473904Y-77938095D01*
X71728761Y-111567380D02*
X71395428Y-111091190D01*
X71157333Y-111567380D02*
X71157333Y-110567380D01*
X71538285Y-110567380D01*
X71633523Y-110615000D01*
X71681142Y-110662619D01*
X71728761Y-110757857D01*
X71728761Y-110900714D01*
X71681142Y-110995952D01*
X71633523Y-111043571D01*
X71538285Y-111091190D01*
X71157333Y-111091190D01*
X72014476Y-110567380D02*
X72347809Y-111567380D01*
X72681142Y-110567380D01*
X73538285Y-111567380D02*
X72966857Y-111567380D01*
X73252571Y-111567380D02*
X73252571Y-110567380D01*
X73157333Y-110710238D01*
X73062095Y-110805476D01*
X72966857Y-110853095D01*
X82216666Y-98087380D02*
X82216666Y-98801666D01*
X82169047Y-98944523D01*
X82073809Y-99039761D01*
X81930952Y-99087380D01*
X81835714Y-99087380D01*
X82645238Y-98182619D02*
X82692857Y-98135000D01*
X82788095Y-98087380D01*
X83026190Y-98087380D01*
X83121428Y-98135000D01*
X83169047Y-98182619D01*
X83216666Y-98277857D01*
X83216666Y-98373095D01*
X83169047Y-98515952D01*
X82597619Y-99087380D01*
X83216666Y-99087380D01*
X80930714Y-101417380D02*
X80359285Y-101417380D01*
X80645000Y-101417380D02*
X80645000Y-100417380D01*
X80549761Y-100560238D01*
X80454523Y-100655476D01*
X80359285Y-100703095D01*
X82216666Y-73957380D02*
X82216666Y-74671666D01*
X82169047Y-74814523D01*
X82073809Y-74909761D01*
X81930952Y-74957380D01*
X81835714Y-74957380D01*
X83216666Y-74957380D02*
X82645238Y-74957380D01*
X82930952Y-74957380D02*
X82930952Y-73957380D01*
X82835714Y-74100238D01*
X82740476Y-74195476D01*
X82645238Y-74243095D01*
X80930714Y-77287380D02*
X80359285Y-77287380D01*
X80645000Y-77287380D02*
X80645000Y-76287380D01*
X80549761Y-76430238D01*
X80454523Y-76525476D01*
X80359285Y-76573095D01*
M02*
