G04 #@! TF.GenerationSoftware,KiCad,Pcbnew,(5.1.8)-1*
G04 #@! TF.CreationDate,2021-07-09T23:14:26+09:00*
G04 #@! TF.ProjectId,L3PSG6n9Side,4c335053-4736-46e3-9953-6964652e6b69,rev?*
G04 #@! TF.SameCoordinates,Original*
G04 #@! TF.FileFunction,Copper,L2,Bot*
G04 #@! TF.FilePolarity,Positive*
%FSLAX46Y46*%
G04 Gerber Fmt 4.6, Leading zero omitted, Abs format (unit mm)*
G04 Created by KiCad (PCBNEW (5.1.8)-1) date 2021-07-09 23:14:26*
%MOMM*%
%LPD*%
G01*
G04 APERTURE LIST*
G04 #@! TA.AperFunction,ComponentPad*
%ADD10C,2.000000*%
G04 #@! TD*
G04 #@! TA.AperFunction,ComponentPad*
%ADD11C,1.800000*%
G04 #@! TD*
G04 #@! TA.AperFunction,WasherPad*
%ADD12C,4.000000*%
G04 #@! TD*
G04 #@! TA.AperFunction,ComponentPad*
%ADD13R,1.700000X1.700000*%
G04 #@! TD*
G04 #@! TA.AperFunction,ComponentPad*
%ADD14O,1.700000X1.700000*%
G04 #@! TD*
G04 #@! TA.AperFunction,Conductor*
%ADD15C,0.500000*%
G04 #@! TD*
G04 #@! TA.AperFunction,Conductor*
%ADD16C,0.254000*%
G04 #@! TD*
G04 #@! TA.AperFunction,Conductor*
%ADD17C,0.100000*%
G04 #@! TD*
G04 APERTURE END LIST*
D10*
X70485000Y-87050000D03*
X70485000Y-82550000D03*
X76985000Y-87050000D03*
X76985000Y-82550000D03*
X76962000Y-71700000D03*
X76962000Y-76200000D03*
X70462000Y-71700000D03*
X70462000Y-76200000D03*
D11*
X78374000Y-105965000D03*
X78374000Y-103465000D03*
X78374000Y-100965000D03*
D12*
X71374000Y-107865000D03*
X71374000Y-99065000D03*
D13*
X82550000Y-100965000D03*
D14*
X82550000Y-103505000D03*
X82550000Y-106045000D03*
D13*
X82550000Y-76835000D03*
D14*
X82550000Y-79375000D03*
X82550000Y-81915000D03*
D15*
X70462000Y-71700000D02*
X76962000Y-71700000D01*
X82097000Y-76835000D02*
X82550000Y-76835000D01*
X76962000Y-71700000D02*
X82097000Y-76835000D01*
X70485000Y-82550000D02*
X76985000Y-82550000D01*
X70462000Y-76200000D02*
X76962000Y-76200000D01*
X80137000Y-79375000D02*
X82550000Y-79375000D01*
X76962000Y-76200000D02*
X80137000Y-79375000D01*
X80137000Y-79398000D02*
X80137000Y-79375000D01*
X76985000Y-82550000D02*
X80137000Y-79398000D01*
X77415000Y-87050000D02*
X76985000Y-87050000D01*
X82550000Y-81915000D02*
X77415000Y-87050000D01*
X70485000Y-87050000D02*
X76985000Y-87050000D01*
X78105000Y-100965000D02*
X82550000Y-100965000D01*
X82510000Y-103465000D02*
X82550000Y-103505000D01*
X78105000Y-103465000D02*
X82510000Y-103465000D01*
X82470000Y-105965000D02*
X82550000Y-106045000D01*
X78105000Y-105965000D02*
X82470000Y-105965000D01*
D16*
X84684001Y-90678000D02*
X65049000Y-90678000D01*
X65049000Y-86888967D01*
X68850000Y-86888967D01*
X68850000Y-87211033D01*
X68912832Y-87526912D01*
X69036082Y-87824463D01*
X69215013Y-88092252D01*
X69442748Y-88319987D01*
X69710537Y-88498918D01*
X70008088Y-88622168D01*
X70323967Y-88685000D01*
X70646033Y-88685000D01*
X70961912Y-88622168D01*
X71259463Y-88498918D01*
X71527252Y-88319987D01*
X71754987Y-88092252D01*
X71860059Y-87935000D01*
X75609941Y-87935000D01*
X75715013Y-88092252D01*
X75942748Y-88319987D01*
X76210537Y-88498918D01*
X76508088Y-88622168D01*
X76823967Y-88685000D01*
X77146033Y-88685000D01*
X77461912Y-88622168D01*
X77759463Y-88498918D01*
X78027252Y-88319987D01*
X78254987Y-88092252D01*
X78433918Y-87824463D01*
X78557168Y-87526912D01*
X78620000Y-87211033D01*
X78620000Y-87096578D01*
X82331040Y-83385539D01*
X82403740Y-83400000D01*
X82696260Y-83400000D01*
X82983158Y-83342932D01*
X83253411Y-83230990D01*
X83496632Y-83068475D01*
X83703475Y-82861632D01*
X83865990Y-82618411D01*
X83977932Y-82348158D01*
X84035000Y-82061260D01*
X84035000Y-81768740D01*
X83977932Y-81481842D01*
X83865990Y-81211589D01*
X83703475Y-80968368D01*
X83496632Y-80761525D01*
X83314466Y-80639805D01*
X83431355Y-80570178D01*
X83647588Y-80375269D01*
X83821641Y-80141920D01*
X83946825Y-79879099D01*
X83991476Y-79731890D01*
X83870155Y-79502000D01*
X82677000Y-79502000D01*
X82677000Y-79522000D01*
X82423000Y-79522000D01*
X82423000Y-79502000D01*
X81229845Y-79502000D01*
X81108524Y-79731890D01*
X81153175Y-79879099D01*
X81278359Y-80141920D01*
X81452412Y-80375269D01*
X81668645Y-80570178D01*
X81785534Y-80639805D01*
X81603368Y-80761525D01*
X81396525Y-80968368D01*
X81234010Y-81211589D01*
X81122068Y-81481842D01*
X81065000Y-81768740D01*
X81065000Y-82061260D01*
X81079461Y-82133960D01*
X77655431Y-85557991D01*
X77461912Y-85477832D01*
X77146033Y-85415000D01*
X76823967Y-85415000D01*
X76508088Y-85477832D01*
X76210537Y-85601082D01*
X75942748Y-85780013D01*
X75715013Y-86007748D01*
X75609941Y-86165000D01*
X71860059Y-86165000D01*
X71754987Y-86007748D01*
X71527252Y-85780013D01*
X71259463Y-85601082D01*
X70961912Y-85477832D01*
X70646033Y-85415000D01*
X70323967Y-85415000D01*
X70008088Y-85477832D01*
X69710537Y-85601082D01*
X69442748Y-85780013D01*
X69215013Y-86007748D01*
X69036082Y-86275537D01*
X68912832Y-86573088D01*
X68850000Y-86888967D01*
X65049000Y-86888967D01*
X65049000Y-83685413D01*
X69529192Y-83685413D01*
X69624956Y-83949814D01*
X69914571Y-84090704D01*
X70226108Y-84172384D01*
X70547595Y-84191718D01*
X70866675Y-84147961D01*
X71171088Y-84042795D01*
X71345044Y-83949814D01*
X71440808Y-83685413D01*
X76029192Y-83685413D01*
X76124956Y-83949814D01*
X76414571Y-84090704D01*
X76726108Y-84172384D01*
X77047595Y-84191718D01*
X77366675Y-84147961D01*
X77671088Y-84042795D01*
X77845044Y-83949814D01*
X77940808Y-83685413D01*
X76985000Y-82729605D01*
X76029192Y-83685413D01*
X71440808Y-83685413D01*
X70485000Y-82729605D01*
X69529192Y-83685413D01*
X65049000Y-83685413D01*
X65049000Y-82612595D01*
X68843282Y-82612595D01*
X68887039Y-82931675D01*
X68992205Y-83236088D01*
X69085186Y-83410044D01*
X69349587Y-83505808D01*
X70305395Y-82550000D01*
X70664605Y-82550000D01*
X71620413Y-83505808D01*
X71884814Y-83410044D01*
X72025704Y-83120429D01*
X72107384Y-82808892D01*
X72119189Y-82612595D01*
X75343282Y-82612595D01*
X75387039Y-82931675D01*
X75492205Y-83236088D01*
X75585186Y-83410044D01*
X75849587Y-83505808D01*
X76805395Y-82550000D01*
X77164605Y-82550000D01*
X78120413Y-83505808D01*
X78384814Y-83410044D01*
X78525704Y-83120429D01*
X78607384Y-82808892D01*
X78626718Y-82487405D01*
X78582961Y-82168325D01*
X78477795Y-81863912D01*
X78384814Y-81689956D01*
X78120413Y-81594192D01*
X77164605Y-82550000D01*
X76805395Y-82550000D01*
X75849587Y-81594192D01*
X75585186Y-81689956D01*
X75444296Y-81979571D01*
X75362616Y-82291108D01*
X75343282Y-82612595D01*
X72119189Y-82612595D01*
X72126718Y-82487405D01*
X72082961Y-82168325D01*
X71977795Y-81863912D01*
X71884814Y-81689956D01*
X71620413Y-81594192D01*
X70664605Y-82550000D01*
X70305395Y-82550000D01*
X69349587Y-81594192D01*
X69085186Y-81689956D01*
X68944296Y-81979571D01*
X68862616Y-82291108D01*
X68843282Y-82612595D01*
X65049000Y-82612595D01*
X65049000Y-81414587D01*
X69529192Y-81414587D01*
X70485000Y-82370395D01*
X71440808Y-81414587D01*
X76029192Y-81414587D01*
X76985000Y-82370395D01*
X77940808Y-81414587D01*
X77845044Y-81150186D01*
X77555429Y-81009296D01*
X77243892Y-80927616D01*
X76922405Y-80908282D01*
X76603325Y-80952039D01*
X76298912Y-81057205D01*
X76124956Y-81150186D01*
X76029192Y-81414587D01*
X71440808Y-81414587D01*
X71345044Y-81150186D01*
X71055429Y-81009296D01*
X70743892Y-80927616D01*
X70422405Y-80908282D01*
X70103325Y-80952039D01*
X69798912Y-81057205D01*
X69624956Y-81150186D01*
X69529192Y-81414587D01*
X65049000Y-81414587D01*
X65049000Y-77335413D01*
X69506192Y-77335413D01*
X69601956Y-77599814D01*
X69891571Y-77740704D01*
X70203108Y-77822384D01*
X70524595Y-77841718D01*
X70843675Y-77797961D01*
X71148088Y-77692795D01*
X71322044Y-77599814D01*
X71417808Y-77335413D01*
X76006192Y-77335413D01*
X76101956Y-77599814D01*
X76391571Y-77740704D01*
X76703108Y-77822384D01*
X77024595Y-77841718D01*
X77343675Y-77797961D01*
X77648088Y-77692795D01*
X77822044Y-77599814D01*
X77917808Y-77335413D01*
X76962000Y-76379605D01*
X76006192Y-77335413D01*
X71417808Y-77335413D01*
X70462000Y-76379605D01*
X69506192Y-77335413D01*
X65049000Y-77335413D01*
X65049000Y-76262595D01*
X68820282Y-76262595D01*
X68864039Y-76581675D01*
X68969205Y-76886088D01*
X69062186Y-77060044D01*
X69326587Y-77155808D01*
X70282395Y-76200000D01*
X70641605Y-76200000D01*
X71597413Y-77155808D01*
X71861814Y-77060044D01*
X72002704Y-76770429D01*
X72084384Y-76458892D01*
X72096189Y-76262595D01*
X75320282Y-76262595D01*
X75364039Y-76581675D01*
X75469205Y-76886088D01*
X75562186Y-77060044D01*
X75826587Y-77155808D01*
X76782395Y-76200000D01*
X77141605Y-76200000D01*
X78097413Y-77155808D01*
X78361814Y-77060044D01*
X78502704Y-76770429D01*
X78584384Y-76458892D01*
X78603718Y-76137405D01*
X78559961Y-75818325D01*
X78454795Y-75513912D01*
X78361814Y-75339956D01*
X78097413Y-75244192D01*
X77141605Y-76200000D01*
X76782395Y-76200000D01*
X75826587Y-75244192D01*
X75562186Y-75339956D01*
X75421296Y-75629571D01*
X75339616Y-75941108D01*
X75320282Y-76262595D01*
X72096189Y-76262595D01*
X72103718Y-76137405D01*
X72059961Y-75818325D01*
X71954795Y-75513912D01*
X71861814Y-75339956D01*
X71597413Y-75244192D01*
X70641605Y-76200000D01*
X70282395Y-76200000D01*
X69326587Y-75244192D01*
X69062186Y-75339956D01*
X68921296Y-75629571D01*
X68839616Y-75941108D01*
X68820282Y-76262595D01*
X65049000Y-76262595D01*
X65049000Y-75064587D01*
X69506192Y-75064587D01*
X70462000Y-76020395D01*
X71417808Y-75064587D01*
X76006192Y-75064587D01*
X76962000Y-76020395D01*
X77917808Y-75064587D01*
X77822044Y-74800186D01*
X77532429Y-74659296D01*
X77220892Y-74577616D01*
X76899405Y-74558282D01*
X76580325Y-74602039D01*
X76275912Y-74707205D01*
X76101956Y-74800186D01*
X76006192Y-75064587D01*
X71417808Y-75064587D01*
X71322044Y-74800186D01*
X71032429Y-74659296D01*
X70720892Y-74577616D01*
X70399405Y-74558282D01*
X70080325Y-74602039D01*
X69775912Y-74707205D01*
X69601956Y-74800186D01*
X69506192Y-75064587D01*
X65049000Y-75064587D01*
X65049000Y-71538967D01*
X68827000Y-71538967D01*
X68827000Y-71861033D01*
X68889832Y-72176912D01*
X69013082Y-72474463D01*
X69192013Y-72742252D01*
X69419748Y-72969987D01*
X69687537Y-73148918D01*
X69985088Y-73272168D01*
X70300967Y-73335000D01*
X70623033Y-73335000D01*
X70938912Y-73272168D01*
X71236463Y-73148918D01*
X71504252Y-72969987D01*
X71731987Y-72742252D01*
X71837059Y-72585000D01*
X75586941Y-72585000D01*
X75692013Y-72742252D01*
X75919748Y-72969987D01*
X76187537Y-73148918D01*
X76485088Y-73272168D01*
X76800967Y-73335000D01*
X77123033Y-73335000D01*
X77308525Y-73298103D01*
X81061928Y-77051507D01*
X81061928Y-77685000D01*
X81074188Y-77809482D01*
X81110498Y-77929180D01*
X81169463Y-78039494D01*
X81248815Y-78136185D01*
X81345506Y-78215537D01*
X81455820Y-78274502D01*
X81536466Y-78298966D01*
X81452412Y-78374731D01*
X81278359Y-78608080D01*
X81153175Y-78870901D01*
X81108524Y-79018110D01*
X81229845Y-79248000D01*
X82423000Y-79248000D01*
X82423000Y-79228000D01*
X82677000Y-79228000D01*
X82677000Y-79248000D01*
X83870155Y-79248000D01*
X83991476Y-79018110D01*
X83946825Y-78870901D01*
X83821641Y-78608080D01*
X83647588Y-78374731D01*
X83563534Y-78298966D01*
X83644180Y-78274502D01*
X83754494Y-78215537D01*
X83851185Y-78136185D01*
X83930537Y-78039494D01*
X83989502Y-77929180D01*
X84025812Y-77809482D01*
X84038072Y-77685000D01*
X84038072Y-75985000D01*
X84025812Y-75860518D01*
X83989502Y-75740820D01*
X83930537Y-75630506D01*
X83851185Y-75533815D01*
X83754494Y-75454463D01*
X83644180Y-75395498D01*
X83524482Y-75359188D01*
X83400000Y-75346928D01*
X81860507Y-75346928D01*
X78560103Y-72046525D01*
X78597000Y-71861033D01*
X78597000Y-71538967D01*
X78534168Y-71223088D01*
X78410918Y-70925537D01*
X78231987Y-70657748D01*
X78004252Y-70430013D01*
X77736463Y-70251082D01*
X77438912Y-70127832D01*
X77123033Y-70065000D01*
X76800967Y-70065000D01*
X76485088Y-70127832D01*
X76187537Y-70251082D01*
X75919748Y-70430013D01*
X75692013Y-70657748D01*
X75586941Y-70815000D01*
X71837059Y-70815000D01*
X71731987Y-70657748D01*
X71504252Y-70430013D01*
X71236463Y-70251082D01*
X70938912Y-70127832D01*
X70623033Y-70065000D01*
X70300967Y-70065000D01*
X69985088Y-70127832D01*
X69687537Y-70251082D01*
X69419748Y-70430013D01*
X69192013Y-70657748D01*
X69013082Y-70925537D01*
X68889832Y-71223088D01*
X68827000Y-71538967D01*
X65049000Y-71538967D01*
X65049000Y-68707000D01*
X84684001Y-68707000D01*
X84684001Y-90678000D01*
G04 #@! TA.AperFunction,Conductor*
D17*
G36*
X84684001Y-90678000D02*
G01*
X65049000Y-90678000D01*
X65049000Y-86888967D01*
X68850000Y-86888967D01*
X68850000Y-87211033D01*
X68912832Y-87526912D01*
X69036082Y-87824463D01*
X69215013Y-88092252D01*
X69442748Y-88319987D01*
X69710537Y-88498918D01*
X70008088Y-88622168D01*
X70323967Y-88685000D01*
X70646033Y-88685000D01*
X70961912Y-88622168D01*
X71259463Y-88498918D01*
X71527252Y-88319987D01*
X71754987Y-88092252D01*
X71860059Y-87935000D01*
X75609941Y-87935000D01*
X75715013Y-88092252D01*
X75942748Y-88319987D01*
X76210537Y-88498918D01*
X76508088Y-88622168D01*
X76823967Y-88685000D01*
X77146033Y-88685000D01*
X77461912Y-88622168D01*
X77759463Y-88498918D01*
X78027252Y-88319987D01*
X78254987Y-88092252D01*
X78433918Y-87824463D01*
X78557168Y-87526912D01*
X78620000Y-87211033D01*
X78620000Y-87096578D01*
X82331040Y-83385539D01*
X82403740Y-83400000D01*
X82696260Y-83400000D01*
X82983158Y-83342932D01*
X83253411Y-83230990D01*
X83496632Y-83068475D01*
X83703475Y-82861632D01*
X83865990Y-82618411D01*
X83977932Y-82348158D01*
X84035000Y-82061260D01*
X84035000Y-81768740D01*
X83977932Y-81481842D01*
X83865990Y-81211589D01*
X83703475Y-80968368D01*
X83496632Y-80761525D01*
X83314466Y-80639805D01*
X83431355Y-80570178D01*
X83647588Y-80375269D01*
X83821641Y-80141920D01*
X83946825Y-79879099D01*
X83991476Y-79731890D01*
X83870155Y-79502000D01*
X82677000Y-79502000D01*
X82677000Y-79522000D01*
X82423000Y-79522000D01*
X82423000Y-79502000D01*
X81229845Y-79502000D01*
X81108524Y-79731890D01*
X81153175Y-79879099D01*
X81278359Y-80141920D01*
X81452412Y-80375269D01*
X81668645Y-80570178D01*
X81785534Y-80639805D01*
X81603368Y-80761525D01*
X81396525Y-80968368D01*
X81234010Y-81211589D01*
X81122068Y-81481842D01*
X81065000Y-81768740D01*
X81065000Y-82061260D01*
X81079461Y-82133960D01*
X77655431Y-85557991D01*
X77461912Y-85477832D01*
X77146033Y-85415000D01*
X76823967Y-85415000D01*
X76508088Y-85477832D01*
X76210537Y-85601082D01*
X75942748Y-85780013D01*
X75715013Y-86007748D01*
X75609941Y-86165000D01*
X71860059Y-86165000D01*
X71754987Y-86007748D01*
X71527252Y-85780013D01*
X71259463Y-85601082D01*
X70961912Y-85477832D01*
X70646033Y-85415000D01*
X70323967Y-85415000D01*
X70008088Y-85477832D01*
X69710537Y-85601082D01*
X69442748Y-85780013D01*
X69215013Y-86007748D01*
X69036082Y-86275537D01*
X68912832Y-86573088D01*
X68850000Y-86888967D01*
X65049000Y-86888967D01*
X65049000Y-83685413D01*
X69529192Y-83685413D01*
X69624956Y-83949814D01*
X69914571Y-84090704D01*
X70226108Y-84172384D01*
X70547595Y-84191718D01*
X70866675Y-84147961D01*
X71171088Y-84042795D01*
X71345044Y-83949814D01*
X71440808Y-83685413D01*
X76029192Y-83685413D01*
X76124956Y-83949814D01*
X76414571Y-84090704D01*
X76726108Y-84172384D01*
X77047595Y-84191718D01*
X77366675Y-84147961D01*
X77671088Y-84042795D01*
X77845044Y-83949814D01*
X77940808Y-83685413D01*
X76985000Y-82729605D01*
X76029192Y-83685413D01*
X71440808Y-83685413D01*
X70485000Y-82729605D01*
X69529192Y-83685413D01*
X65049000Y-83685413D01*
X65049000Y-82612595D01*
X68843282Y-82612595D01*
X68887039Y-82931675D01*
X68992205Y-83236088D01*
X69085186Y-83410044D01*
X69349587Y-83505808D01*
X70305395Y-82550000D01*
X70664605Y-82550000D01*
X71620413Y-83505808D01*
X71884814Y-83410044D01*
X72025704Y-83120429D01*
X72107384Y-82808892D01*
X72119189Y-82612595D01*
X75343282Y-82612595D01*
X75387039Y-82931675D01*
X75492205Y-83236088D01*
X75585186Y-83410044D01*
X75849587Y-83505808D01*
X76805395Y-82550000D01*
X77164605Y-82550000D01*
X78120413Y-83505808D01*
X78384814Y-83410044D01*
X78525704Y-83120429D01*
X78607384Y-82808892D01*
X78626718Y-82487405D01*
X78582961Y-82168325D01*
X78477795Y-81863912D01*
X78384814Y-81689956D01*
X78120413Y-81594192D01*
X77164605Y-82550000D01*
X76805395Y-82550000D01*
X75849587Y-81594192D01*
X75585186Y-81689956D01*
X75444296Y-81979571D01*
X75362616Y-82291108D01*
X75343282Y-82612595D01*
X72119189Y-82612595D01*
X72126718Y-82487405D01*
X72082961Y-82168325D01*
X71977795Y-81863912D01*
X71884814Y-81689956D01*
X71620413Y-81594192D01*
X70664605Y-82550000D01*
X70305395Y-82550000D01*
X69349587Y-81594192D01*
X69085186Y-81689956D01*
X68944296Y-81979571D01*
X68862616Y-82291108D01*
X68843282Y-82612595D01*
X65049000Y-82612595D01*
X65049000Y-81414587D01*
X69529192Y-81414587D01*
X70485000Y-82370395D01*
X71440808Y-81414587D01*
X76029192Y-81414587D01*
X76985000Y-82370395D01*
X77940808Y-81414587D01*
X77845044Y-81150186D01*
X77555429Y-81009296D01*
X77243892Y-80927616D01*
X76922405Y-80908282D01*
X76603325Y-80952039D01*
X76298912Y-81057205D01*
X76124956Y-81150186D01*
X76029192Y-81414587D01*
X71440808Y-81414587D01*
X71345044Y-81150186D01*
X71055429Y-81009296D01*
X70743892Y-80927616D01*
X70422405Y-80908282D01*
X70103325Y-80952039D01*
X69798912Y-81057205D01*
X69624956Y-81150186D01*
X69529192Y-81414587D01*
X65049000Y-81414587D01*
X65049000Y-77335413D01*
X69506192Y-77335413D01*
X69601956Y-77599814D01*
X69891571Y-77740704D01*
X70203108Y-77822384D01*
X70524595Y-77841718D01*
X70843675Y-77797961D01*
X71148088Y-77692795D01*
X71322044Y-77599814D01*
X71417808Y-77335413D01*
X76006192Y-77335413D01*
X76101956Y-77599814D01*
X76391571Y-77740704D01*
X76703108Y-77822384D01*
X77024595Y-77841718D01*
X77343675Y-77797961D01*
X77648088Y-77692795D01*
X77822044Y-77599814D01*
X77917808Y-77335413D01*
X76962000Y-76379605D01*
X76006192Y-77335413D01*
X71417808Y-77335413D01*
X70462000Y-76379605D01*
X69506192Y-77335413D01*
X65049000Y-77335413D01*
X65049000Y-76262595D01*
X68820282Y-76262595D01*
X68864039Y-76581675D01*
X68969205Y-76886088D01*
X69062186Y-77060044D01*
X69326587Y-77155808D01*
X70282395Y-76200000D01*
X70641605Y-76200000D01*
X71597413Y-77155808D01*
X71861814Y-77060044D01*
X72002704Y-76770429D01*
X72084384Y-76458892D01*
X72096189Y-76262595D01*
X75320282Y-76262595D01*
X75364039Y-76581675D01*
X75469205Y-76886088D01*
X75562186Y-77060044D01*
X75826587Y-77155808D01*
X76782395Y-76200000D01*
X77141605Y-76200000D01*
X78097413Y-77155808D01*
X78361814Y-77060044D01*
X78502704Y-76770429D01*
X78584384Y-76458892D01*
X78603718Y-76137405D01*
X78559961Y-75818325D01*
X78454795Y-75513912D01*
X78361814Y-75339956D01*
X78097413Y-75244192D01*
X77141605Y-76200000D01*
X76782395Y-76200000D01*
X75826587Y-75244192D01*
X75562186Y-75339956D01*
X75421296Y-75629571D01*
X75339616Y-75941108D01*
X75320282Y-76262595D01*
X72096189Y-76262595D01*
X72103718Y-76137405D01*
X72059961Y-75818325D01*
X71954795Y-75513912D01*
X71861814Y-75339956D01*
X71597413Y-75244192D01*
X70641605Y-76200000D01*
X70282395Y-76200000D01*
X69326587Y-75244192D01*
X69062186Y-75339956D01*
X68921296Y-75629571D01*
X68839616Y-75941108D01*
X68820282Y-76262595D01*
X65049000Y-76262595D01*
X65049000Y-75064587D01*
X69506192Y-75064587D01*
X70462000Y-76020395D01*
X71417808Y-75064587D01*
X76006192Y-75064587D01*
X76962000Y-76020395D01*
X77917808Y-75064587D01*
X77822044Y-74800186D01*
X77532429Y-74659296D01*
X77220892Y-74577616D01*
X76899405Y-74558282D01*
X76580325Y-74602039D01*
X76275912Y-74707205D01*
X76101956Y-74800186D01*
X76006192Y-75064587D01*
X71417808Y-75064587D01*
X71322044Y-74800186D01*
X71032429Y-74659296D01*
X70720892Y-74577616D01*
X70399405Y-74558282D01*
X70080325Y-74602039D01*
X69775912Y-74707205D01*
X69601956Y-74800186D01*
X69506192Y-75064587D01*
X65049000Y-75064587D01*
X65049000Y-71538967D01*
X68827000Y-71538967D01*
X68827000Y-71861033D01*
X68889832Y-72176912D01*
X69013082Y-72474463D01*
X69192013Y-72742252D01*
X69419748Y-72969987D01*
X69687537Y-73148918D01*
X69985088Y-73272168D01*
X70300967Y-73335000D01*
X70623033Y-73335000D01*
X70938912Y-73272168D01*
X71236463Y-73148918D01*
X71504252Y-72969987D01*
X71731987Y-72742252D01*
X71837059Y-72585000D01*
X75586941Y-72585000D01*
X75692013Y-72742252D01*
X75919748Y-72969987D01*
X76187537Y-73148918D01*
X76485088Y-73272168D01*
X76800967Y-73335000D01*
X77123033Y-73335000D01*
X77308525Y-73298103D01*
X81061928Y-77051507D01*
X81061928Y-77685000D01*
X81074188Y-77809482D01*
X81110498Y-77929180D01*
X81169463Y-78039494D01*
X81248815Y-78136185D01*
X81345506Y-78215537D01*
X81455820Y-78274502D01*
X81536466Y-78298966D01*
X81452412Y-78374731D01*
X81278359Y-78608080D01*
X81153175Y-78870901D01*
X81108524Y-79018110D01*
X81229845Y-79248000D01*
X82423000Y-79248000D01*
X82423000Y-79228000D01*
X82677000Y-79228000D01*
X82677000Y-79248000D01*
X83870155Y-79248000D01*
X83991476Y-79018110D01*
X83946825Y-78870901D01*
X83821641Y-78608080D01*
X83647588Y-78374731D01*
X83563534Y-78298966D01*
X83644180Y-78274502D01*
X83754494Y-78215537D01*
X83851185Y-78136185D01*
X83930537Y-78039494D01*
X83989502Y-77929180D01*
X84025812Y-77809482D01*
X84038072Y-77685000D01*
X84038072Y-75985000D01*
X84025812Y-75860518D01*
X83989502Y-75740820D01*
X83930537Y-75630506D01*
X83851185Y-75533815D01*
X83754494Y-75454463D01*
X83644180Y-75395498D01*
X83524482Y-75359188D01*
X83400000Y-75346928D01*
X81860507Y-75346928D01*
X78560103Y-72046525D01*
X78597000Y-71861033D01*
X78597000Y-71538967D01*
X78534168Y-71223088D01*
X78410918Y-70925537D01*
X78231987Y-70657748D01*
X78004252Y-70430013D01*
X77736463Y-70251082D01*
X77438912Y-70127832D01*
X77123033Y-70065000D01*
X76800967Y-70065000D01*
X76485088Y-70127832D01*
X76187537Y-70251082D01*
X75919748Y-70430013D01*
X75692013Y-70657748D01*
X75586941Y-70815000D01*
X71837059Y-70815000D01*
X71731987Y-70657748D01*
X71504252Y-70430013D01*
X71236463Y-70251082D01*
X70938912Y-70127832D01*
X70623033Y-70065000D01*
X70300967Y-70065000D01*
X69985088Y-70127832D01*
X69687537Y-70251082D01*
X69419748Y-70430013D01*
X69192013Y-70657748D01*
X69013082Y-70925537D01*
X68889832Y-71223088D01*
X68827000Y-71538967D01*
X65049000Y-71538967D01*
X65049000Y-68707000D01*
X84684001Y-68707000D01*
X84684001Y-90678000D01*
G37*
G04 #@! TD.AperFunction*
D16*
X84684000Y-110998000D02*
X65049000Y-110998000D01*
X65049000Y-107605475D01*
X68739000Y-107605475D01*
X68739000Y-108124525D01*
X68840261Y-108633601D01*
X69038893Y-109113141D01*
X69327262Y-109544715D01*
X69694285Y-109911738D01*
X70125859Y-110200107D01*
X70605399Y-110398739D01*
X71114475Y-110500000D01*
X71633525Y-110500000D01*
X72142601Y-110398739D01*
X72622141Y-110200107D01*
X73053715Y-109911738D01*
X73420738Y-109544715D01*
X73709107Y-109113141D01*
X73907739Y-108633601D01*
X74009000Y-108124525D01*
X74009000Y-107605475D01*
X73907739Y-107096399D01*
X73879855Y-107029080D01*
X77489525Y-107029080D01*
X77573208Y-107283261D01*
X77845775Y-107414158D01*
X78138642Y-107489365D01*
X78440553Y-107505991D01*
X78739907Y-107463397D01*
X79025199Y-107363222D01*
X79174792Y-107283261D01*
X79258475Y-107029080D01*
X78374000Y-106144605D01*
X77489525Y-107029080D01*
X73879855Y-107029080D01*
X73709107Y-106616859D01*
X73420738Y-106185285D01*
X73267006Y-106031553D01*
X76833009Y-106031553D01*
X76875603Y-106330907D01*
X76975778Y-106616199D01*
X77055739Y-106765792D01*
X77309920Y-106849475D01*
X78194395Y-105965000D01*
X78553605Y-105965000D01*
X79438080Y-106849475D01*
X79692261Y-106765792D01*
X79823158Y-106493225D01*
X79846612Y-106401890D01*
X81108524Y-106401890D01*
X81153175Y-106549099D01*
X81278359Y-106811920D01*
X81452412Y-107045269D01*
X81668645Y-107240178D01*
X81918748Y-107389157D01*
X82193109Y-107486481D01*
X82423000Y-107365814D01*
X82423000Y-106172000D01*
X82677000Y-106172000D01*
X82677000Y-107365814D01*
X82906891Y-107486481D01*
X83181252Y-107389157D01*
X83431355Y-107240178D01*
X83647588Y-107045269D01*
X83821641Y-106811920D01*
X83946825Y-106549099D01*
X83991476Y-106401890D01*
X83870155Y-106172000D01*
X82677000Y-106172000D01*
X82423000Y-106172000D01*
X81229845Y-106172000D01*
X81108524Y-106401890D01*
X79846612Y-106401890D01*
X79898365Y-106200358D01*
X79914991Y-105898447D01*
X79872397Y-105599093D01*
X79772222Y-105313801D01*
X79692261Y-105164208D01*
X79438080Y-105080525D01*
X78553605Y-105965000D01*
X78194395Y-105965000D01*
X77309920Y-105080525D01*
X77055739Y-105164208D01*
X76924842Y-105436775D01*
X76849635Y-105729642D01*
X76833009Y-106031553D01*
X73267006Y-106031553D01*
X73053715Y-105818262D01*
X72622141Y-105529893D01*
X72142601Y-105331261D01*
X71633525Y-105230000D01*
X71114475Y-105230000D01*
X70605399Y-105331261D01*
X70125859Y-105529893D01*
X69694285Y-105818262D01*
X69327262Y-106185285D01*
X69038893Y-106616859D01*
X68840261Y-107096399D01*
X68739000Y-107605475D01*
X65049000Y-107605475D01*
X65049000Y-98805475D01*
X68739000Y-98805475D01*
X68739000Y-99324525D01*
X68840261Y-99833601D01*
X69038893Y-100313141D01*
X69327262Y-100744715D01*
X69694285Y-101111738D01*
X70125859Y-101400107D01*
X70605399Y-101598739D01*
X71114475Y-101700000D01*
X71633525Y-101700000D01*
X72142601Y-101598739D01*
X72622141Y-101400107D01*
X73053715Y-101111738D01*
X73351637Y-100813816D01*
X76839000Y-100813816D01*
X76839000Y-101116184D01*
X76897989Y-101412743D01*
X77013701Y-101692095D01*
X77181688Y-101943505D01*
X77395495Y-102157312D01*
X77481831Y-102215000D01*
X77395495Y-102272688D01*
X77181688Y-102486495D01*
X77013701Y-102737905D01*
X76897989Y-103017257D01*
X76839000Y-103313816D01*
X76839000Y-103616184D01*
X76897989Y-103912743D01*
X77013701Y-104192095D01*
X77181688Y-104443505D01*
X77395495Y-104657312D01*
X77538310Y-104752738D01*
X77489525Y-104900920D01*
X78374000Y-105785395D01*
X79258475Y-104900920D01*
X79209690Y-104752738D01*
X79352505Y-104657312D01*
X79566312Y-104443505D01*
X79628790Y-104350000D01*
X81328617Y-104350000D01*
X81396525Y-104451632D01*
X81603368Y-104658475D01*
X81785534Y-104780195D01*
X81668645Y-104849822D01*
X81452412Y-105044731D01*
X81278359Y-105278080D01*
X81153175Y-105540901D01*
X81108524Y-105688110D01*
X81229845Y-105918000D01*
X82423000Y-105918000D01*
X82423000Y-105898000D01*
X82677000Y-105898000D01*
X82677000Y-105918000D01*
X83870155Y-105918000D01*
X83991476Y-105688110D01*
X83946825Y-105540901D01*
X83821641Y-105278080D01*
X83647588Y-105044731D01*
X83431355Y-104849822D01*
X83314466Y-104780195D01*
X83496632Y-104658475D01*
X83703475Y-104451632D01*
X83865990Y-104208411D01*
X83977932Y-103938158D01*
X84035000Y-103651260D01*
X84035000Y-103358740D01*
X83977932Y-103071842D01*
X83865990Y-102801589D01*
X83703475Y-102558368D01*
X83571620Y-102426513D01*
X83644180Y-102404502D01*
X83754494Y-102345537D01*
X83851185Y-102266185D01*
X83930537Y-102169494D01*
X83989502Y-102059180D01*
X84025812Y-101939482D01*
X84038072Y-101815000D01*
X84038072Y-100115000D01*
X84025812Y-99990518D01*
X83989502Y-99870820D01*
X83930537Y-99760506D01*
X83851185Y-99663815D01*
X83754494Y-99584463D01*
X83644180Y-99525498D01*
X83524482Y-99489188D01*
X83400000Y-99476928D01*
X81700000Y-99476928D01*
X81575518Y-99489188D01*
X81455820Y-99525498D01*
X81345506Y-99584463D01*
X81248815Y-99663815D01*
X81169463Y-99760506D01*
X81110498Y-99870820D01*
X81074188Y-99990518D01*
X81065375Y-100080000D01*
X79628790Y-100080000D01*
X79566312Y-99986495D01*
X79352505Y-99772688D01*
X79101095Y-99604701D01*
X78821743Y-99488989D01*
X78525184Y-99430000D01*
X78222816Y-99430000D01*
X77926257Y-99488989D01*
X77646905Y-99604701D01*
X77395495Y-99772688D01*
X77181688Y-99986495D01*
X77013701Y-100237905D01*
X76897989Y-100517257D01*
X76839000Y-100813816D01*
X73351637Y-100813816D01*
X73420738Y-100744715D01*
X73709107Y-100313141D01*
X73907739Y-99833601D01*
X74009000Y-99324525D01*
X74009000Y-98805475D01*
X73907739Y-98296399D01*
X73709107Y-97816859D01*
X73420738Y-97385285D01*
X73053715Y-97018262D01*
X72622141Y-96729893D01*
X72142601Y-96531261D01*
X71633525Y-96430000D01*
X71114475Y-96430000D01*
X70605399Y-96531261D01*
X70125859Y-96729893D01*
X69694285Y-97018262D01*
X69327262Y-97385285D01*
X69038893Y-97816859D01*
X68840261Y-98296399D01*
X68739000Y-98805475D01*
X65049000Y-98805475D01*
X65049000Y-96012000D01*
X84684000Y-96012000D01*
X84684000Y-110998000D01*
G04 #@! TA.AperFunction,Conductor*
D17*
G36*
X84684000Y-110998000D02*
G01*
X65049000Y-110998000D01*
X65049000Y-107605475D01*
X68739000Y-107605475D01*
X68739000Y-108124525D01*
X68840261Y-108633601D01*
X69038893Y-109113141D01*
X69327262Y-109544715D01*
X69694285Y-109911738D01*
X70125859Y-110200107D01*
X70605399Y-110398739D01*
X71114475Y-110500000D01*
X71633525Y-110500000D01*
X72142601Y-110398739D01*
X72622141Y-110200107D01*
X73053715Y-109911738D01*
X73420738Y-109544715D01*
X73709107Y-109113141D01*
X73907739Y-108633601D01*
X74009000Y-108124525D01*
X74009000Y-107605475D01*
X73907739Y-107096399D01*
X73879855Y-107029080D01*
X77489525Y-107029080D01*
X77573208Y-107283261D01*
X77845775Y-107414158D01*
X78138642Y-107489365D01*
X78440553Y-107505991D01*
X78739907Y-107463397D01*
X79025199Y-107363222D01*
X79174792Y-107283261D01*
X79258475Y-107029080D01*
X78374000Y-106144605D01*
X77489525Y-107029080D01*
X73879855Y-107029080D01*
X73709107Y-106616859D01*
X73420738Y-106185285D01*
X73267006Y-106031553D01*
X76833009Y-106031553D01*
X76875603Y-106330907D01*
X76975778Y-106616199D01*
X77055739Y-106765792D01*
X77309920Y-106849475D01*
X78194395Y-105965000D01*
X78553605Y-105965000D01*
X79438080Y-106849475D01*
X79692261Y-106765792D01*
X79823158Y-106493225D01*
X79846612Y-106401890D01*
X81108524Y-106401890D01*
X81153175Y-106549099D01*
X81278359Y-106811920D01*
X81452412Y-107045269D01*
X81668645Y-107240178D01*
X81918748Y-107389157D01*
X82193109Y-107486481D01*
X82423000Y-107365814D01*
X82423000Y-106172000D01*
X82677000Y-106172000D01*
X82677000Y-107365814D01*
X82906891Y-107486481D01*
X83181252Y-107389157D01*
X83431355Y-107240178D01*
X83647588Y-107045269D01*
X83821641Y-106811920D01*
X83946825Y-106549099D01*
X83991476Y-106401890D01*
X83870155Y-106172000D01*
X82677000Y-106172000D01*
X82423000Y-106172000D01*
X81229845Y-106172000D01*
X81108524Y-106401890D01*
X79846612Y-106401890D01*
X79898365Y-106200358D01*
X79914991Y-105898447D01*
X79872397Y-105599093D01*
X79772222Y-105313801D01*
X79692261Y-105164208D01*
X79438080Y-105080525D01*
X78553605Y-105965000D01*
X78194395Y-105965000D01*
X77309920Y-105080525D01*
X77055739Y-105164208D01*
X76924842Y-105436775D01*
X76849635Y-105729642D01*
X76833009Y-106031553D01*
X73267006Y-106031553D01*
X73053715Y-105818262D01*
X72622141Y-105529893D01*
X72142601Y-105331261D01*
X71633525Y-105230000D01*
X71114475Y-105230000D01*
X70605399Y-105331261D01*
X70125859Y-105529893D01*
X69694285Y-105818262D01*
X69327262Y-106185285D01*
X69038893Y-106616859D01*
X68840261Y-107096399D01*
X68739000Y-107605475D01*
X65049000Y-107605475D01*
X65049000Y-98805475D01*
X68739000Y-98805475D01*
X68739000Y-99324525D01*
X68840261Y-99833601D01*
X69038893Y-100313141D01*
X69327262Y-100744715D01*
X69694285Y-101111738D01*
X70125859Y-101400107D01*
X70605399Y-101598739D01*
X71114475Y-101700000D01*
X71633525Y-101700000D01*
X72142601Y-101598739D01*
X72622141Y-101400107D01*
X73053715Y-101111738D01*
X73351637Y-100813816D01*
X76839000Y-100813816D01*
X76839000Y-101116184D01*
X76897989Y-101412743D01*
X77013701Y-101692095D01*
X77181688Y-101943505D01*
X77395495Y-102157312D01*
X77481831Y-102215000D01*
X77395495Y-102272688D01*
X77181688Y-102486495D01*
X77013701Y-102737905D01*
X76897989Y-103017257D01*
X76839000Y-103313816D01*
X76839000Y-103616184D01*
X76897989Y-103912743D01*
X77013701Y-104192095D01*
X77181688Y-104443505D01*
X77395495Y-104657312D01*
X77538310Y-104752738D01*
X77489525Y-104900920D01*
X78374000Y-105785395D01*
X79258475Y-104900920D01*
X79209690Y-104752738D01*
X79352505Y-104657312D01*
X79566312Y-104443505D01*
X79628790Y-104350000D01*
X81328617Y-104350000D01*
X81396525Y-104451632D01*
X81603368Y-104658475D01*
X81785534Y-104780195D01*
X81668645Y-104849822D01*
X81452412Y-105044731D01*
X81278359Y-105278080D01*
X81153175Y-105540901D01*
X81108524Y-105688110D01*
X81229845Y-105918000D01*
X82423000Y-105918000D01*
X82423000Y-105898000D01*
X82677000Y-105898000D01*
X82677000Y-105918000D01*
X83870155Y-105918000D01*
X83991476Y-105688110D01*
X83946825Y-105540901D01*
X83821641Y-105278080D01*
X83647588Y-105044731D01*
X83431355Y-104849822D01*
X83314466Y-104780195D01*
X83496632Y-104658475D01*
X83703475Y-104451632D01*
X83865990Y-104208411D01*
X83977932Y-103938158D01*
X84035000Y-103651260D01*
X84035000Y-103358740D01*
X83977932Y-103071842D01*
X83865990Y-102801589D01*
X83703475Y-102558368D01*
X83571620Y-102426513D01*
X83644180Y-102404502D01*
X83754494Y-102345537D01*
X83851185Y-102266185D01*
X83930537Y-102169494D01*
X83989502Y-102059180D01*
X84025812Y-101939482D01*
X84038072Y-101815000D01*
X84038072Y-100115000D01*
X84025812Y-99990518D01*
X83989502Y-99870820D01*
X83930537Y-99760506D01*
X83851185Y-99663815D01*
X83754494Y-99584463D01*
X83644180Y-99525498D01*
X83524482Y-99489188D01*
X83400000Y-99476928D01*
X81700000Y-99476928D01*
X81575518Y-99489188D01*
X81455820Y-99525498D01*
X81345506Y-99584463D01*
X81248815Y-99663815D01*
X81169463Y-99760506D01*
X81110498Y-99870820D01*
X81074188Y-99990518D01*
X81065375Y-100080000D01*
X79628790Y-100080000D01*
X79566312Y-99986495D01*
X79352505Y-99772688D01*
X79101095Y-99604701D01*
X78821743Y-99488989D01*
X78525184Y-99430000D01*
X78222816Y-99430000D01*
X77926257Y-99488989D01*
X77646905Y-99604701D01*
X77395495Y-99772688D01*
X77181688Y-99986495D01*
X77013701Y-100237905D01*
X76897989Y-100517257D01*
X76839000Y-100813816D01*
X73351637Y-100813816D01*
X73420738Y-100744715D01*
X73709107Y-100313141D01*
X73907739Y-99833601D01*
X74009000Y-99324525D01*
X74009000Y-98805475D01*
X73907739Y-98296399D01*
X73709107Y-97816859D01*
X73420738Y-97385285D01*
X73053715Y-97018262D01*
X72622141Y-96729893D01*
X72142601Y-96531261D01*
X71633525Y-96430000D01*
X71114475Y-96430000D01*
X70605399Y-96531261D01*
X70125859Y-96729893D01*
X69694285Y-97018262D01*
X69327262Y-97385285D01*
X69038893Y-97816859D01*
X68840261Y-98296399D01*
X68739000Y-98805475D01*
X65049000Y-98805475D01*
X65049000Y-96012000D01*
X84684000Y-96012000D01*
X84684000Y-110998000D01*
G37*
G04 #@! TD.AperFunction*
M02*
