G04 #@! TF.GenerationSoftware,KiCad,Pcbnew,(5.1.8)-1*
G04 #@! TF.CreationDate,2021-07-09T23:37:54+09:00*
G04 #@! TF.ProjectId,L3PSG6n9,4c335053-4736-46e3-992e-6b696361645f,0.2*
G04 #@! TF.SameCoordinates,PX1059ca8PY83885d0*
G04 #@! TF.FileFunction,Soldermask,Top*
G04 #@! TF.FilePolarity,Negative*
%FSLAX46Y46*%
G04 Gerber Fmt 4.6, Leading zero omitted, Abs format (unit mm)*
G04 Created by KiCad (PCBNEW (5.1.8)-1) date 2021-07-09 23:37:54*
%MOMM*%
%LPD*%
G01*
G04 APERTURE LIST*
%ADD10R,1.524000X1.524000*%
%ADD11O,1.524000X1.524000*%
%ADD12R,2.600000X0.600000*%
%ADD13C,1.600000*%
%ADD14R,1.700000X1.700000*%
%ADD15R,1.600000X1.600000*%
%ADD16C,1.524000*%
%ADD17O,1.600000X1.600000*%
%ADD18O,1.700000X1.700000*%
%ADD19O,3.010000X1.510000*%
%ADD20C,3.200000*%
%ADD21C,0.254000*%
%ADD22C,0.100000*%
G04 APERTURE END LIST*
D10*
X103505000Y14732000D03*
D11*
X151765000Y29972000D03*
X106045000Y14732000D03*
X149225000Y29972000D03*
X108585000Y14732000D03*
X146685000Y29972000D03*
X111125000Y14732000D03*
X144145000Y29972000D03*
X113665000Y14732000D03*
X141605000Y29972000D03*
X116205000Y14732000D03*
X139065000Y29972000D03*
X118745000Y14732000D03*
X136525000Y29972000D03*
X121285000Y14732000D03*
X133985000Y29972000D03*
X123825000Y14732000D03*
X131445000Y29972000D03*
X126365000Y14732000D03*
X128905000Y29972000D03*
X128905000Y14732000D03*
X126365000Y29972000D03*
X131445000Y14732000D03*
X123825000Y29972000D03*
X133985000Y14732000D03*
X121285000Y29972000D03*
X136525000Y14732000D03*
X118745000Y29972000D03*
X139065000Y14732000D03*
X116205000Y29972000D03*
X141605000Y14732000D03*
X113665000Y29972000D03*
X144145000Y14732000D03*
X111125000Y29972000D03*
X146685000Y14732000D03*
X108585000Y29972000D03*
X149225000Y14732000D03*
X106045000Y29972000D03*
X151765000Y14732000D03*
X103505000Y29972000D03*
D12*
X125805000Y69977000D03*
X132005000Y69977000D03*
X125805000Y71247000D03*
X132005000Y71247000D03*
X125805000Y72517000D03*
X132005000Y72517000D03*
X125805000Y73787000D03*
X132005000Y73787000D03*
X125805000Y75057000D03*
X132005000Y75057000D03*
X125805000Y76327000D03*
X132005000Y76327000D03*
X125805000Y77597000D03*
X132005000Y77597000D03*
D13*
X131405000Y80137000D03*
X128905000Y80137000D03*
D14*
X160655000Y80137000D03*
D10*
X103505000Y36322000D03*
D11*
X151765000Y51562000D03*
X106045000Y36322000D03*
X149225000Y51562000D03*
X108585000Y36322000D03*
X146685000Y51562000D03*
X111125000Y36322000D03*
X144145000Y51562000D03*
X113665000Y36322000D03*
X141605000Y51562000D03*
X116205000Y36322000D03*
X139065000Y51562000D03*
X118745000Y36322000D03*
X136525000Y51562000D03*
X121285000Y36322000D03*
X133985000Y51562000D03*
X123825000Y36322000D03*
X131445000Y51562000D03*
X126365000Y36322000D03*
X128905000Y51562000D03*
X128905000Y36322000D03*
X126365000Y51562000D03*
X131445000Y36322000D03*
X123825000Y51562000D03*
X133985000Y36322000D03*
X121285000Y51562000D03*
X136525000Y36322000D03*
X118745000Y51562000D03*
X139065000Y36322000D03*
X116205000Y51562000D03*
X141605000Y36322000D03*
X113665000Y51562000D03*
X144145000Y36322000D03*
X111125000Y51562000D03*
X146685000Y36322000D03*
X108585000Y51562000D03*
X149225000Y36322000D03*
X106045000Y51562000D03*
X151765000Y36322000D03*
X103505000Y51562000D03*
D12*
X113740000Y69977000D03*
X119940000Y69977000D03*
X113740000Y71247000D03*
X119940000Y71247000D03*
X113740000Y72517000D03*
X119940000Y72517000D03*
X113740000Y73787000D03*
X119940000Y73787000D03*
X113740000Y75057000D03*
X119940000Y75057000D03*
X113740000Y76327000D03*
X119940000Y76327000D03*
X113740000Y77597000D03*
X119940000Y77597000D03*
X149860000Y69977000D03*
X156060000Y69977000D03*
X149860000Y71247000D03*
X156060000Y71247000D03*
X149860000Y72517000D03*
X156060000Y72517000D03*
X149860000Y73787000D03*
X156060000Y73787000D03*
X149860000Y75057000D03*
X156060000Y75057000D03*
X149860000Y76327000D03*
X156060000Y76327000D03*
X149860000Y77597000D03*
X156060000Y77597000D03*
X149860000Y55372000D03*
X156060000Y55372000D03*
X149860000Y56642000D03*
X156060000Y56642000D03*
X149860000Y57912000D03*
X156060000Y57912000D03*
X149860000Y59182000D03*
X156060000Y59182000D03*
X149860000Y60452000D03*
X156060000Y60452000D03*
X149860000Y61722000D03*
X156060000Y61722000D03*
X149860000Y62992000D03*
X156060000Y62992000D03*
X162000000Y55372000D03*
X168200000Y55372000D03*
X162000000Y56642000D03*
X168200000Y56642000D03*
X162000000Y57912000D03*
X168200000Y57912000D03*
X162000000Y59182000D03*
X168200000Y59182000D03*
X162000000Y60452000D03*
X168200000Y60452000D03*
X162000000Y61722000D03*
X168200000Y61722000D03*
X162000000Y62992000D03*
X168200000Y62992000D03*
X137870000Y69977000D03*
X144070000Y69977000D03*
X137870000Y71247000D03*
X144070000Y71247000D03*
X137870000Y72517000D03*
X144070000Y72517000D03*
X137870000Y73787000D03*
X144070000Y73787000D03*
X137870000Y75057000D03*
X144070000Y75057000D03*
X137870000Y76327000D03*
X144070000Y76327000D03*
X137870000Y77597000D03*
X144070000Y77597000D03*
X137870000Y55372000D03*
X144070000Y55372000D03*
X137870000Y56642000D03*
X144070000Y56642000D03*
X137870000Y57912000D03*
X144070000Y57912000D03*
X137870000Y59182000D03*
X144070000Y59182000D03*
X137870000Y60452000D03*
X144070000Y60452000D03*
X137870000Y61722000D03*
X144070000Y61722000D03*
X137870000Y62992000D03*
X144070000Y62992000D03*
X137870000Y64262000D03*
X144070000Y64262000D03*
X100659000Y69977000D03*
X106859000Y69977000D03*
X100659000Y71247000D03*
X106859000Y71247000D03*
X100659000Y72517000D03*
X106859000Y72517000D03*
X100659000Y73787000D03*
X106859000Y73787000D03*
X100659000Y75057000D03*
X106859000Y75057000D03*
X100659000Y76327000D03*
X106859000Y76327000D03*
X100659000Y77597000D03*
X106859000Y77597000D03*
X100607000Y55372000D03*
X106807000Y55372000D03*
X100607000Y56642000D03*
X106807000Y56642000D03*
X100607000Y57912000D03*
X106807000Y57912000D03*
X100607000Y59182000D03*
X106807000Y59182000D03*
X100607000Y60452000D03*
X106807000Y60452000D03*
X100607000Y61722000D03*
X106807000Y61722000D03*
X100607000Y62992000D03*
X106807000Y62992000D03*
X100607000Y64262000D03*
X106807000Y64262000D03*
X100607000Y65532000D03*
X106807000Y65532000D03*
X100607000Y66802000D03*
X106807000Y66802000D03*
X125805000Y55372000D03*
X132005000Y55372000D03*
X125805000Y56642000D03*
X132005000Y56642000D03*
X125805000Y57912000D03*
X132005000Y57912000D03*
X125805000Y59182000D03*
X132005000Y59182000D03*
X125805000Y60452000D03*
X132005000Y60452000D03*
X125805000Y61722000D03*
X132005000Y61722000D03*
X125805000Y62992000D03*
X132005000Y62992000D03*
X125805000Y64262000D03*
X132005000Y64262000D03*
X113815000Y55372000D03*
X120015000Y55372000D03*
X113815000Y56642000D03*
X120015000Y56642000D03*
X113815000Y57912000D03*
X120015000Y57912000D03*
X113815000Y59182000D03*
X120015000Y59182000D03*
X113815000Y60452000D03*
X120015000Y60452000D03*
X113815000Y61722000D03*
X120015000Y61722000D03*
X113815000Y62992000D03*
X120015000Y62992000D03*
X113815000Y64262000D03*
X120015000Y64262000D03*
D15*
X19050000Y17272000D03*
D13*
X21550000Y17272000D03*
D16*
X76200000Y40767000D03*
X76200000Y43307000D03*
X76200000Y45847000D03*
X76200000Y48387000D03*
X76200000Y50927000D03*
X76200000Y53467000D03*
X76200000Y56007000D03*
X76200000Y58547000D03*
X76200000Y61087000D03*
X76200000Y63627000D03*
X76200000Y66167000D03*
X76200000Y68707000D03*
X91440000Y68707000D03*
X91440000Y66167000D03*
X91440000Y63627000D03*
X91440000Y61087000D03*
X91440000Y58547000D03*
X91440000Y56007000D03*
X91440000Y53467000D03*
X91440000Y50927000D03*
X91440000Y48387000D03*
X91440000Y45847000D03*
X91440000Y43307000D03*
D10*
X91440000Y40767000D03*
D16*
X93980000Y73787000D03*
X93980000Y71247000D03*
X93980000Y68707000D03*
X93980000Y66167000D03*
X93980000Y63627000D03*
X93980000Y61087000D03*
X93980000Y58547000D03*
X93980000Y56007000D03*
X93980000Y53467000D03*
X93980000Y50927000D03*
X93980000Y48387000D03*
X93980000Y45847000D03*
X93980000Y43307000D03*
X93980000Y40767000D03*
X93980000Y38227000D03*
X93980000Y35687000D03*
X93980000Y33147000D03*
X93980000Y30607000D03*
X93980000Y28067000D03*
X93980000Y25527000D03*
X78740000Y25527000D03*
X78740000Y28067000D03*
X78740000Y30607000D03*
X78740000Y33147000D03*
X78740000Y35687000D03*
X78740000Y38227000D03*
X78740000Y40767000D03*
X78740000Y43307000D03*
X78740000Y45847000D03*
X78740000Y48387000D03*
X78740000Y50927000D03*
X78740000Y53467000D03*
X78740000Y56007000D03*
X78740000Y58547000D03*
X78740000Y61087000D03*
X78740000Y63627000D03*
X78740000Y66167000D03*
X78740000Y68707000D03*
X78740000Y71247000D03*
D10*
X78740000Y73787000D03*
D16*
X49530000Y40767000D03*
X49530000Y43307000D03*
X49530000Y45847000D03*
X49530000Y48387000D03*
X49530000Y50927000D03*
X49530000Y53467000D03*
X49530000Y56007000D03*
X49530000Y58547000D03*
X49530000Y61087000D03*
X49530000Y63627000D03*
X49530000Y66167000D03*
X49530000Y68707000D03*
X64770000Y68707000D03*
X64770000Y66167000D03*
X64770000Y63627000D03*
X64770000Y61087000D03*
X64770000Y58547000D03*
X64770000Y56007000D03*
X64770000Y53467000D03*
X64770000Y50927000D03*
X64770000Y48387000D03*
X64770000Y45847000D03*
X64770000Y43307000D03*
D10*
X64770000Y40767000D03*
D16*
X67310000Y73787000D03*
X67310000Y71247000D03*
X67310000Y68707000D03*
X67310000Y66167000D03*
X67310000Y63627000D03*
X67310000Y61087000D03*
X67310000Y58547000D03*
X67310000Y56007000D03*
X67310000Y53467000D03*
X67310000Y50927000D03*
X67310000Y48387000D03*
X67310000Y45847000D03*
X67310000Y43307000D03*
X67310000Y40767000D03*
X67310000Y38227000D03*
X67310000Y35687000D03*
X67310000Y33147000D03*
X67310000Y30607000D03*
X67310000Y28067000D03*
X67310000Y25527000D03*
X52070000Y25527000D03*
X52070000Y28067000D03*
X52070000Y30607000D03*
X52070000Y33147000D03*
X52070000Y35687000D03*
X52070000Y38227000D03*
X52070000Y40767000D03*
X52070000Y43307000D03*
X52070000Y45847000D03*
X52070000Y48387000D03*
X52070000Y50927000D03*
X52070000Y53467000D03*
X52070000Y56007000D03*
X52070000Y58547000D03*
X52070000Y61087000D03*
X52070000Y63627000D03*
X52070000Y66167000D03*
X52070000Y68707000D03*
X52070000Y71247000D03*
D10*
X52070000Y73787000D03*
D16*
X22860000Y40767000D03*
X22860000Y43307000D03*
X22860000Y45847000D03*
X22860000Y48387000D03*
X22860000Y50927000D03*
X22860000Y53467000D03*
X22860000Y56007000D03*
X22860000Y58547000D03*
X22860000Y61087000D03*
X22860000Y63627000D03*
X22860000Y66167000D03*
X22860000Y68707000D03*
X38100000Y68707000D03*
X38100000Y66167000D03*
X38100000Y63627000D03*
X38100000Y61087000D03*
X38100000Y58547000D03*
X38100000Y56007000D03*
X38100000Y53467000D03*
X38100000Y50927000D03*
X38100000Y48387000D03*
X38100000Y45847000D03*
X38100000Y43307000D03*
D10*
X38100000Y40767000D03*
D16*
X40640000Y73787000D03*
X40640000Y71247000D03*
X40640000Y68707000D03*
X40640000Y66167000D03*
X40640000Y63627000D03*
X40640000Y61087000D03*
X40640000Y58547000D03*
X40640000Y56007000D03*
X40640000Y53467000D03*
X40640000Y50927000D03*
X40640000Y48387000D03*
X40640000Y45847000D03*
X40640000Y43307000D03*
X40640000Y40767000D03*
X40640000Y38227000D03*
X40640000Y35687000D03*
X40640000Y33147000D03*
X40640000Y30607000D03*
X40640000Y28067000D03*
X40640000Y25527000D03*
X25400000Y25527000D03*
X25400000Y28067000D03*
X25400000Y30607000D03*
X25400000Y33147000D03*
X25400000Y35687000D03*
X25400000Y38227000D03*
X25400000Y40767000D03*
X25400000Y43307000D03*
X25400000Y45847000D03*
X25400000Y48387000D03*
X25400000Y50927000D03*
X25400000Y53467000D03*
X25400000Y56007000D03*
X25400000Y58547000D03*
X25400000Y61087000D03*
X25400000Y63627000D03*
X25400000Y66167000D03*
X25400000Y68707000D03*
X25400000Y71247000D03*
D10*
X25400000Y73787000D03*
D13*
X96520000Y80772000D03*
D17*
X96520000Y78232000D03*
D13*
X92710000Y80772000D03*
D17*
X92710000Y78232000D03*
D13*
X19685000Y31877000D03*
D17*
X19685000Y34417000D03*
D13*
X74295000Y78232000D03*
D17*
X76835000Y78232000D03*
D13*
X47625000Y78232000D03*
D17*
X50165000Y78232000D03*
D13*
X24130000Y78232000D03*
D17*
X26670000Y78232000D03*
D13*
X73025000Y66802000D03*
D17*
X70485000Y66802000D03*
D13*
X73025000Y74422000D03*
D17*
X70485000Y74422000D03*
D13*
X73025000Y70612000D03*
D17*
X70485000Y70612000D03*
D13*
X46355000Y66802000D03*
D17*
X43815000Y66802000D03*
D13*
X46355000Y74422000D03*
D17*
X43815000Y74422000D03*
D13*
X46355000Y70612000D03*
D17*
X43815000Y70612000D03*
D13*
X19685000Y66802000D03*
D17*
X17145000Y66802000D03*
D13*
X19685000Y74422000D03*
D17*
X17145000Y74422000D03*
D13*
X19685000Y70612000D03*
D17*
X17145000Y70612000D03*
D13*
X156210000Y51562000D03*
D17*
X158750000Y51562000D03*
D13*
X156210000Y47752000D03*
D17*
X158750000Y47752000D03*
D13*
X156210000Y43942000D03*
D17*
X158750000Y43942000D03*
D13*
X156210000Y40132000D03*
D17*
X158750000Y40132000D03*
D13*
X156210000Y36322000D03*
D17*
X158750000Y36322000D03*
D13*
X156210000Y18542000D03*
D17*
X158750000Y18542000D03*
D13*
X156210000Y22352000D03*
D17*
X158750000Y22352000D03*
D13*
X156210000Y26162000D03*
D17*
X158750000Y26162000D03*
D13*
X87630000Y80772000D03*
D17*
X85090000Y80772000D03*
D14*
X66675000Y13462000D03*
D18*
X69215000Y13462000D03*
X71755000Y13462000D03*
D15*
X19685000Y24257000D03*
D13*
X19685000Y26757000D03*
D15*
X70485000Y79502000D03*
D13*
X67985000Y79502000D03*
D15*
X43815000Y79502000D03*
D13*
X41315000Y79502000D03*
D15*
X20320000Y79502000D03*
D13*
X17820000Y79502000D03*
D15*
X8255000Y46482000D03*
D13*
X10755000Y46482000D03*
X119380000Y80137000D03*
X116880000Y80137000D03*
X154940000Y80137000D03*
X152440000Y80137000D03*
X155575000Y65532000D03*
X153075000Y65532000D03*
X167640000Y65532000D03*
X165140000Y65532000D03*
X143510000Y80137000D03*
X141010000Y80137000D03*
X143510000Y66802000D03*
X141010000Y66802000D03*
X106045000Y80137000D03*
X103545000Y80137000D03*
X109855000Y66802000D03*
X112355000Y66802000D03*
X131318000Y66929000D03*
X128818000Y66929000D03*
X119380000Y66802000D03*
X116880000Y66802000D03*
X154940000Y33147000D03*
X157440000Y33147000D03*
X154940000Y14732000D03*
X157440000Y14732000D03*
X87630000Y76962000D03*
X85130000Y76962000D03*
X60960000Y76962000D03*
X58460000Y76962000D03*
X34290000Y76962000D03*
X31790000Y76962000D03*
D19*
X7620000Y40132000D03*
X7620000Y37592000D03*
X7620000Y35052000D03*
X7620000Y64262000D03*
X7620000Y61722000D03*
X7620000Y59182000D03*
D20*
X5461000Y18034000D03*
X5461000Y74422000D03*
D21*
X92583000Y762000D02*
X91821000Y0D01*
X18669000Y0D01*
X17907000Y762000D01*
X17907000Y8890000D01*
X92583000Y8890000D01*
X92583000Y762000D01*
D22*
G36*
X92583000Y762000D02*
G01*
X91821000Y0D01*
X18669000Y0D01*
X17907000Y762000D01*
X17907000Y8890000D01*
X92583000Y8890000D01*
X92583000Y762000D01*
G37*
M02*
