G04 #@! TF.GenerationSoftware,KiCad,Pcbnew,(5.1.8)-1*
G04 #@! TF.CreationDate,2021-07-09T23:37:54+09:00*
G04 #@! TF.ProjectId,L3PSG6n9,4c335053-4736-46e3-992e-6b696361645f,0.2*
G04 #@! TF.SameCoordinates,PX1059ca8PY83885d0*
G04 #@! TF.FileFunction,Legend,Top*
G04 #@! TF.FilePolarity,Positive*
%FSLAX46Y46*%
G04 Gerber Fmt 4.6, Leading zero omitted, Abs format (unit mm)*
G04 Created by KiCad (PCBNEW (5.1.8)-1) date 2021-07-09 23:37:54*
%MOMM*%
%LPD*%
G01*
G04 APERTURE LIST*
%ADD10C,0.150000*%
%ADD11C,0.120000*%
G04 APERTURE END LIST*
D10*
X165597857Y23702477D02*
X164397857Y23702477D01*
X164397857Y24083429D01*
X164455000Y24178667D01*
X164512142Y24226286D01*
X164626428Y24273905D01*
X164797857Y24273905D01*
X164912142Y24226286D01*
X164969285Y24178667D01*
X165026428Y24083429D01*
X165026428Y23702477D01*
X165540714Y24654858D02*
X165597857Y24797715D01*
X165597857Y25035810D01*
X165540714Y25131048D01*
X165483571Y25178667D01*
X165369285Y25226286D01*
X165255000Y25226286D01*
X165140714Y25178667D01*
X165083571Y25131048D01*
X165026428Y25035810D01*
X164969285Y24845334D01*
X164912142Y24750096D01*
X164855000Y24702477D01*
X164740714Y24654858D01*
X164626428Y24654858D01*
X164512142Y24702477D01*
X164455000Y24750096D01*
X164397857Y24845334D01*
X164397857Y25083429D01*
X164455000Y25226286D01*
X164455000Y26178667D02*
X164397857Y26083429D01*
X164397857Y25940572D01*
X164455000Y25797715D01*
X164569285Y25702477D01*
X164683571Y25654858D01*
X164912142Y25607239D01*
X165083571Y25607239D01*
X165312142Y25654858D01*
X165426428Y25702477D01*
X165540714Y25797715D01*
X165597857Y25940572D01*
X165597857Y26035810D01*
X165540714Y26178667D01*
X165483571Y26226286D01*
X165083571Y26226286D01*
X165083571Y26035810D01*
X164397857Y27845334D02*
X164397857Y27654858D01*
X164455000Y27559620D01*
X164512142Y27512000D01*
X164683571Y27416762D01*
X164912142Y27369143D01*
X165369285Y27369143D01*
X165483571Y27416762D01*
X165540714Y27464381D01*
X165597857Y27559620D01*
X165597857Y27750096D01*
X165540714Y27845334D01*
X165483571Y27892953D01*
X165369285Y27940572D01*
X165083571Y27940572D01*
X164969285Y27892953D01*
X164912142Y27845334D01*
X164855000Y27750096D01*
X164855000Y27559620D01*
X164912142Y27464381D01*
X164969285Y27416762D01*
X165083571Y27369143D01*
X165597857Y29940572D02*
X165597857Y29892953D01*
X165540714Y29797715D01*
X165369285Y29654858D01*
X165026428Y29416762D01*
X164855000Y29321524D01*
X164683571Y29273905D01*
X164569285Y29273905D01*
X164455000Y29321524D01*
X164397857Y29416762D01*
X164397857Y29464381D01*
X164455000Y29559620D01*
X164569285Y29607239D01*
X164626428Y29607239D01*
X164740714Y29559620D01*
X164797857Y29512000D01*
X165026428Y29226286D01*
X165083571Y29178667D01*
X165197857Y29131048D01*
X165369285Y29131048D01*
X165483571Y29178667D01*
X165540714Y29226286D01*
X165597857Y29321524D01*
X165597857Y29464381D01*
X165540714Y29559620D01*
X165483571Y29607239D01*
X165255000Y29750096D01*
X165083571Y29797715D01*
X164969285Y29797715D01*
X165597857Y31178667D02*
X165597857Y31369143D01*
X165540714Y31464381D01*
X165483571Y31512000D01*
X165312142Y31607239D01*
X165083571Y31654858D01*
X164626428Y31654858D01*
X164512142Y31607239D01*
X164455000Y31559620D01*
X164397857Y31464381D01*
X164397857Y31273905D01*
X164455000Y31178667D01*
X164512142Y31131048D01*
X164626428Y31083429D01*
X164912142Y31083429D01*
X165026428Y31131048D01*
X165083571Y31178667D01*
X165140714Y31273905D01*
X165140714Y31464381D01*
X165083571Y31559620D01*
X165026428Y31607239D01*
X164912142Y31654858D01*
X164397857Y32702477D02*
X165597857Y33035810D01*
X164397857Y33369143D01*
X165597857Y33845334D02*
X165540714Y33750096D01*
X165483571Y33702477D01*
X165369285Y33654858D01*
X165026428Y33654858D01*
X164912142Y33702477D01*
X164855000Y33750096D01*
X164797857Y33845334D01*
X164797857Y33988191D01*
X164855000Y34083429D01*
X164912142Y34131048D01*
X165026428Y34178667D01*
X165369285Y34178667D01*
X165483571Y34131048D01*
X165540714Y34083429D01*
X165597857Y33988191D01*
X165597857Y33845334D01*
X165597857Y34607239D02*
X164797857Y34607239D01*
X164397857Y34607239D02*
X164455000Y34559620D01*
X164512142Y34607239D01*
X164455000Y34654858D01*
X164397857Y34607239D01*
X164512142Y34607239D01*
X165540714Y35512000D02*
X165597857Y35416762D01*
X165597857Y35226286D01*
X165540714Y35131048D01*
X165483571Y35083429D01*
X165369285Y35035810D01*
X165026428Y35035810D01*
X164912142Y35083429D01*
X164855000Y35131048D01*
X164797857Y35226286D01*
X164797857Y35416762D01*
X164855000Y35512000D01*
X165540714Y36321524D02*
X165597857Y36226286D01*
X165597857Y36035810D01*
X165540714Y35940572D01*
X165426428Y35892953D01*
X164969285Y35892953D01*
X164855000Y35940572D01*
X164797857Y36035810D01*
X164797857Y36226286D01*
X164855000Y36321524D01*
X164969285Y36369143D01*
X165083571Y36369143D01*
X165197857Y35892953D01*
X165540714Y36750096D02*
X165597857Y36845334D01*
X165597857Y37035810D01*
X165540714Y37131048D01*
X165426428Y37178667D01*
X165369285Y37178667D01*
X165255000Y37131048D01*
X165197857Y37035810D01*
X165197857Y36892953D01*
X165140714Y36797715D01*
X165026428Y36750096D01*
X164969285Y36750096D01*
X164855000Y36797715D01*
X164797857Y36892953D01*
X164797857Y37035810D01*
X164855000Y37131048D01*
X165483571Y38940572D02*
X165540714Y38892953D01*
X165597857Y38750096D01*
X165597857Y38654858D01*
X165540714Y38512000D01*
X165426428Y38416762D01*
X165312142Y38369143D01*
X165083571Y38321524D01*
X164912142Y38321524D01*
X164683571Y38369143D01*
X164569285Y38416762D01*
X164455000Y38512000D01*
X164397857Y38654858D01*
X164397857Y38750096D01*
X164455000Y38892953D01*
X164512142Y38940572D01*
X165597857Y39797715D02*
X164969285Y39797715D01*
X164855000Y39750096D01*
X164797857Y39654858D01*
X164797857Y39464381D01*
X164855000Y39369143D01*
X165540714Y39797715D02*
X165597857Y39702477D01*
X165597857Y39464381D01*
X165540714Y39369143D01*
X165426428Y39321524D01*
X165312142Y39321524D01*
X165197857Y39369143D01*
X165140714Y39464381D01*
X165140714Y39702477D01*
X165083571Y39797715D01*
X165597857Y40273905D02*
X164797857Y40273905D01*
X165026428Y40273905D02*
X164912142Y40321524D01*
X164855000Y40369143D01*
X164797857Y40464381D01*
X164797857Y40559620D01*
X165597857Y41321524D02*
X164397857Y41321524D01*
X165540714Y41321524D02*
X165597857Y41226286D01*
X165597857Y41035810D01*
X165540714Y40940572D01*
X165483571Y40892953D01*
X165369285Y40845334D01*
X165026428Y40845334D01*
X164912142Y40892953D01*
X164855000Y40940572D01*
X164797857Y41035810D01*
X164797857Y41226286D01*
X164855000Y41321524D01*
X166747857Y19250096D02*
X166747857Y19631048D01*
X167547857Y19392953D02*
X166519285Y19392953D01*
X166405000Y19440572D01*
X166347857Y19535810D01*
X166347857Y19631048D01*
X167547857Y20107239D02*
X167490714Y20012000D01*
X167433571Y19964381D01*
X167319285Y19916762D01*
X166976428Y19916762D01*
X166862142Y19964381D01*
X166805000Y20012000D01*
X166747857Y20107239D01*
X166747857Y20250096D01*
X166805000Y20345334D01*
X166862142Y20392953D01*
X166976428Y20440572D01*
X167319285Y20440572D01*
X167433571Y20392953D01*
X167490714Y20345334D01*
X167547857Y20250096D01*
X167547857Y20107239D01*
X167547857Y20869143D02*
X166747857Y20869143D01*
X166976428Y20869143D02*
X166862142Y20916762D01*
X166805000Y20964381D01*
X166747857Y21059620D01*
X166747857Y21154858D01*
X167547857Y22250096D02*
X166347857Y22250096D01*
X166919285Y22250096D02*
X166919285Y22821524D01*
X167547857Y22821524D02*
X166347857Y22821524D01*
X167547857Y23297715D02*
X166347857Y23297715D01*
X166347857Y23631048D02*
X166347857Y24202477D01*
X167547857Y23916762D02*
X166347857Y23916762D01*
X167205000Y24488191D02*
X167205000Y24964381D01*
X167547857Y24392953D02*
X166347857Y24726286D01*
X167547857Y25059620D01*
X167433571Y25964381D02*
X167490714Y25916762D01*
X167547857Y25773905D01*
X167547857Y25678667D01*
X167490714Y25535810D01*
X167376428Y25440572D01*
X167262142Y25392953D01*
X167033571Y25345334D01*
X166862142Y25345334D01*
X166633571Y25392953D01*
X166519285Y25440572D01*
X166405000Y25535810D01*
X166347857Y25678667D01*
X166347857Y25773905D01*
X166405000Y25916762D01*
X166462142Y25964381D01*
X167547857Y26392953D02*
X166347857Y26392953D01*
X166919285Y26392953D02*
X166919285Y26964381D01*
X167547857Y26964381D02*
X166347857Y26964381D01*
X167547857Y27440572D02*
X166347857Y27440572D01*
X166919285Y29012000D02*
X166976428Y29154858D01*
X167033571Y29202477D01*
X167147857Y29250096D01*
X167319285Y29250096D01*
X167433571Y29202477D01*
X167490714Y29154858D01*
X167547857Y29059620D01*
X167547857Y28678667D01*
X166347857Y28678667D01*
X166347857Y29012000D01*
X166405000Y29107239D01*
X166462142Y29154858D01*
X166576428Y29202477D01*
X166690714Y29202477D01*
X166805000Y29154858D01*
X166862142Y29107239D01*
X166919285Y29012000D01*
X166919285Y28678667D01*
X167205000Y29631048D02*
X167205000Y30107239D01*
X167547857Y29535810D02*
X166347857Y29869143D01*
X167547857Y30202477D01*
X167490714Y30488191D02*
X167547857Y30631048D01*
X167547857Y30869143D01*
X167490714Y30964381D01*
X167433571Y31012000D01*
X167319285Y31059620D01*
X167205000Y31059620D01*
X167090714Y31012000D01*
X167033571Y30964381D01*
X166976428Y30869143D01*
X166919285Y30678667D01*
X166862142Y30583429D01*
X166805000Y30535810D01*
X166690714Y30488191D01*
X166576428Y30488191D01*
X166462142Y30535810D01*
X166405000Y30583429D01*
X166347857Y30678667D01*
X166347857Y30916762D01*
X166405000Y31059620D01*
X167547857Y31488191D02*
X166347857Y31488191D01*
X167433571Y32535810D02*
X167490714Y32488191D01*
X167547857Y32345334D01*
X167547857Y32250096D01*
X167490714Y32107239D01*
X167376428Y32012000D01*
X167262142Y31964381D01*
X167033571Y31916762D01*
X166862142Y31916762D01*
X166633571Y31964381D01*
X166519285Y32012000D01*
X166405000Y32107239D01*
X166347857Y32250096D01*
X166347857Y32345334D01*
X166405000Y32488191D01*
X166462142Y32535810D01*
X167547857Y33726286D02*
X166347857Y33726286D01*
X167205000Y34059620D01*
X166347857Y34392953D01*
X167547857Y34392953D01*
X167205000Y34821524D02*
X167205000Y35297715D01*
X167547857Y34726286D02*
X166347857Y35059620D01*
X167547857Y35392953D01*
X167490714Y35678667D02*
X167547857Y35821524D01*
X167547857Y36059620D01*
X167490714Y36154858D01*
X167433571Y36202477D01*
X167319285Y36250096D01*
X167205000Y36250096D01*
X167090714Y36202477D01*
X167033571Y36154858D01*
X166976428Y36059620D01*
X166919285Y35869143D01*
X166862142Y35773905D01*
X166805000Y35726286D01*
X166690714Y35678667D01*
X166576428Y35678667D01*
X166462142Y35726286D01*
X166405000Y35773905D01*
X166347857Y35869143D01*
X166347857Y36107239D01*
X166405000Y36250096D01*
X166347857Y36535810D02*
X166347857Y37107239D01*
X167547857Y36821524D02*
X166347857Y36821524D01*
X166919285Y37440572D02*
X166919285Y37773905D01*
X167547857Y37916762D02*
X167547857Y37440572D01*
X166347857Y37440572D01*
X166347857Y37916762D01*
X167547857Y38916762D02*
X166976428Y38583429D01*
X167547857Y38345334D02*
X166347857Y38345334D01*
X166347857Y38726286D01*
X166405000Y38821524D01*
X166462142Y38869143D01*
X166576428Y38916762D01*
X166747857Y38916762D01*
X166862142Y38869143D01*
X166919285Y38821524D01*
X166976428Y38726286D01*
X166976428Y38345334D01*
X167547857Y40583429D02*
X167547857Y40107239D01*
X166347857Y40107239D01*
X166919285Y40916762D02*
X166919285Y41250096D01*
X167547857Y41392953D02*
X167547857Y40916762D01*
X166347857Y40916762D01*
X166347857Y41392953D01*
X166347857Y41678667D02*
X167547857Y42012000D01*
X166347857Y42345334D01*
X166919285Y42678667D02*
X166919285Y43012000D01*
X167547857Y43154858D02*
X167547857Y42678667D01*
X166347857Y42678667D01*
X166347857Y43154858D01*
X167547857Y44059620D02*
X167547857Y43583429D01*
X166347857Y43583429D01*
X166347857Y45059620D02*
X166347857Y45678667D01*
X166805000Y45345334D01*
X166805000Y45488191D01*
X166862142Y45583429D01*
X166919285Y45631048D01*
X167033571Y45678667D01*
X167319285Y45678667D01*
X167433571Y45631048D01*
X167490714Y45583429D01*
X167547857Y45488191D01*
X167547857Y45202477D01*
X167490714Y45107239D01*
X167433571Y45059620D01*
X169497857Y19750096D02*
X168297857Y19750096D01*
X168297857Y19988191D01*
X168355000Y20131048D01*
X168469285Y20226286D01*
X168583571Y20273905D01*
X168812142Y20321524D01*
X168983571Y20321524D01*
X169212142Y20273905D01*
X169326428Y20226286D01*
X169440714Y20131048D01*
X169497857Y19988191D01*
X169497857Y19750096D01*
X169440714Y21131048D02*
X169497857Y21035810D01*
X169497857Y20845334D01*
X169440714Y20750096D01*
X169326428Y20702477D01*
X168869285Y20702477D01*
X168755000Y20750096D01*
X168697857Y20845334D01*
X168697857Y21035810D01*
X168755000Y21131048D01*
X168869285Y21178667D01*
X168983571Y21178667D01*
X169097857Y20702477D01*
X169440714Y21559620D02*
X169497857Y21654858D01*
X169497857Y21845334D01*
X169440714Y21940572D01*
X169326428Y21988191D01*
X169269285Y21988191D01*
X169155000Y21940572D01*
X169097857Y21845334D01*
X169097857Y21702477D01*
X169040714Y21607239D01*
X168926428Y21559620D01*
X168869285Y21559620D01*
X168755000Y21607239D01*
X168697857Y21702477D01*
X168697857Y21845334D01*
X168755000Y21940572D01*
X169497857Y22416762D02*
X168697857Y22416762D01*
X168297857Y22416762D02*
X168355000Y22369143D01*
X168412142Y22416762D01*
X168355000Y22464381D01*
X168297857Y22416762D01*
X168412142Y22416762D01*
X168697857Y23321524D02*
X169669285Y23321524D01*
X169783571Y23273905D01*
X169840714Y23226286D01*
X169897857Y23131048D01*
X169897857Y22988191D01*
X169840714Y22892953D01*
X169440714Y23321524D02*
X169497857Y23226286D01*
X169497857Y23035810D01*
X169440714Y22940572D01*
X169383571Y22892953D01*
X169269285Y22845334D01*
X168926428Y22845334D01*
X168812142Y22892953D01*
X168755000Y22940572D01*
X168697857Y23035810D01*
X168697857Y23226286D01*
X168755000Y23321524D01*
X168697857Y23797715D02*
X169497857Y23797715D01*
X168812142Y23797715D02*
X168755000Y23845334D01*
X168697857Y23940572D01*
X168697857Y24083429D01*
X168755000Y24178667D01*
X168869285Y24226286D01*
X169497857Y24226286D01*
X169440714Y25083429D02*
X169497857Y24988191D01*
X169497857Y24797715D01*
X169440714Y24702477D01*
X169326428Y24654858D01*
X168869285Y24654858D01*
X168755000Y24702477D01*
X168697857Y24797715D01*
X168697857Y24988191D01*
X168755000Y25083429D01*
X168869285Y25131048D01*
X168983571Y25131048D01*
X169097857Y24654858D01*
X169497857Y25988191D02*
X168297857Y25988191D01*
X169440714Y25988191D02*
X169497857Y25892953D01*
X169497857Y25702477D01*
X169440714Y25607239D01*
X169383571Y25559620D01*
X169269285Y25512000D01*
X168926428Y25512000D01*
X168812142Y25559620D01*
X168755000Y25607239D01*
X168697857Y25702477D01*
X168697857Y25892953D01*
X168755000Y25988191D01*
X169497857Y27226286D02*
X168297857Y27226286D01*
X168755000Y27226286D02*
X168697857Y27321524D01*
X168697857Y27512000D01*
X168755000Y27607239D01*
X168812142Y27654858D01*
X168926428Y27702477D01*
X169269285Y27702477D01*
X169383571Y27654858D01*
X169440714Y27607239D01*
X169497857Y27512000D01*
X169497857Y27321524D01*
X169440714Y27226286D01*
X168697857Y28035810D02*
X169497857Y28273905D01*
X168697857Y28512000D02*
X169497857Y28273905D01*
X169783571Y28178667D01*
X169840714Y28131048D01*
X169897857Y28035810D01*
X169440714Y29607239D02*
X169497857Y29750096D01*
X169497857Y29988191D01*
X169440714Y30083429D01*
X169383571Y30131048D01*
X169269285Y30178667D01*
X169155000Y30178667D01*
X169040714Y30131048D01*
X168983571Y30083429D01*
X168926428Y29988191D01*
X168869285Y29797715D01*
X168812142Y29702477D01*
X168755000Y29654858D01*
X168640714Y29607239D01*
X168526428Y29607239D01*
X168412142Y29654858D01*
X168355000Y29702477D01*
X168297857Y29797715D01*
X168297857Y30035810D01*
X168355000Y30178667D01*
X169497857Y31035810D02*
X168869285Y31035810D01*
X168755000Y30988191D01*
X168697857Y30892953D01*
X168697857Y30702477D01*
X168755000Y30607239D01*
X169440714Y31035810D02*
X169497857Y30940572D01*
X169497857Y30702477D01*
X169440714Y30607239D01*
X169326428Y30559620D01*
X169212142Y30559620D01*
X169097857Y30607239D01*
X169040714Y30702477D01*
X169040714Y30940572D01*
X168983571Y31035810D01*
X169440714Y31464381D02*
X169497857Y31559620D01*
X169497857Y31750096D01*
X169440714Y31845334D01*
X169326428Y31892953D01*
X169269285Y31892953D01*
X169155000Y31845334D01*
X169097857Y31750096D01*
X169097857Y31607239D01*
X169040714Y31512000D01*
X168926428Y31464381D01*
X168869285Y31464381D01*
X168755000Y31512000D01*
X168697857Y31607239D01*
X168697857Y31750096D01*
X168755000Y31845334D01*
X169497857Y32750096D02*
X168869285Y32750096D01*
X168755000Y32702477D01*
X168697857Y32607239D01*
X168697857Y32416762D01*
X168755000Y32321524D01*
X169440714Y32750096D02*
X169497857Y32654858D01*
X169497857Y32416762D01*
X169440714Y32321524D01*
X169326428Y32273905D01*
X169212142Y32273905D01*
X169097857Y32321524D01*
X169040714Y32416762D01*
X169040714Y32654858D01*
X168983571Y32750096D01*
X168697857Y33226286D02*
X169726428Y33226286D01*
X169840714Y33178667D01*
X169897857Y33083429D01*
X169897857Y33035810D01*
X168297857Y33226286D02*
X168355000Y33178667D01*
X168412142Y33226286D01*
X168355000Y33273905D01*
X168297857Y33226286D01*
X168412142Y33226286D01*
X169497857Y33702477D02*
X168697857Y33702477D01*
X168297857Y33702477D02*
X168355000Y33654858D01*
X168412142Y33702477D01*
X168355000Y33750096D01*
X168297857Y33702477D01*
X168412142Y33702477D01*
X168412142Y34892953D02*
X168355000Y34940572D01*
X168297857Y35035810D01*
X168297857Y35273905D01*
X168355000Y35369143D01*
X168412142Y35416762D01*
X168526428Y35464381D01*
X168640714Y35464381D01*
X168812142Y35416762D01*
X169497857Y34845334D01*
X169497857Y35464381D01*
X168297857Y36083429D02*
X168297857Y36178667D01*
X168355000Y36273905D01*
X168412142Y36321524D01*
X168526428Y36369143D01*
X168755000Y36416762D01*
X169040714Y36416762D01*
X169269285Y36369143D01*
X169383571Y36321524D01*
X169440714Y36273905D01*
X169497857Y36178667D01*
X169497857Y36083429D01*
X169440714Y35988191D01*
X169383571Y35940572D01*
X169269285Y35892953D01*
X169040714Y35845334D01*
X168755000Y35845334D01*
X168526428Y35892953D01*
X168412142Y35940572D01*
X168355000Y35988191D01*
X168297857Y36083429D01*
X168412142Y36797715D02*
X168355000Y36845334D01*
X168297857Y36940572D01*
X168297857Y37178667D01*
X168355000Y37273905D01*
X168412142Y37321524D01*
X168526428Y37369143D01*
X168640714Y37369143D01*
X168812142Y37321524D01*
X169497857Y36750096D01*
X169497857Y37369143D01*
X169497857Y38321524D02*
X169497857Y37750096D01*
X169497857Y38035810D02*
X168297857Y38035810D01*
X168469285Y37940572D01*
X168583571Y37845334D01*
X168640714Y37750096D01*
X169497857Y40845334D02*
X168926428Y40512000D01*
X169497857Y40273905D02*
X168297857Y40273905D01*
X168297857Y40654858D01*
X168355000Y40750096D01*
X168412142Y40797715D01*
X168526428Y40845334D01*
X168697857Y40845334D01*
X168812142Y40797715D01*
X168869285Y40750096D01*
X168926428Y40654858D01*
X168926428Y40273905D01*
X169440714Y41654858D02*
X169497857Y41559620D01*
X169497857Y41369143D01*
X169440714Y41273905D01*
X169326428Y41226286D01*
X168869285Y41226286D01*
X168755000Y41273905D01*
X168697857Y41369143D01*
X168697857Y41559620D01*
X168755000Y41654858D01*
X168869285Y41702477D01*
X168983571Y41702477D01*
X169097857Y41226286D01*
X168697857Y42035810D02*
X169497857Y42273905D01*
X168697857Y42512000D01*
X169383571Y42892953D02*
X169440714Y42940572D01*
X169497857Y42892953D01*
X169440714Y42845334D01*
X169383571Y42892953D01*
X169497857Y42892953D01*
X168297857Y43559620D02*
X168297857Y43654858D01*
X168355000Y43750096D01*
X168412142Y43797715D01*
X168526428Y43845334D01*
X168755000Y43892953D01*
X169040714Y43892953D01*
X169269285Y43845334D01*
X169383571Y43797715D01*
X169440714Y43750096D01*
X169497857Y43654858D01*
X169497857Y43559620D01*
X169440714Y43464381D01*
X169383571Y43416762D01*
X169269285Y43369143D01*
X169040714Y43321524D01*
X168755000Y43321524D01*
X168526428Y43369143D01*
X168412142Y43416762D01*
X168355000Y43464381D01*
X168297857Y43559620D01*
X169383571Y44321524D02*
X169440714Y44369143D01*
X169497857Y44321524D01*
X169440714Y44273905D01*
X169383571Y44321524D01*
X169497857Y44321524D01*
X168412142Y44750096D02*
X168355000Y44797715D01*
X168297857Y44892953D01*
X168297857Y45131048D01*
X168355000Y45226286D01*
X168412142Y45273905D01*
X168526428Y45321524D01*
X168640714Y45321524D01*
X168812142Y45273905D01*
X169497857Y44702477D01*
X169497857Y45321524D01*
D11*
X87630000Y73787000D02*
X88265000Y73152000D01*
X87630000Y73787000D02*
X86995000Y73152000D01*
X87630000Y38227000D02*
X87630000Y73787000D01*
X87630000Y24892000D02*
X88265000Y25527000D01*
X87630000Y24892000D02*
X86995000Y25527000D01*
X87630000Y28067000D02*
X87630000Y24892000D01*
X83185000Y69342000D02*
X83820000Y68707000D01*
X83185000Y69342000D02*
X82550000Y68707000D01*
X83185000Y59817000D02*
X83185000Y69342000D01*
X83185000Y41402000D02*
X83820000Y42037000D01*
X83185000Y41402000D02*
X82550000Y42037000D01*
X83185000Y49657000D02*
X83185000Y41402000D01*
X61595000Y25527000D02*
X60960000Y24892000D01*
X60325000Y25527000D02*
X60960000Y24892000D01*
X60960000Y24892000D02*
X60325000Y25527000D01*
X60960000Y28067000D02*
X60960000Y24892000D01*
X61595000Y73152000D02*
X60960000Y73787000D01*
X60325000Y73152000D02*
X60960000Y73787000D01*
X60960000Y73787000D02*
X60325000Y73152000D01*
X60960000Y38227000D02*
X60960000Y73787000D01*
X56515000Y69342000D02*
X57150000Y68707000D01*
X56515000Y69342000D02*
X55880000Y68707000D01*
X56515000Y59817000D02*
X56515000Y69342000D01*
X56515000Y41402000D02*
X57150000Y42037000D01*
X56515000Y41402000D02*
X55880000Y42037000D01*
X56515000Y49657000D02*
X56515000Y41402000D01*
X34290000Y73787000D02*
X34925000Y73152000D01*
X34290000Y73787000D02*
X33655000Y73152000D01*
X34290000Y38227000D02*
X34290000Y73787000D01*
X34290000Y24892000D02*
X34925000Y25527000D01*
X34290000Y24892000D02*
X33655000Y25527000D01*
X34290000Y28067000D02*
X34290000Y24892000D01*
X29845000Y69342000D02*
X30480000Y68707000D01*
X29845000Y69342000D02*
X29210000Y68707000D01*
X29845000Y60452000D02*
X29845000Y69342000D01*
X29845000Y41402000D02*
X30480000Y42037000D01*
X29845000Y41402000D02*
X29210000Y42037000D01*
X29845000Y50292000D02*
X29845000Y41402000D01*
X102115000Y31302000D02*
X102115000Y13402000D01*
X153155000Y31302000D02*
X102115000Y31302000D01*
X153155000Y13402000D02*
X153155000Y31302000D01*
X102115000Y13402000D02*
X153155000Y13402000D01*
X102175000Y28812000D02*
X102175000Y23352000D01*
X153095000Y28812000D02*
X102175000Y28812000D01*
X153095000Y15892000D02*
X153095000Y28812000D01*
X102175000Y15892000D02*
X153095000Y15892000D01*
X102175000Y21352000D02*
X102175000Y15892000D01*
X102175000Y23352000D02*
G75*
G02*
X102175000Y21352000I0J-1000000D01*
G01*
X124005000Y69177000D02*
X124005000Y77597000D01*
X133805000Y69177000D02*
X124005000Y69177000D01*
X133805000Y78397000D02*
X133805000Y69177000D01*
X124805000Y78397000D02*
X133805000Y78397000D01*
X124005000Y77597000D02*
X124805000Y78397000D01*
X131715000Y79077000D02*
X128595000Y79077000D01*
X131715000Y81197000D02*
X128595000Y81197000D01*
X131715000Y79077000D02*
X131715000Y79141000D01*
X131715000Y81133000D02*
X131715000Y81197000D01*
X128595000Y79077000D02*
X128595000Y79141000D01*
X128595000Y81133000D02*
X128595000Y81197000D01*
X162095000Y81467000D02*
X162095000Y78807000D01*
X162095000Y78807000D02*
X164755000Y78807000D01*
X164755000Y78807000D02*
X164755000Y81467000D01*
X164755000Y81467000D02*
X162095000Y81467000D01*
X164755000Y80517000D02*
X170755000Y80517000D01*
X170755000Y80517000D02*
X170755000Y79757000D01*
X170755000Y79757000D02*
X164755000Y79757000D01*
X164755000Y80457000D02*
X170755000Y80457000D01*
X164755000Y80337000D02*
X170755000Y80337000D01*
X164755000Y80217000D02*
X170755000Y80217000D01*
X164755000Y80097000D02*
X170755000Y80097000D01*
X164755000Y79977000D02*
X170755000Y79977000D01*
X164755000Y79857000D02*
X170755000Y79857000D01*
X161765000Y80517000D02*
X162095000Y80517000D01*
X161765000Y79757000D02*
X162095000Y79757000D01*
X159385000Y80137000D02*
X159385000Y81407000D01*
X159385000Y81407000D02*
X160655000Y81407000D01*
X102115000Y52892000D02*
X102115000Y34992000D01*
X153155000Y52892000D02*
X102115000Y52892000D01*
X153155000Y34992000D02*
X153155000Y52892000D01*
X102115000Y34992000D02*
X153155000Y34992000D01*
X102175000Y50402000D02*
X102175000Y44942000D01*
X153095000Y50402000D02*
X102175000Y50402000D01*
X153095000Y37482000D02*
X153095000Y50402000D01*
X102175000Y37482000D02*
X153095000Y37482000D01*
X102175000Y42942000D02*
X102175000Y37482000D01*
X102175000Y44942000D02*
G75*
G02*
X102175000Y42942000I0J-1000000D01*
G01*
X111940000Y69177000D02*
X111940000Y77597000D01*
X121740000Y69177000D02*
X111940000Y69177000D01*
X121740000Y78397000D02*
X121740000Y69177000D01*
X112740000Y78397000D02*
X121740000Y78397000D01*
X111940000Y77597000D02*
X112740000Y78397000D01*
X148060000Y69177000D02*
X148060000Y77597000D01*
X157860000Y69177000D02*
X148060000Y69177000D01*
X157860000Y78397000D02*
X157860000Y69177000D01*
X148860000Y78397000D02*
X157860000Y78397000D01*
X148060000Y77597000D02*
X148860000Y78397000D01*
X148060000Y54572000D02*
X148060000Y62992000D01*
X157860000Y54572000D02*
X148060000Y54572000D01*
X157860000Y63792000D02*
X157860000Y54572000D01*
X148860000Y63792000D02*
X157860000Y63792000D01*
X148060000Y62992000D02*
X148860000Y63792000D01*
X160200000Y54572000D02*
X160200000Y62992000D01*
X170000000Y54572000D02*
X160200000Y54572000D01*
X170000000Y63792000D02*
X170000000Y54572000D01*
X161000000Y63792000D02*
X170000000Y63792000D01*
X160200000Y62992000D02*
X161000000Y63792000D01*
X136070000Y69177000D02*
X136070000Y77597000D01*
X145870000Y69177000D02*
X136070000Y69177000D01*
X145870000Y78397000D02*
X145870000Y69177000D01*
X136870000Y78397000D02*
X145870000Y78397000D01*
X136070000Y77597000D02*
X136870000Y78397000D01*
X136070000Y54572000D02*
X136070000Y64262000D01*
X145870000Y54572000D02*
X136070000Y54572000D01*
X145870000Y65062000D02*
X145870000Y54572000D01*
X136870000Y65062000D02*
X145870000Y65062000D01*
X136070000Y64262000D02*
X136870000Y65062000D01*
X98859000Y69177000D02*
X98859000Y77597000D01*
X108659000Y69177000D02*
X98859000Y69177000D01*
X108659000Y78397000D02*
X108659000Y69177000D01*
X99659000Y78397000D02*
X108659000Y78397000D01*
X98859000Y77597000D02*
X99659000Y78397000D01*
X98807000Y54572000D02*
X98807000Y66802000D01*
X108607000Y54572000D02*
X98807000Y54572000D01*
X108607000Y67602000D02*
X108607000Y54572000D01*
X99607000Y67602000D02*
X108607000Y67602000D01*
X98807000Y66802000D02*
X99607000Y67602000D01*
X124005000Y54572000D02*
X124005000Y64262000D01*
X133805000Y54572000D02*
X124005000Y54572000D01*
X133805000Y65062000D02*
X133805000Y54572000D01*
X124805000Y65062000D02*
X133805000Y65062000D01*
X124005000Y64262000D02*
X124805000Y65062000D01*
X112015000Y54572000D02*
X112015000Y64262000D01*
X121815000Y54572000D02*
X112015000Y54572000D01*
X121815000Y65062000D02*
X121815000Y54572000D01*
X112815000Y65062000D02*
X121815000Y65062000D01*
X112015000Y64262000D02*
X112815000Y65062000D01*
X20300000Y20472000D02*
X20300000Y14072000D01*
X20340000Y20472000D02*
X20340000Y14072000D01*
X20380000Y20472000D02*
X20380000Y14072000D01*
X20420000Y20470000D02*
X20420000Y14074000D01*
X20460000Y20469000D02*
X20460000Y14075000D01*
X20500000Y20466000D02*
X20500000Y14078000D01*
X20540000Y20464000D02*
X20540000Y14080000D01*
X20580000Y20460000D02*
X20580000Y18252000D01*
X20580000Y16292000D02*
X20580000Y14084000D01*
X20620000Y20457000D02*
X20620000Y18252000D01*
X20620000Y16292000D02*
X20620000Y14087000D01*
X20660000Y20452000D02*
X20660000Y18252000D01*
X20660000Y16292000D02*
X20660000Y14092000D01*
X20700000Y20448000D02*
X20700000Y18252000D01*
X20700000Y16292000D02*
X20700000Y14096000D01*
X20740000Y20442000D02*
X20740000Y18252000D01*
X20740000Y16292000D02*
X20740000Y14102000D01*
X20780000Y20437000D02*
X20780000Y18252000D01*
X20780000Y16292000D02*
X20780000Y14107000D01*
X20820000Y20430000D02*
X20820000Y18252000D01*
X20820000Y16292000D02*
X20820000Y14114000D01*
X20860000Y20424000D02*
X20860000Y18252000D01*
X20860000Y16292000D02*
X20860000Y14120000D01*
X20900000Y20416000D02*
X20900000Y18252000D01*
X20900000Y16292000D02*
X20900000Y14128000D01*
X20940000Y20409000D02*
X20940000Y18252000D01*
X20940000Y16292000D02*
X20940000Y14135000D01*
X20980000Y20400000D02*
X20980000Y18252000D01*
X20980000Y16292000D02*
X20980000Y14144000D01*
X21021000Y20391000D02*
X21021000Y18252000D01*
X21021000Y16292000D02*
X21021000Y14153000D01*
X21061000Y20382000D02*
X21061000Y18252000D01*
X21061000Y16292000D02*
X21061000Y14162000D01*
X21101000Y20372000D02*
X21101000Y18252000D01*
X21101000Y16292000D02*
X21101000Y14172000D01*
X21141000Y20362000D02*
X21141000Y18252000D01*
X21141000Y16292000D02*
X21141000Y14182000D01*
X21181000Y20351000D02*
X21181000Y18252000D01*
X21181000Y16292000D02*
X21181000Y14193000D01*
X21221000Y20339000D02*
X21221000Y18252000D01*
X21221000Y16292000D02*
X21221000Y14205000D01*
X21261000Y20327000D02*
X21261000Y18252000D01*
X21261000Y16292000D02*
X21261000Y14217000D01*
X21301000Y20314000D02*
X21301000Y18252000D01*
X21301000Y16292000D02*
X21301000Y14230000D01*
X21341000Y20301000D02*
X21341000Y18252000D01*
X21341000Y16292000D02*
X21341000Y14243000D01*
X21381000Y20287000D02*
X21381000Y18252000D01*
X21381000Y16292000D02*
X21381000Y14257000D01*
X21421000Y20273000D02*
X21421000Y18252000D01*
X21421000Y16292000D02*
X21421000Y14271000D01*
X21461000Y20258000D02*
X21461000Y18252000D01*
X21461000Y16292000D02*
X21461000Y14286000D01*
X21501000Y20242000D02*
X21501000Y18252000D01*
X21501000Y16292000D02*
X21501000Y14302000D01*
X21541000Y20226000D02*
X21541000Y18252000D01*
X21541000Y16292000D02*
X21541000Y14318000D01*
X21581000Y20209000D02*
X21581000Y18252000D01*
X21581000Y16292000D02*
X21581000Y14335000D01*
X21621000Y20191000D02*
X21621000Y18252000D01*
X21621000Y16292000D02*
X21621000Y14353000D01*
X21661000Y20173000D02*
X21661000Y18252000D01*
X21661000Y16292000D02*
X21661000Y14371000D01*
X21701000Y20154000D02*
X21701000Y18252000D01*
X21701000Y16292000D02*
X21701000Y14390000D01*
X21741000Y20135000D02*
X21741000Y18252000D01*
X21741000Y16292000D02*
X21741000Y14409000D01*
X21781000Y20115000D02*
X21781000Y18252000D01*
X21781000Y16292000D02*
X21781000Y14429000D01*
X21821000Y20094000D02*
X21821000Y18252000D01*
X21821000Y16292000D02*
X21821000Y14450000D01*
X21861000Y20072000D02*
X21861000Y18252000D01*
X21861000Y16292000D02*
X21861000Y14472000D01*
X21901000Y20050000D02*
X21901000Y18252000D01*
X21901000Y16292000D02*
X21901000Y14494000D01*
X21941000Y20027000D02*
X21941000Y18252000D01*
X21941000Y16292000D02*
X21941000Y14517000D01*
X21981000Y20003000D02*
X21981000Y18252000D01*
X21981000Y16292000D02*
X21981000Y14541000D01*
X22021000Y19978000D02*
X22021000Y18252000D01*
X22021000Y16292000D02*
X22021000Y14566000D01*
X22061000Y19953000D02*
X22061000Y18252000D01*
X22061000Y16292000D02*
X22061000Y14591000D01*
X22101000Y19926000D02*
X22101000Y18252000D01*
X22101000Y16292000D02*
X22101000Y14618000D01*
X22141000Y19899000D02*
X22141000Y18252000D01*
X22141000Y16292000D02*
X22141000Y14645000D01*
X22181000Y19871000D02*
X22181000Y18252000D01*
X22181000Y16292000D02*
X22181000Y14673000D01*
X22221000Y19842000D02*
X22221000Y18252000D01*
X22221000Y16292000D02*
X22221000Y14702000D01*
X22261000Y19812000D02*
X22261000Y18252000D01*
X22261000Y16292000D02*
X22261000Y14732000D01*
X22301000Y19782000D02*
X22301000Y18252000D01*
X22301000Y16292000D02*
X22301000Y14762000D01*
X22341000Y19750000D02*
X22341000Y18252000D01*
X22341000Y16292000D02*
X22341000Y14794000D01*
X22381000Y19717000D02*
X22381000Y18252000D01*
X22381000Y16292000D02*
X22381000Y14827000D01*
X22421000Y19683000D02*
X22421000Y18252000D01*
X22421000Y16292000D02*
X22421000Y14861000D01*
X22461000Y19647000D02*
X22461000Y18252000D01*
X22461000Y16292000D02*
X22461000Y14897000D01*
X22501000Y19611000D02*
X22501000Y18252000D01*
X22501000Y16292000D02*
X22501000Y14933000D01*
X22541000Y19573000D02*
X22541000Y14971000D01*
X22581000Y19534000D02*
X22581000Y15010000D01*
X22621000Y19494000D02*
X22621000Y15050000D01*
X22661000Y19452000D02*
X22661000Y15092000D01*
X22701000Y19409000D02*
X22701000Y15135000D01*
X22741000Y19364000D02*
X22741000Y15180000D01*
X22781000Y19317000D02*
X22781000Y15227000D01*
X22821000Y19269000D02*
X22821000Y15275000D01*
X22861000Y19218000D02*
X22861000Y15326000D01*
X22901000Y19166000D02*
X22901000Y15378000D01*
X22941000Y19111000D02*
X22941000Y15433000D01*
X22981000Y19053000D02*
X22981000Y15491000D01*
X23021000Y18993000D02*
X23021000Y15551000D01*
X23061000Y18930000D02*
X23061000Y15614000D01*
X23101000Y18863000D02*
X23101000Y15681000D01*
X23141000Y18792000D02*
X23141000Y15752000D01*
X23181000Y18717000D02*
X23181000Y15827000D01*
X23221000Y18636000D02*
X23221000Y15908000D01*
X23261000Y18550000D02*
X23261000Y15994000D01*
X23301000Y18456000D02*
X23301000Y16088000D01*
X23341000Y18353000D02*
X23341000Y16191000D01*
X23381000Y18238000D02*
X23381000Y16306000D01*
X23421000Y18106000D02*
X23421000Y16438000D01*
X23461000Y17948000D02*
X23461000Y16596000D01*
X23501000Y17740000D02*
X23501000Y16804000D01*
X16850000Y17272000D02*
X18050000Y17272000D01*
X17450000Y17922000D02*
X17450000Y16622000D01*
X23317820Y18451136D02*
G75*
G03*
X17282518Y18452000I-3017820J-1179136D01*
G01*
X23317820Y16092864D02*
G75*
G02*
X17282518Y16092000I-3017820J1179136D01*
G01*
X23317820Y16092864D02*
G75*
G03*
X23317482Y18452000I-3017820J1179136D01*
G01*
D10*
X85090000Y75057000D02*
X77470000Y75057000D01*
X77470000Y75057000D02*
X77470000Y24257000D01*
X77470000Y24257000D02*
X95250000Y24257000D01*
X95250000Y24257000D02*
X95250000Y75057000D01*
X95250000Y75057000D02*
X87630000Y75057000D01*
X80010000Y75057000D02*
X80010000Y24257000D01*
X80010000Y24257000D02*
X92710000Y24257000D01*
X92710000Y24257000D02*
X92710000Y75057000D01*
X92075000Y69977000D02*
X80645000Y69977000D01*
X92075000Y39497000D02*
X85090000Y39497000D01*
X79375000Y69977000D02*
X78105000Y69977000D01*
X76835000Y69977000D02*
X74930000Y69977000D01*
X74930000Y69977000D02*
X74930000Y39497000D01*
X74930000Y39497000D02*
X76835000Y39497000D01*
X78105000Y39497000D02*
X79375000Y39497000D01*
X80645000Y39497000D02*
X82550000Y39497000D01*
X90170000Y39497000D02*
X90170000Y69977000D01*
X82550000Y39497000D02*
G75*
G02*
X85090000Y39497000I1270000J0D01*
G01*
X87630000Y75057000D02*
G75*
G02*
X85090000Y75057000I-1270000J0D01*
G01*
X58420000Y75057000D02*
X50800000Y75057000D01*
X50800000Y75057000D02*
X50800000Y24257000D01*
X50800000Y24257000D02*
X68580000Y24257000D01*
X68580000Y24257000D02*
X68580000Y75057000D01*
X68580000Y75057000D02*
X60960000Y75057000D01*
X53340000Y75057000D02*
X53340000Y24257000D01*
X53340000Y24257000D02*
X66040000Y24257000D01*
X66040000Y24257000D02*
X66040000Y75057000D01*
X65405000Y69977000D02*
X53975000Y69977000D01*
X65405000Y39497000D02*
X58420000Y39497000D01*
X52705000Y69977000D02*
X51435000Y69977000D01*
X50165000Y69977000D02*
X48260000Y69977000D01*
X48260000Y69977000D02*
X48260000Y39497000D01*
X48260000Y39497000D02*
X50165000Y39497000D01*
X51435000Y39497000D02*
X52705000Y39497000D01*
X53975000Y39497000D02*
X55880000Y39497000D01*
X63500000Y39497000D02*
X63500000Y69977000D01*
X55880000Y39497000D02*
G75*
G02*
X58420000Y39497000I1270000J0D01*
G01*
X60960000Y75057000D02*
G75*
G02*
X58420000Y75057000I-1270000J0D01*
G01*
X31750000Y75057000D02*
X24130000Y75057000D01*
X24130000Y75057000D02*
X24130000Y24257000D01*
X24130000Y24257000D02*
X41910000Y24257000D01*
X41910000Y24257000D02*
X41910000Y75057000D01*
X41910000Y75057000D02*
X34290000Y75057000D01*
X26670000Y75057000D02*
X26670000Y24257000D01*
X26670000Y24257000D02*
X39370000Y24257000D01*
X39370000Y24257000D02*
X39370000Y75057000D01*
X38735000Y69977000D02*
X27305000Y69977000D01*
X38735000Y39497000D02*
X31750000Y39497000D01*
X26035000Y69977000D02*
X24765000Y69977000D01*
X23495000Y69977000D02*
X21590000Y69977000D01*
X21590000Y69977000D02*
X21590000Y39497000D01*
X21590000Y39497000D02*
X23495000Y39497000D01*
X24765000Y39497000D02*
X26035000Y39497000D01*
X27305000Y39497000D02*
X29210000Y39497000D01*
X36830000Y39497000D02*
X36830000Y69977000D01*
X29210000Y39497000D02*
G75*
G02*
X31750000Y39497000I1270000J0D01*
G01*
X34290000Y75057000D02*
G75*
G02*
X31750000Y75057000I-1270000J0D01*
G01*
D11*
X96520000Y79462000D02*
X96520000Y79332000D01*
X97830000Y80772000D02*
G75*
G03*
X97830000Y80772000I-1310000J0D01*
G01*
X92710000Y79462000D02*
X92710000Y79332000D01*
X94020000Y80772000D02*
G75*
G03*
X94020000Y80772000I-1310000J0D01*
G01*
X19685000Y33187000D02*
X19685000Y33317000D01*
X20995000Y31877000D02*
G75*
G03*
X20995000Y31877000I-1310000J0D01*
G01*
X75605000Y78232000D02*
X75735000Y78232000D01*
X75605000Y78232000D02*
G75*
G03*
X75605000Y78232000I-1310000J0D01*
G01*
X48935000Y78232000D02*
X49065000Y78232000D01*
X48935000Y78232000D02*
G75*
G03*
X48935000Y78232000I-1310000J0D01*
G01*
X25440000Y78232000D02*
X25570000Y78232000D01*
X25440000Y78232000D02*
G75*
G03*
X25440000Y78232000I-1310000J0D01*
G01*
X71715000Y66802000D02*
X71585000Y66802000D01*
X74335000Y66802000D02*
G75*
G03*
X74335000Y66802000I-1310000J0D01*
G01*
X71715000Y74422000D02*
X71585000Y74422000D01*
X74335000Y74422000D02*
G75*
G03*
X74335000Y74422000I-1310000J0D01*
G01*
X71715000Y70612000D02*
X71585000Y70612000D01*
X74335000Y70612000D02*
G75*
G03*
X74335000Y70612000I-1310000J0D01*
G01*
X45045000Y66802000D02*
X44915000Y66802000D01*
X47665000Y66802000D02*
G75*
G03*
X47665000Y66802000I-1310000J0D01*
G01*
X45045000Y74422000D02*
X44915000Y74422000D01*
X47665000Y74422000D02*
G75*
G03*
X47665000Y74422000I-1310000J0D01*
G01*
X45045000Y70612000D02*
X44915000Y70612000D01*
X47665000Y70612000D02*
G75*
G03*
X47665000Y70612000I-1310000J0D01*
G01*
X18375000Y66802000D02*
X18245000Y66802000D01*
X20995000Y66802000D02*
G75*
G03*
X20995000Y66802000I-1310000J0D01*
G01*
X18375000Y74422000D02*
X18245000Y74422000D01*
X20995000Y74422000D02*
G75*
G03*
X20995000Y74422000I-1310000J0D01*
G01*
X18375000Y70612000D02*
X18245000Y70612000D01*
X20995000Y70612000D02*
G75*
G03*
X20995000Y70612000I-1310000J0D01*
G01*
X157520000Y51562000D02*
X157650000Y51562000D01*
X157520000Y51562000D02*
G75*
G03*
X157520000Y51562000I-1310000J0D01*
G01*
X157520000Y47752000D02*
X157650000Y47752000D01*
X157520000Y47752000D02*
G75*
G03*
X157520000Y47752000I-1310000J0D01*
G01*
X157520000Y43942000D02*
X157650000Y43942000D01*
X157520000Y43942000D02*
G75*
G03*
X157520000Y43942000I-1310000J0D01*
G01*
X157520000Y40132000D02*
X157650000Y40132000D01*
X157520000Y40132000D02*
G75*
G03*
X157520000Y40132000I-1310000J0D01*
G01*
X157520000Y36322000D02*
X157650000Y36322000D01*
X157520000Y36322000D02*
G75*
G03*
X157520000Y36322000I-1310000J0D01*
G01*
X157520000Y18542000D02*
X157650000Y18542000D01*
X157520000Y18542000D02*
G75*
G03*
X157520000Y18542000I-1310000J0D01*
G01*
X157520000Y22352000D02*
X157650000Y22352000D01*
X157520000Y22352000D02*
G75*
G03*
X157520000Y22352000I-1310000J0D01*
G01*
X157520000Y26162000D02*
X157650000Y26162000D01*
X157520000Y26162000D02*
G75*
G03*
X157520000Y26162000I-1310000J0D01*
G01*
X86320000Y80772000D02*
X86190000Y80772000D01*
X88940000Y80772000D02*
G75*
G03*
X88940000Y80772000I-1310000J0D01*
G01*
X65345000Y12132000D02*
X65345000Y13462000D01*
X66675000Y12132000D02*
X65345000Y12132000D01*
X67945000Y12132000D02*
X67945000Y14792000D01*
X67945000Y14792000D02*
X73085000Y14792000D01*
X67945000Y12132000D02*
X73085000Y12132000D01*
X73085000Y12132000D02*
X73085000Y14792000D01*
X19035000Y22657000D02*
X20335000Y22657000D01*
X19685000Y22057000D02*
X19685000Y23257000D01*
X19331000Y28068000D02*
X20039000Y28068000D01*
X19126000Y28028000D02*
X20244000Y28028000D01*
X18978000Y27988000D02*
X20392000Y27988000D01*
X18856000Y27948000D02*
X20514000Y27948000D01*
X18751000Y27908000D02*
X20619000Y27908000D01*
X18657000Y27868000D02*
X20713000Y27868000D01*
X18573000Y27828000D02*
X20797000Y27828000D01*
X18496000Y27788000D02*
X20874000Y27788000D01*
X18424000Y27748000D02*
X20946000Y27748000D01*
X20665000Y27708000D02*
X21012000Y27708000D01*
X18358000Y27708000D02*
X18705000Y27708000D01*
X20665000Y27668000D02*
X21075000Y27668000D01*
X18295000Y27668000D02*
X18705000Y27668000D01*
X20665000Y27628000D02*
X21133000Y27628000D01*
X18237000Y27628000D02*
X18705000Y27628000D01*
X20665000Y27588000D02*
X21189000Y27588000D01*
X18181000Y27588000D02*
X18705000Y27588000D01*
X20665000Y27548000D02*
X21241000Y27548000D01*
X18129000Y27548000D02*
X18705000Y27548000D01*
X20665000Y27508000D02*
X21291000Y27508000D01*
X18079000Y27508000D02*
X18705000Y27508000D01*
X20665000Y27468000D02*
X21339000Y27468000D01*
X18031000Y27468000D02*
X18705000Y27468000D01*
X20665000Y27428000D02*
X21384000Y27428000D01*
X17986000Y27428000D02*
X18705000Y27428000D01*
X20665000Y27388000D02*
X21427000Y27388000D01*
X17943000Y27388000D02*
X18705000Y27388000D01*
X20665000Y27348000D02*
X21468000Y27348000D01*
X17902000Y27348000D02*
X18705000Y27348000D01*
X20665000Y27308000D02*
X21508000Y27308000D01*
X17862000Y27308000D02*
X18705000Y27308000D01*
X20665000Y27268000D02*
X21546000Y27268000D01*
X17824000Y27268000D02*
X18705000Y27268000D01*
X20665000Y27228000D02*
X21582000Y27228000D01*
X17788000Y27228000D02*
X18705000Y27228000D01*
X20665000Y27188000D02*
X21617000Y27188000D01*
X17753000Y27188000D02*
X18705000Y27188000D01*
X20665000Y27148000D02*
X21650000Y27148000D01*
X17720000Y27148000D02*
X18705000Y27148000D01*
X20665000Y27108000D02*
X21682000Y27108000D01*
X17688000Y27108000D02*
X18705000Y27108000D01*
X20665000Y27068000D02*
X21713000Y27068000D01*
X17657000Y27068000D02*
X18705000Y27068000D01*
X20665000Y27028000D02*
X21743000Y27028000D01*
X17627000Y27028000D02*
X18705000Y27028000D01*
X20665000Y26988000D02*
X21771000Y26988000D01*
X17599000Y26988000D02*
X18705000Y26988000D01*
X20665000Y26948000D02*
X21798000Y26948000D01*
X17572000Y26948000D02*
X18705000Y26948000D01*
X20665000Y26908000D02*
X21825000Y26908000D01*
X17545000Y26908000D02*
X18705000Y26908000D01*
X20665000Y26868000D02*
X21850000Y26868000D01*
X17520000Y26868000D02*
X18705000Y26868000D01*
X20665000Y26828000D02*
X21874000Y26828000D01*
X17496000Y26828000D02*
X18705000Y26828000D01*
X20665000Y26788000D02*
X21897000Y26788000D01*
X17473000Y26788000D02*
X18705000Y26788000D01*
X20665000Y26748000D02*
X21919000Y26748000D01*
X17451000Y26748000D02*
X18705000Y26748000D01*
X20665000Y26708000D02*
X21941000Y26708000D01*
X17429000Y26708000D02*
X18705000Y26708000D01*
X20665000Y26668000D02*
X21961000Y26668000D01*
X17409000Y26668000D02*
X18705000Y26668000D01*
X20665000Y26628000D02*
X21981000Y26628000D01*
X17389000Y26628000D02*
X18705000Y26628000D01*
X20665000Y26588000D02*
X22000000Y26588000D01*
X17370000Y26588000D02*
X18705000Y26588000D01*
X20665000Y26548000D02*
X22018000Y26548000D01*
X17352000Y26548000D02*
X18705000Y26548000D01*
X20665000Y26508000D02*
X22035000Y26508000D01*
X17335000Y26508000D02*
X18705000Y26508000D01*
X20665000Y26468000D02*
X22051000Y26468000D01*
X17319000Y26468000D02*
X18705000Y26468000D01*
X20665000Y26428000D02*
X22067000Y26428000D01*
X17303000Y26428000D02*
X18705000Y26428000D01*
X20665000Y26388000D02*
X22081000Y26388000D01*
X17289000Y26388000D02*
X18705000Y26388000D01*
X20665000Y26348000D02*
X22095000Y26348000D01*
X17275000Y26348000D02*
X18705000Y26348000D01*
X20665000Y26308000D02*
X22109000Y26308000D01*
X17261000Y26308000D02*
X18705000Y26308000D01*
X20665000Y26268000D02*
X22121000Y26268000D01*
X17249000Y26268000D02*
X18705000Y26268000D01*
X20665000Y26228000D02*
X22133000Y26228000D01*
X17237000Y26228000D02*
X18705000Y26228000D01*
X20665000Y26187000D02*
X22145000Y26187000D01*
X17225000Y26187000D02*
X18705000Y26187000D01*
X20665000Y26147000D02*
X22155000Y26147000D01*
X17215000Y26147000D02*
X18705000Y26147000D01*
X20665000Y26107000D02*
X22165000Y26107000D01*
X17205000Y26107000D02*
X18705000Y26107000D01*
X20665000Y26067000D02*
X22174000Y26067000D01*
X17196000Y26067000D02*
X18705000Y26067000D01*
X20665000Y26027000D02*
X22183000Y26027000D01*
X17187000Y26027000D02*
X18705000Y26027000D01*
X20665000Y25987000D02*
X22191000Y25987000D01*
X17179000Y25987000D02*
X18705000Y25987000D01*
X20665000Y25947000D02*
X22198000Y25947000D01*
X17172000Y25947000D02*
X18705000Y25947000D01*
X20665000Y25907000D02*
X22204000Y25907000D01*
X17166000Y25907000D02*
X18705000Y25907000D01*
X20665000Y25867000D02*
X22210000Y25867000D01*
X17160000Y25867000D02*
X18705000Y25867000D01*
X20665000Y25827000D02*
X22216000Y25827000D01*
X17154000Y25827000D02*
X18705000Y25827000D01*
X20665000Y25787000D02*
X22220000Y25787000D01*
X17150000Y25787000D02*
X18705000Y25787000D01*
X17146000Y25747000D02*
X22224000Y25747000D01*
X17142000Y25707000D02*
X22228000Y25707000D01*
X17139000Y25667000D02*
X22231000Y25667000D01*
X17137000Y25627000D02*
X22233000Y25627000D01*
X17136000Y25587000D02*
X22234000Y25587000D01*
X17135000Y25547000D02*
X22235000Y25547000D01*
X17135000Y25507000D02*
X22235000Y25507000D01*
X18505277Y27812722D02*
G75*
G03*
X18505000Y23201420I1179723J-2305722D01*
G01*
X20864723Y27812722D02*
G75*
G02*
X20865000Y23201420I-1179723J-2305722D01*
G01*
X20864723Y27812722D02*
G75*
G03*
X18505000Y27812580I-1179723J-2305722D01*
G01*
X72085000Y78852000D02*
X72085000Y80152000D01*
X72685000Y79502000D02*
X71485000Y79502000D01*
X66674000Y79148000D02*
X66674000Y79856000D01*
X66714000Y78943000D02*
X66714000Y80061000D01*
X66754000Y78795000D02*
X66754000Y80209000D01*
X66794000Y78673000D02*
X66794000Y80331000D01*
X66834000Y78568000D02*
X66834000Y80436000D01*
X66874000Y78474000D02*
X66874000Y80530000D01*
X66914000Y78390000D02*
X66914000Y80614000D01*
X66954000Y78313000D02*
X66954000Y80691000D01*
X66994000Y78241000D02*
X66994000Y80763000D01*
X67034000Y80482000D02*
X67034000Y80829000D01*
X67034000Y78175000D02*
X67034000Y78522000D01*
X67074000Y80482000D02*
X67074000Y80892000D01*
X67074000Y78112000D02*
X67074000Y78522000D01*
X67114000Y80482000D02*
X67114000Y80950000D01*
X67114000Y78054000D02*
X67114000Y78522000D01*
X67154000Y80482000D02*
X67154000Y81006000D01*
X67154000Y77998000D02*
X67154000Y78522000D01*
X67194000Y80482000D02*
X67194000Y81058000D01*
X67194000Y77946000D02*
X67194000Y78522000D01*
X67234000Y80482000D02*
X67234000Y81108000D01*
X67234000Y77896000D02*
X67234000Y78522000D01*
X67274000Y80482000D02*
X67274000Y81156000D01*
X67274000Y77848000D02*
X67274000Y78522000D01*
X67314000Y80482000D02*
X67314000Y81201000D01*
X67314000Y77803000D02*
X67314000Y78522000D01*
X67354000Y80482000D02*
X67354000Y81244000D01*
X67354000Y77760000D02*
X67354000Y78522000D01*
X67394000Y80482000D02*
X67394000Y81285000D01*
X67394000Y77719000D02*
X67394000Y78522000D01*
X67434000Y80482000D02*
X67434000Y81325000D01*
X67434000Y77679000D02*
X67434000Y78522000D01*
X67474000Y80482000D02*
X67474000Y81363000D01*
X67474000Y77641000D02*
X67474000Y78522000D01*
X67514000Y80482000D02*
X67514000Y81399000D01*
X67514000Y77605000D02*
X67514000Y78522000D01*
X67554000Y80482000D02*
X67554000Y81434000D01*
X67554000Y77570000D02*
X67554000Y78522000D01*
X67594000Y80482000D02*
X67594000Y81467000D01*
X67594000Y77537000D02*
X67594000Y78522000D01*
X67634000Y80482000D02*
X67634000Y81499000D01*
X67634000Y77505000D02*
X67634000Y78522000D01*
X67674000Y80482000D02*
X67674000Y81530000D01*
X67674000Y77474000D02*
X67674000Y78522000D01*
X67714000Y80482000D02*
X67714000Y81560000D01*
X67714000Y77444000D02*
X67714000Y78522000D01*
X67754000Y80482000D02*
X67754000Y81588000D01*
X67754000Y77416000D02*
X67754000Y78522000D01*
X67794000Y80482000D02*
X67794000Y81615000D01*
X67794000Y77389000D02*
X67794000Y78522000D01*
X67834000Y80482000D02*
X67834000Y81642000D01*
X67834000Y77362000D02*
X67834000Y78522000D01*
X67874000Y80482000D02*
X67874000Y81667000D01*
X67874000Y77337000D02*
X67874000Y78522000D01*
X67914000Y80482000D02*
X67914000Y81691000D01*
X67914000Y77313000D02*
X67914000Y78522000D01*
X67954000Y80482000D02*
X67954000Y81714000D01*
X67954000Y77290000D02*
X67954000Y78522000D01*
X67994000Y80482000D02*
X67994000Y81736000D01*
X67994000Y77268000D02*
X67994000Y78522000D01*
X68034000Y80482000D02*
X68034000Y81758000D01*
X68034000Y77246000D02*
X68034000Y78522000D01*
X68074000Y80482000D02*
X68074000Y81778000D01*
X68074000Y77226000D02*
X68074000Y78522000D01*
X68114000Y80482000D02*
X68114000Y81798000D01*
X68114000Y77206000D02*
X68114000Y78522000D01*
X68154000Y80482000D02*
X68154000Y81817000D01*
X68154000Y77187000D02*
X68154000Y78522000D01*
X68194000Y80482000D02*
X68194000Y81835000D01*
X68194000Y77169000D02*
X68194000Y78522000D01*
X68234000Y80482000D02*
X68234000Y81852000D01*
X68234000Y77152000D02*
X68234000Y78522000D01*
X68274000Y80482000D02*
X68274000Y81868000D01*
X68274000Y77136000D02*
X68274000Y78522000D01*
X68314000Y80482000D02*
X68314000Y81884000D01*
X68314000Y77120000D02*
X68314000Y78522000D01*
X68354000Y80482000D02*
X68354000Y81898000D01*
X68354000Y77106000D02*
X68354000Y78522000D01*
X68394000Y80482000D02*
X68394000Y81912000D01*
X68394000Y77092000D02*
X68394000Y78522000D01*
X68434000Y80482000D02*
X68434000Y81926000D01*
X68434000Y77078000D02*
X68434000Y78522000D01*
X68474000Y80482000D02*
X68474000Y81938000D01*
X68474000Y77066000D02*
X68474000Y78522000D01*
X68514000Y80482000D02*
X68514000Y81950000D01*
X68514000Y77054000D02*
X68514000Y78522000D01*
X68555000Y80482000D02*
X68555000Y81962000D01*
X68555000Y77042000D02*
X68555000Y78522000D01*
X68595000Y80482000D02*
X68595000Y81972000D01*
X68595000Y77032000D02*
X68595000Y78522000D01*
X68635000Y80482000D02*
X68635000Y81982000D01*
X68635000Y77022000D02*
X68635000Y78522000D01*
X68675000Y80482000D02*
X68675000Y81991000D01*
X68675000Y77013000D02*
X68675000Y78522000D01*
X68715000Y80482000D02*
X68715000Y82000000D01*
X68715000Y77004000D02*
X68715000Y78522000D01*
X68755000Y80482000D02*
X68755000Y82008000D01*
X68755000Y76996000D02*
X68755000Y78522000D01*
X68795000Y80482000D02*
X68795000Y82015000D01*
X68795000Y76989000D02*
X68795000Y78522000D01*
X68835000Y80482000D02*
X68835000Y82021000D01*
X68835000Y76983000D02*
X68835000Y78522000D01*
X68875000Y80482000D02*
X68875000Y82027000D01*
X68875000Y76977000D02*
X68875000Y78522000D01*
X68915000Y80482000D02*
X68915000Y82033000D01*
X68915000Y76971000D02*
X68915000Y78522000D01*
X68955000Y80482000D02*
X68955000Y82037000D01*
X68955000Y76967000D02*
X68955000Y78522000D01*
X68995000Y76963000D02*
X68995000Y82041000D01*
X69035000Y76959000D02*
X69035000Y82045000D01*
X69075000Y76956000D02*
X69075000Y82048000D01*
X69115000Y76954000D02*
X69115000Y82050000D01*
X69155000Y76953000D02*
X69155000Y82051000D01*
X69195000Y76952000D02*
X69195000Y82052000D01*
X69235000Y76952000D02*
X69235000Y82052000D01*
X66929278Y78322277D02*
G75*
G03*
X71540580Y78322000I2305722J1179723D01*
G01*
X66929278Y80681723D02*
G75*
G02*
X71540580Y80682000I2305722J-1179723D01*
G01*
X66929278Y80681723D02*
G75*
G03*
X66929420Y78322000I2305722J-1179723D01*
G01*
X45415000Y78852000D02*
X45415000Y80152000D01*
X46015000Y79502000D02*
X44815000Y79502000D01*
X40004000Y79148000D02*
X40004000Y79856000D01*
X40044000Y78943000D02*
X40044000Y80061000D01*
X40084000Y78795000D02*
X40084000Y80209000D01*
X40124000Y78673000D02*
X40124000Y80331000D01*
X40164000Y78568000D02*
X40164000Y80436000D01*
X40204000Y78474000D02*
X40204000Y80530000D01*
X40244000Y78390000D02*
X40244000Y80614000D01*
X40284000Y78313000D02*
X40284000Y80691000D01*
X40324000Y78241000D02*
X40324000Y80763000D01*
X40364000Y80482000D02*
X40364000Y80829000D01*
X40364000Y78175000D02*
X40364000Y78522000D01*
X40404000Y80482000D02*
X40404000Y80892000D01*
X40404000Y78112000D02*
X40404000Y78522000D01*
X40444000Y80482000D02*
X40444000Y80950000D01*
X40444000Y78054000D02*
X40444000Y78522000D01*
X40484000Y80482000D02*
X40484000Y81006000D01*
X40484000Y77998000D02*
X40484000Y78522000D01*
X40524000Y80482000D02*
X40524000Y81058000D01*
X40524000Y77946000D02*
X40524000Y78522000D01*
X40564000Y80482000D02*
X40564000Y81108000D01*
X40564000Y77896000D02*
X40564000Y78522000D01*
X40604000Y80482000D02*
X40604000Y81156000D01*
X40604000Y77848000D02*
X40604000Y78522000D01*
X40644000Y80482000D02*
X40644000Y81201000D01*
X40644000Y77803000D02*
X40644000Y78522000D01*
X40684000Y80482000D02*
X40684000Y81244000D01*
X40684000Y77760000D02*
X40684000Y78522000D01*
X40724000Y80482000D02*
X40724000Y81285000D01*
X40724000Y77719000D02*
X40724000Y78522000D01*
X40764000Y80482000D02*
X40764000Y81325000D01*
X40764000Y77679000D02*
X40764000Y78522000D01*
X40804000Y80482000D02*
X40804000Y81363000D01*
X40804000Y77641000D02*
X40804000Y78522000D01*
X40844000Y80482000D02*
X40844000Y81399000D01*
X40844000Y77605000D02*
X40844000Y78522000D01*
X40884000Y80482000D02*
X40884000Y81434000D01*
X40884000Y77570000D02*
X40884000Y78522000D01*
X40924000Y80482000D02*
X40924000Y81467000D01*
X40924000Y77537000D02*
X40924000Y78522000D01*
X40964000Y80482000D02*
X40964000Y81499000D01*
X40964000Y77505000D02*
X40964000Y78522000D01*
X41004000Y80482000D02*
X41004000Y81530000D01*
X41004000Y77474000D02*
X41004000Y78522000D01*
X41044000Y80482000D02*
X41044000Y81560000D01*
X41044000Y77444000D02*
X41044000Y78522000D01*
X41084000Y80482000D02*
X41084000Y81588000D01*
X41084000Y77416000D02*
X41084000Y78522000D01*
X41124000Y80482000D02*
X41124000Y81615000D01*
X41124000Y77389000D02*
X41124000Y78522000D01*
X41164000Y80482000D02*
X41164000Y81642000D01*
X41164000Y77362000D02*
X41164000Y78522000D01*
X41204000Y80482000D02*
X41204000Y81667000D01*
X41204000Y77337000D02*
X41204000Y78522000D01*
X41244000Y80482000D02*
X41244000Y81691000D01*
X41244000Y77313000D02*
X41244000Y78522000D01*
X41284000Y80482000D02*
X41284000Y81714000D01*
X41284000Y77290000D02*
X41284000Y78522000D01*
X41324000Y80482000D02*
X41324000Y81736000D01*
X41324000Y77268000D02*
X41324000Y78522000D01*
X41364000Y80482000D02*
X41364000Y81758000D01*
X41364000Y77246000D02*
X41364000Y78522000D01*
X41404000Y80482000D02*
X41404000Y81778000D01*
X41404000Y77226000D02*
X41404000Y78522000D01*
X41444000Y80482000D02*
X41444000Y81798000D01*
X41444000Y77206000D02*
X41444000Y78522000D01*
X41484000Y80482000D02*
X41484000Y81817000D01*
X41484000Y77187000D02*
X41484000Y78522000D01*
X41524000Y80482000D02*
X41524000Y81835000D01*
X41524000Y77169000D02*
X41524000Y78522000D01*
X41564000Y80482000D02*
X41564000Y81852000D01*
X41564000Y77152000D02*
X41564000Y78522000D01*
X41604000Y80482000D02*
X41604000Y81868000D01*
X41604000Y77136000D02*
X41604000Y78522000D01*
X41644000Y80482000D02*
X41644000Y81884000D01*
X41644000Y77120000D02*
X41644000Y78522000D01*
X41684000Y80482000D02*
X41684000Y81898000D01*
X41684000Y77106000D02*
X41684000Y78522000D01*
X41724000Y80482000D02*
X41724000Y81912000D01*
X41724000Y77092000D02*
X41724000Y78522000D01*
X41764000Y80482000D02*
X41764000Y81926000D01*
X41764000Y77078000D02*
X41764000Y78522000D01*
X41804000Y80482000D02*
X41804000Y81938000D01*
X41804000Y77066000D02*
X41804000Y78522000D01*
X41844000Y80482000D02*
X41844000Y81950000D01*
X41844000Y77054000D02*
X41844000Y78522000D01*
X41885000Y80482000D02*
X41885000Y81962000D01*
X41885000Y77042000D02*
X41885000Y78522000D01*
X41925000Y80482000D02*
X41925000Y81972000D01*
X41925000Y77032000D02*
X41925000Y78522000D01*
X41965000Y80482000D02*
X41965000Y81982000D01*
X41965000Y77022000D02*
X41965000Y78522000D01*
X42005000Y80482000D02*
X42005000Y81991000D01*
X42005000Y77013000D02*
X42005000Y78522000D01*
X42045000Y80482000D02*
X42045000Y82000000D01*
X42045000Y77004000D02*
X42045000Y78522000D01*
X42085000Y80482000D02*
X42085000Y82008000D01*
X42085000Y76996000D02*
X42085000Y78522000D01*
X42125000Y80482000D02*
X42125000Y82015000D01*
X42125000Y76989000D02*
X42125000Y78522000D01*
X42165000Y80482000D02*
X42165000Y82021000D01*
X42165000Y76983000D02*
X42165000Y78522000D01*
X42205000Y80482000D02*
X42205000Y82027000D01*
X42205000Y76977000D02*
X42205000Y78522000D01*
X42245000Y80482000D02*
X42245000Y82033000D01*
X42245000Y76971000D02*
X42245000Y78522000D01*
X42285000Y80482000D02*
X42285000Y82037000D01*
X42285000Y76967000D02*
X42285000Y78522000D01*
X42325000Y76963000D02*
X42325000Y82041000D01*
X42365000Y76959000D02*
X42365000Y82045000D01*
X42405000Y76956000D02*
X42405000Y82048000D01*
X42445000Y76954000D02*
X42445000Y82050000D01*
X42485000Y76953000D02*
X42485000Y82051000D01*
X42525000Y76952000D02*
X42525000Y82052000D01*
X42565000Y76952000D02*
X42565000Y82052000D01*
X40259278Y78322277D02*
G75*
G03*
X44870580Y78322000I2305722J1179723D01*
G01*
X40259278Y80681723D02*
G75*
G02*
X44870580Y80682000I2305722J-1179723D01*
G01*
X40259278Y80681723D02*
G75*
G03*
X40259420Y78322000I2305722J-1179723D01*
G01*
X21920000Y78852000D02*
X21920000Y80152000D01*
X22520000Y79502000D02*
X21320000Y79502000D01*
X16509000Y79148000D02*
X16509000Y79856000D01*
X16549000Y78943000D02*
X16549000Y80061000D01*
X16589000Y78795000D02*
X16589000Y80209000D01*
X16629000Y78673000D02*
X16629000Y80331000D01*
X16669000Y78568000D02*
X16669000Y80436000D01*
X16709000Y78474000D02*
X16709000Y80530000D01*
X16749000Y78390000D02*
X16749000Y80614000D01*
X16789000Y78313000D02*
X16789000Y80691000D01*
X16829000Y78241000D02*
X16829000Y80763000D01*
X16869000Y80482000D02*
X16869000Y80829000D01*
X16869000Y78175000D02*
X16869000Y78522000D01*
X16909000Y80482000D02*
X16909000Y80892000D01*
X16909000Y78112000D02*
X16909000Y78522000D01*
X16949000Y80482000D02*
X16949000Y80950000D01*
X16949000Y78054000D02*
X16949000Y78522000D01*
X16989000Y80482000D02*
X16989000Y81006000D01*
X16989000Y77998000D02*
X16989000Y78522000D01*
X17029000Y80482000D02*
X17029000Y81058000D01*
X17029000Y77946000D02*
X17029000Y78522000D01*
X17069000Y80482000D02*
X17069000Y81108000D01*
X17069000Y77896000D02*
X17069000Y78522000D01*
X17109000Y80482000D02*
X17109000Y81156000D01*
X17109000Y77848000D02*
X17109000Y78522000D01*
X17149000Y80482000D02*
X17149000Y81201000D01*
X17149000Y77803000D02*
X17149000Y78522000D01*
X17189000Y80482000D02*
X17189000Y81244000D01*
X17189000Y77760000D02*
X17189000Y78522000D01*
X17229000Y80482000D02*
X17229000Y81285000D01*
X17229000Y77719000D02*
X17229000Y78522000D01*
X17269000Y80482000D02*
X17269000Y81325000D01*
X17269000Y77679000D02*
X17269000Y78522000D01*
X17309000Y80482000D02*
X17309000Y81363000D01*
X17309000Y77641000D02*
X17309000Y78522000D01*
X17349000Y80482000D02*
X17349000Y81399000D01*
X17349000Y77605000D02*
X17349000Y78522000D01*
X17389000Y80482000D02*
X17389000Y81434000D01*
X17389000Y77570000D02*
X17389000Y78522000D01*
X17429000Y80482000D02*
X17429000Y81467000D01*
X17429000Y77537000D02*
X17429000Y78522000D01*
X17469000Y80482000D02*
X17469000Y81499000D01*
X17469000Y77505000D02*
X17469000Y78522000D01*
X17509000Y80482000D02*
X17509000Y81530000D01*
X17509000Y77474000D02*
X17509000Y78522000D01*
X17549000Y80482000D02*
X17549000Y81560000D01*
X17549000Y77444000D02*
X17549000Y78522000D01*
X17589000Y80482000D02*
X17589000Y81588000D01*
X17589000Y77416000D02*
X17589000Y78522000D01*
X17629000Y80482000D02*
X17629000Y81615000D01*
X17629000Y77389000D02*
X17629000Y78522000D01*
X17669000Y80482000D02*
X17669000Y81642000D01*
X17669000Y77362000D02*
X17669000Y78522000D01*
X17709000Y80482000D02*
X17709000Y81667000D01*
X17709000Y77337000D02*
X17709000Y78522000D01*
X17749000Y80482000D02*
X17749000Y81691000D01*
X17749000Y77313000D02*
X17749000Y78522000D01*
X17789000Y80482000D02*
X17789000Y81714000D01*
X17789000Y77290000D02*
X17789000Y78522000D01*
X17829000Y80482000D02*
X17829000Y81736000D01*
X17829000Y77268000D02*
X17829000Y78522000D01*
X17869000Y80482000D02*
X17869000Y81758000D01*
X17869000Y77246000D02*
X17869000Y78522000D01*
X17909000Y80482000D02*
X17909000Y81778000D01*
X17909000Y77226000D02*
X17909000Y78522000D01*
X17949000Y80482000D02*
X17949000Y81798000D01*
X17949000Y77206000D02*
X17949000Y78522000D01*
X17989000Y80482000D02*
X17989000Y81817000D01*
X17989000Y77187000D02*
X17989000Y78522000D01*
X18029000Y80482000D02*
X18029000Y81835000D01*
X18029000Y77169000D02*
X18029000Y78522000D01*
X18069000Y80482000D02*
X18069000Y81852000D01*
X18069000Y77152000D02*
X18069000Y78522000D01*
X18109000Y80482000D02*
X18109000Y81868000D01*
X18109000Y77136000D02*
X18109000Y78522000D01*
X18149000Y80482000D02*
X18149000Y81884000D01*
X18149000Y77120000D02*
X18149000Y78522000D01*
X18189000Y80482000D02*
X18189000Y81898000D01*
X18189000Y77106000D02*
X18189000Y78522000D01*
X18229000Y80482000D02*
X18229000Y81912000D01*
X18229000Y77092000D02*
X18229000Y78522000D01*
X18269000Y80482000D02*
X18269000Y81926000D01*
X18269000Y77078000D02*
X18269000Y78522000D01*
X18309000Y80482000D02*
X18309000Y81938000D01*
X18309000Y77066000D02*
X18309000Y78522000D01*
X18349000Y80482000D02*
X18349000Y81950000D01*
X18349000Y77054000D02*
X18349000Y78522000D01*
X18390000Y80482000D02*
X18390000Y81962000D01*
X18390000Y77042000D02*
X18390000Y78522000D01*
X18430000Y80482000D02*
X18430000Y81972000D01*
X18430000Y77032000D02*
X18430000Y78522000D01*
X18470000Y80482000D02*
X18470000Y81982000D01*
X18470000Y77022000D02*
X18470000Y78522000D01*
X18510000Y80482000D02*
X18510000Y81991000D01*
X18510000Y77013000D02*
X18510000Y78522000D01*
X18550000Y80482000D02*
X18550000Y82000000D01*
X18550000Y77004000D02*
X18550000Y78522000D01*
X18590000Y80482000D02*
X18590000Y82008000D01*
X18590000Y76996000D02*
X18590000Y78522000D01*
X18630000Y80482000D02*
X18630000Y82015000D01*
X18630000Y76989000D02*
X18630000Y78522000D01*
X18670000Y80482000D02*
X18670000Y82021000D01*
X18670000Y76983000D02*
X18670000Y78522000D01*
X18710000Y80482000D02*
X18710000Y82027000D01*
X18710000Y76977000D02*
X18710000Y78522000D01*
X18750000Y80482000D02*
X18750000Y82033000D01*
X18750000Y76971000D02*
X18750000Y78522000D01*
X18790000Y80482000D02*
X18790000Y82037000D01*
X18790000Y76967000D02*
X18790000Y78522000D01*
X18830000Y76963000D02*
X18830000Y82041000D01*
X18870000Y76959000D02*
X18870000Y82045000D01*
X18910000Y76956000D02*
X18910000Y82048000D01*
X18950000Y76954000D02*
X18950000Y82050000D01*
X18990000Y76953000D02*
X18990000Y82051000D01*
X19030000Y76952000D02*
X19030000Y82052000D01*
X19070000Y76952000D02*
X19070000Y82052000D01*
X16764278Y78322277D02*
G75*
G03*
X21375580Y78322000I2305722J1179723D01*
G01*
X16764278Y80681723D02*
G75*
G02*
X21375580Y80682000I2305722J-1179723D01*
G01*
X16764278Y80681723D02*
G75*
G03*
X16764420Y78322000I2305722J-1179723D01*
G01*
X6655000Y47132000D02*
X6655000Y45832000D01*
X6055000Y46482000D02*
X7255000Y46482000D01*
X12066000Y46836000D02*
X12066000Y46128000D01*
X12026000Y47041000D02*
X12026000Y45923000D01*
X11986000Y47189000D02*
X11986000Y45775000D01*
X11946000Y47311000D02*
X11946000Y45653000D01*
X11906000Y47416000D02*
X11906000Y45548000D01*
X11866000Y47510000D02*
X11866000Y45454000D01*
X11826000Y47594000D02*
X11826000Y45370000D01*
X11786000Y47671000D02*
X11786000Y45293000D01*
X11746000Y47743000D02*
X11746000Y45221000D01*
X11706000Y45502000D02*
X11706000Y45155000D01*
X11706000Y47809000D02*
X11706000Y47462000D01*
X11666000Y45502000D02*
X11666000Y45092000D01*
X11666000Y47872000D02*
X11666000Y47462000D01*
X11626000Y45502000D02*
X11626000Y45034000D01*
X11626000Y47930000D02*
X11626000Y47462000D01*
X11586000Y45502000D02*
X11586000Y44978000D01*
X11586000Y47986000D02*
X11586000Y47462000D01*
X11546000Y45502000D02*
X11546000Y44926000D01*
X11546000Y48038000D02*
X11546000Y47462000D01*
X11506000Y45502000D02*
X11506000Y44876000D01*
X11506000Y48088000D02*
X11506000Y47462000D01*
X11466000Y45502000D02*
X11466000Y44828000D01*
X11466000Y48136000D02*
X11466000Y47462000D01*
X11426000Y45502000D02*
X11426000Y44783000D01*
X11426000Y48181000D02*
X11426000Y47462000D01*
X11386000Y45502000D02*
X11386000Y44740000D01*
X11386000Y48224000D02*
X11386000Y47462000D01*
X11346000Y45502000D02*
X11346000Y44699000D01*
X11346000Y48265000D02*
X11346000Y47462000D01*
X11306000Y45502000D02*
X11306000Y44659000D01*
X11306000Y48305000D02*
X11306000Y47462000D01*
X11266000Y45502000D02*
X11266000Y44621000D01*
X11266000Y48343000D02*
X11266000Y47462000D01*
X11226000Y45502000D02*
X11226000Y44585000D01*
X11226000Y48379000D02*
X11226000Y47462000D01*
X11186000Y45502000D02*
X11186000Y44550000D01*
X11186000Y48414000D02*
X11186000Y47462000D01*
X11146000Y45502000D02*
X11146000Y44517000D01*
X11146000Y48447000D02*
X11146000Y47462000D01*
X11106000Y45502000D02*
X11106000Y44485000D01*
X11106000Y48479000D02*
X11106000Y47462000D01*
X11066000Y45502000D02*
X11066000Y44454000D01*
X11066000Y48510000D02*
X11066000Y47462000D01*
X11026000Y45502000D02*
X11026000Y44424000D01*
X11026000Y48540000D02*
X11026000Y47462000D01*
X10986000Y45502000D02*
X10986000Y44396000D01*
X10986000Y48568000D02*
X10986000Y47462000D01*
X10946000Y45502000D02*
X10946000Y44369000D01*
X10946000Y48595000D02*
X10946000Y47462000D01*
X10906000Y45502000D02*
X10906000Y44342000D01*
X10906000Y48622000D02*
X10906000Y47462000D01*
X10866000Y45502000D02*
X10866000Y44317000D01*
X10866000Y48647000D02*
X10866000Y47462000D01*
X10826000Y45502000D02*
X10826000Y44293000D01*
X10826000Y48671000D02*
X10826000Y47462000D01*
X10786000Y45502000D02*
X10786000Y44270000D01*
X10786000Y48694000D02*
X10786000Y47462000D01*
X10746000Y45502000D02*
X10746000Y44248000D01*
X10746000Y48716000D02*
X10746000Y47462000D01*
X10706000Y45502000D02*
X10706000Y44226000D01*
X10706000Y48738000D02*
X10706000Y47462000D01*
X10666000Y45502000D02*
X10666000Y44206000D01*
X10666000Y48758000D02*
X10666000Y47462000D01*
X10626000Y45502000D02*
X10626000Y44186000D01*
X10626000Y48778000D02*
X10626000Y47462000D01*
X10586000Y45502000D02*
X10586000Y44167000D01*
X10586000Y48797000D02*
X10586000Y47462000D01*
X10546000Y45502000D02*
X10546000Y44149000D01*
X10546000Y48815000D02*
X10546000Y47462000D01*
X10506000Y45502000D02*
X10506000Y44132000D01*
X10506000Y48832000D02*
X10506000Y47462000D01*
X10466000Y45502000D02*
X10466000Y44116000D01*
X10466000Y48848000D02*
X10466000Y47462000D01*
X10426000Y45502000D02*
X10426000Y44100000D01*
X10426000Y48864000D02*
X10426000Y47462000D01*
X10386000Y45502000D02*
X10386000Y44086000D01*
X10386000Y48878000D02*
X10386000Y47462000D01*
X10346000Y45502000D02*
X10346000Y44072000D01*
X10346000Y48892000D02*
X10346000Y47462000D01*
X10306000Y45502000D02*
X10306000Y44058000D01*
X10306000Y48906000D02*
X10306000Y47462000D01*
X10266000Y45502000D02*
X10266000Y44046000D01*
X10266000Y48918000D02*
X10266000Y47462000D01*
X10226000Y45502000D02*
X10226000Y44034000D01*
X10226000Y48930000D02*
X10226000Y47462000D01*
X10185000Y45502000D02*
X10185000Y44022000D01*
X10185000Y48942000D02*
X10185000Y47462000D01*
X10145000Y45502000D02*
X10145000Y44012000D01*
X10145000Y48952000D02*
X10145000Y47462000D01*
X10105000Y45502000D02*
X10105000Y44002000D01*
X10105000Y48962000D02*
X10105000Y47462000D01*
X10065000Y45502000D02*
X10065000Y43993000D01*
X10065000Y48971000D02*
X10065000Y47462000D01*
X10025000Y45502000D02*
X10025000Y43984000D01*
X10025000Y48980000D02*
X10025000Y47462000D01*
X9985000Y45502000D02*
X9985000Y43976000D01*
X9985000Y48988000D02*
X9985000Y47462000D01*
X9945000Y45502000D02*
X9945000Y43969000D01*
X9945000Y48995000D02*
X9945000Y47462000D01*
X9905000Y45502000D02*
X9905000Y43963000D01*
X9905000Y49001000D02*
X9905000Y47462000D01*
X9865000Y45502000D02*
X9865000Y43957000D01*
X9865000Y49007000D02*
X9865000Y47462000D01*
X9825000Y45502000D02*
X9825000Y43951000D01*
X9825000Y49013000D02*
X9825000Y47462000D01*
X9785000Y45502000D02*
X9785000Y43947000D01*
X9785000Y49017000D02*
X9785000Y47462000D01*
X9745000Y49021000D02*
X9745000Y43943000D01*
X9705000Y49025000D02*
X9705000Y43939000D01*
X9665000Y49028000D02*
X9665000Y43936000D01*
X9625000Y49030000D02*
X9625000Y43934000D01*
X9585000Y49031000D02*
X9585000Y43933000D01*
X9545000Y49032000D02*
X9545000Y43932000D01*
X9505000Y49032000D02*
X9505000Y43932000D01*
X11810722Y47661723D02*
G75*
G03*
X7199420Y47662000I-2305722J-1179723D01*
G01*
X11810722Y45302277D02*
G75*
G02*
X7199420Y45302000I-2305722J1179723D01*
G01*
X11810722Y45302277D02*
G75*
G03*
X11810580Y47662000I-2305722J1179723D01*
G01*
X116570000Y81133000D02*
X116570000Y81197000D01*
X116570000Y79077000D02*
X116570000Y79141000D01*
X119690000Y81133000D02*
X119690000Y81197000D01*
X119690000Y79077000D02*
X119690000Y79141000D01*
X119690000Y81197000D02*
X116570000Y81197000D01*
X119690000Y79077000D02*
X116570000Y79077000D01*
X152130000Y81133000D02*
X152130000Y81197000D01*
X152130000Y79077000D02*
X152130000Y79141000D01*
X155250000Y81133000D02*
X155250000Y81197000D01*
X155250000Y79077000D02*
X155250000Y79141000D01*
X155250000Y81197000D02*
X152130000Y81197000D01*
X155250000Y79077000D02*
X152130000Y79077000D01*
X152765000Y66528000D02*
X152765000Y66592000D01*
X152765000Y64472000D02*
X152765000Y64536000D01*
X155885000Y66528000D02*
X155885000Y66592000D01*
X155885000Y64472000D02*
X155885000Y64536000D01*
X155885000Y66592000D02*
X152765000Y66592000D01*
X155885000Y64472000D02*
X152765000Y64472000D01*
X164830000Y66528000D02*
X164830000Y66592000D01*
X164830000Y64472000D02*
X164830000Y64536000D01*
X167950000Y66528000D02*
X167950000Y66592000D01*
X167950000Y64472000D02*
X167950000Y64536000D01*
X167950000Y66592000D02*
X164830000Y66592000D01*
X167950000Y64472000D02*
X164830000Y64472000D01*
X140700000Y81133000D02*
X140700000Y81197000D01*
X140700000Y79077000D02*
X140700000Y79141000D01*
X143820000Y81133000D02*
X143820000Y81197000D01*
X143820000Y79077000D02*
X143820000Y79141000D01*
X143820000Y81197000D02*
X140700000Y81197000D01*
X143820000Y79077000D02*
X140700000Y79077000D01*
X140700000Y67798000D02*
X140700000Y67862000D01*
X140700000Y65742000D02*
X140700000Y65806000D01*
X143820000Y67798000D02*
X143820000Y67862000D01*
X143820000Y65742000D02*
X143820000Y65806000D01*
X143820000Y67862000D02*
X140700000Y67862000D01*
X143820000Y65742000D02*
X140700000Y65742000D01*
X103235000Y81133000D02*
X103235000Y81197000D01*
X103235000Y79077000D02*
X103235000Y79141000D01*
X106355000Y81133000D02*
X106355000Y81197000D01*
X106355000Y79077000D02*
X106355000Y79141000D01*
X106355000Y81197000D02*
X103235000Y81197000D01*
X106355000Y79077000D02*
X103235000Y79077000D01*
X112665000Y65806000D02*
X112665000Y65742000D01*
X112665000Y67862000D02*
X112665000Y67798000D01*
X109545000Y65806000D02*
X109545000Y65742000D01*
X109545000Y67862000D02*
X109545000Y67798000D01*
X109545000Y65742000D02*
X112665000Y65742000D01*
X109545000Y67862000D02*
X112665000Y67862000D01*
X128508000Y67925000D02*
X128508000Y67989000D01*
X128508000Y65869000D02*
X128508000Y65933000D01*
X131628000Y67925000D02*
X131628000Y67989000D01*
X131628000Y65869000D02*
X131628000Y65933000D01*
X131628000Y67989000D02*
X128508000Y67989000D01*
X131628000Y65869000D02*
X128508000Y65869000D01*
X116570000Y67798000D02*
X116570000Y67862000D01*
X116570000Y65742000D02*
X116570000Y65806000D01*
X119690000Y67798000D02*
X119690000Y67862000D01*
X119690000Y65742000D02*
X119690000Y65806000D01*
X119690000Y67862000D02*
X116570000Y67862000D01*
X119690000Y65742000D02*
X116570000Y65742000D01*
X157750000Y32151000D02*
X157750000Y32087000D01*
X157750000Y34207000D02*
X157750000Y34143000D01*
X154630000Y32151000D02*
X154630000Y32087000D01*
X154630000Y34207000D02*
X154630000Y34143000D01*
X154630000Y32087000D02*
X157750000Y32087000D01*
X154630000Y34207000D02*
X157750000Y34207000D01*
X157750000Y13736000D02*
X157750000Y13672000D01*
X157750000Y15792000D02*
X157750000Y15728000D01*
X154630000Y13736000D02*
X154630000Y13672000D01*
X154630000Y15792000D02*
X154630000Y15728000D01*
X154630000Y13672000D02*
X157750000Y13672000D01*
X154630000Y15792000D02*
X157750000Y15792000D01*
X84820000Y77958000D02*
X84820000Y78022000D01*
X84820000Y75902000D02*
X84820000Y75966000D01*
X87940000Y77958000D02*
X87940000Y78022000D01*
X87940000Y75902000D02*
X87940000Y75966000D01*
X87940000Y78022000D02*
X84820000Y78022000D01*
X87940000Y75902000D02*
X84820000Y75902000D01*
X58150000Y77958000D02*
X58150000Y78022000D01*
X58150000Y75902000D02*
X58150000Y75966000D01*
X61270000Y77958000D02*
X61270000Y78022000D01*
X61270000Y75902000D02*
X61270000Y75966000D01*
X61270000Y78022000D02*
X58150000Y78022000D01*
X61270000Y75902000D02*
X58150000Y75902000D01*
X31480000Y77958000D02*
X31480000Y78022000D01*
X31480000Y75902000D02*
X31480000Y75966000D01*
X34600000Y77958000D02*
X34600000Y78022000D01*
X34600000Y75902000D02*
X34600000Y75966000D01*
X34600000Y78022000D02*
X31480000Y78022000D01*
X34600000Y75902000D02*
X31480000Y75902000D01*
X10790000Y41402000D02*
X4450000Y41402000D01*
X10790000Y33782000D02*
X4450000Y33782000D01*
X8890000Y33782000D02*
X8890000Y41402000D01*
X10790000Y41402000D02*
X10790000Y33782000D01*
X4450000Y33782000D02*
X4450000Y41402000D01*
X10790000Y65532000D02*
X4450000Y65532000D01*
X10790000Y57912000D02*
X4450000Y57912000D01*
X8890000Y57912000D02*
X8890000Y65532000D01*
X10790000Y65532000D02*
X10790000Y57912000D01*
X4450000Y57912000D02*
X4450000Y65532000D01*
D10*
X100627380Y21590096D02*
X101436904Y21590096D01*
X101532142Y21637715D01*
X101579761Y21685334D01*
X101627380Y21780572D01*
X101627380Y21971048D01*
X101579761Y22066286D01*
X101532142Y22113905D01*
X101436904Y22161524D01*
X100627380Y22161524D01*
X100960714Y23066286D02*
X101627380Y23066286D01*
X100579761Y22828191D02*
X101294047Y22590096D01*
X101294047Y23209143D01*
X113649523Y23804620D02*
X113649523Y24804620D01*
X113649523Y24328429D02*
X114220952Y24328429D01*
X114220952Y23804620D02*
X114220952Y24804620D01*
X114697142Y23804620D02*
X114697142Y24804620D01*
X114935238Y24804620D01*
X115078095Y24757000D01*
X115173333Y24661762D01*
X115220952Y24566524D01*
X115268571Y24376048D01*
X115268571Y24233191D01*
X115220952Y24042715D01*
X115173333Y23947477D01*
X115078095Y23852239D01*
X114935238Y23804620D01*
X114697142Y23804620D01*
X116125714Y24804620D02*
X115935238Y24804620D01*
X115840000Y24757000D01*
X115792380Y24709381D01*
X115697142Y24566524D01*
X115649523Y24376048D01*
X115649523Y23995096D01*
X115697142Y23899858D01*
X115744761Y23852239D01*
X115840000Y23804620D01*
X116030476Y23804620D01*
X116125714Y23852239D01*
X116173333Y23899858D01*
X116220952Y23995096D01*
X116220952Y24233191D01*
X116173333Y24328429D01*
X116125714Y24376048D01*
X116030476Y24423667D01*
X115840000Y24423667D01*
X115744761Y24376048D01*
X115697142Y24328429D01*
X115649523Y24233191D01*
X116792380Y24376048D02*
X116697142Y24423667D01*
X116649523Y24471286D01*
X116601904Y24566524D01*
X116601904Y24614143D01*
X116649523Y24709381D01*
X116697142Y24757000D01*
X116792380Y24804620D01*
X116982857Y24804620D01*
X117078095Y24757000D01*
X117125714Y24709381D01*
X117173333Y24614143D01*
X117173333Y24566524D01*
X117125714Y24471286D01*
X117078095Y24423667D01*
X116982857Y24376048D01*
X116792380Y24376048D01*
X116697142Y24328429D01*
X116649523Y24280810D01*
X116601904Y24185572D01*
X116601904Y23995096D01*
X116649523Y23899858D01*
X116697142Y23852239D01*
X116792380Y23804620D01*
X116982857Y23804620D01*
X117078095Y23852239D01*
X117125714Y23899858D01*
X117173333Y23995096D01*
X117173333Y24185572D01*
X117125714Y24280810D01*
X117078095Y24328429D01*
X116982857Y24376048D01*
X117554285Y24709381D02*
X117601904Y24757000D01*
X117697142Y24804620D01*
X117935238Y24804620D01*
X118030476Y24757000D01*
X118078095Y24709381D01*
X118125714Y24614143D01*
X118125714Y24518905D01*
X118078095Y24376048D01*
X117506666Y23804620D01*
X118125714Y23804620D01*
X119078095Y23804620D02*
X118506666Y23804620D01*
X118792380Y23804620D02*
X118792380Y24804620D01*
X118697142Y24661762D01*
X118601904Y24566524D01*
X118506666Y24518905D01*
X119506666Y23804620D02*
X119506666Y24804620D01*
X119887619Y24804620D01*
X119982857Y24757000D01*
X120030476Y24709381D01*
X120078095Y24614143D01*
X120078095Y24471286D01*
X120030476Y24376048D01*
X119982857Y24328429D01*
X119887619Y24280810D01*
X119506666Y24280810D01*
X124491904Y79944620D02*
X124491904Y79135096D01*
X124539523Y79039858D01*
X124587142Y78992239D01*
X124682380Y78944620D01*
X124872857Y78944620D01*
X124968095Y78992239D01*
X125015714Y79039858D01*
X125063333Y79135096D01*
X125063333Y79944620D01*
X126063333Y78944620D02*
X125491904Y78944620D01*
X125777619Y78944620D02*
X125777619Y79944620D01*
X125682380Y79801762D01*
X125587142Y79706524D01*
X125491904Y79658905D01*
X126920476Y79944620D02*
X126730000Y79944620D01*
X126634761Y79897000D01*
X126587142Y79849381D01*
X126491904Y79706524D01*
X126444285Y79516048D01*
X126444285Y79135096D01*
X126491904Y79039858D01*
X126539523Y78992239D01*
X126634761Y78944620D01*
X126825238Y78944620D01*
X126920476Y78992239D01*
X126968095Y79039858D01*
X127015714Y79135096D01*
X127015714Y79373191D01*
X126968095Y79468429D01*
X126920476Y79516048D01*
X126825238Y79563667D01*
X126634761Y79563667D01*
X126539523Y79516048D01*
X126491904Y79468429D01*
X126444285Y79373191D01*
X122769380Y71160096D02*
X122769380Y71826762D01*
X123769380Y71398191D01*
X123102714Y72636286D02*
X123769380Y72636286D01*
X122721761Y72398191D02*
X123436047Y72160096D01*
X123436047Y72779143D01*
X123769380Y73160096D02*
X122769380Y73160096D01*
X123245571Y73160096D02*
X123245571Y73731524D01*
X123769380Y73731524D02*
X122769380Y73731524D01*
X123674142Y74779143D02*
X123721761Y74731524D01*
X123769380Y74588667D01*
X123769380Y74493429D01*
X123721761Y74350572D01*
X123626523Y74255334D01*
X123531285Y74207715D01*
X123340809Y74160096D01*
X123197952Y74160096D01*
X123007476Y74207715D01*
X122912238Y74255334D01*
X122817000Y74350572D01*
X122769380Y74493429D01*
X122769380Y74588667D01*
X122817000Y74731524D01*
X122864619Y74779143D01*
X123769380Y75731524D02*
X123769380Y75160096D01*
X123769380Y75445810D02*
X122769380Y75445810D01*
X122912238Y75350572D01*
X123007476Y75255334D01*
X123055095Y75160096D01*
X122864619Y76112477D02*
X122817000Y76160096D01*
X122769380Y76255334D01*
X122769380Y76493429D01*
X122817000Y76588667D01*
X122864619Y76636286D01*
X122959857Y76683905D01*
X123055095Y76683905D01*
X123197952Y76636286D01*
X123769380Y76064858D01*
X123769380Y76683905D01*
X122769380Y77588667D02*
X122769380Y77112477D01*
X123245571Y77064858D01*
X123197952Y77112477D01*
X123150333Y77207715D01*
X123150333Y77445810D01*
X123197952Y77541048D01*
X123245571Y77588667D01*
X123340809Y77636286D01*
X123578904Y77636286D01*
X123674142Y77588667D01*
X123721761Y77541048D01*
X123769380Y77445810D01*
X123769380Y77207715D01*
X123721761Y77112477D01*
X123674142Y77064858D01*
X125722142Y80668858D02*
X125674523Y80621239D01*
X125531666Y80573620D01*
X125436428Y80573620D01*
X125293571Y80621239D01*
X125198333Y80716477D01*
X125150714Y80811715D01*
X125103095Y81002191D01*
X125103095Y81145048D01*
X125150714Y81335524D01*
X125198333Y81430762D01*
X125293571Y81526000D01*
X125436428Y81573620D01*
X125531666Y81573620D01*
X125674523Y81526000D01*
X125722142Y81478381D01*
X126674523Y80573620D02*
X126103095Y80573620D01*
X126388809Y80573620D02*
X126388809Y81573620D01*
X126293571Y81430762D01*
X126198333Y81335524D01*
X126103095Y81287905D01*
X127531666Y81573620D02*
X127341190Y81573620D01*
X127245952Y81526000D01*
X127198333Y81478381D01*
X127103095Y81335524D01*
X127055476Y81145048D01*
X127055476Y80764096D01*
X127103095Y80668858D01*
X127150714Y80621239D01*
X127245952Y80573620D01*
X127436428Y80573620D01*
X127531666Y80621239D01*
X127579285Y80668858D01*
X127626904Y80764096D01*
X127626904Y81002191D01*
X127579285Y81097429D01*
X127531666Y81145048D01*
X127436428Y81192667D01*
X127245952Y81192667D01*
X127150714Y81145048D01*
X127103095Y81097429D01*
X127055476Y81002191D01*
X92598904Y13374620D02*
X92122714Y13374620D01*
X92075095Y12898429D01*
X92122714Y12946048D01*
X92217952Y12993667D01*
X92456047Y12993667D01*
X92551285Y12946048D01*
X92598904Y12898429D01*
X92646523Y12803191D01*
X92646523Y12565096D01*
X92598904Y12469858D01*
X92551285Y12422239D01*
X92456047Y12374620D01*
X92217952Y12374620D01*
X92122714Y12422239D01*
X92075095Y12469858D01*
X93503666Y13374620D02*
X93313190Y13374620D01*
X93217952Y13327000D01*
X93170333Y13279381D01*
X93075095Y13136524D01*
X93027476Y12946048D01*
X93027476Y12565096D01*
X93075095Y12469858D01*
X93122714Y12422239D01*
X93217952Y12374620D01*
X93408428Y12374620D01*
X93503666Y12422239D01*
X93551285Y12469858D01*
X93598904Y12565096D01*
X93598904Y12803191D01*
X93551285Y12898429D01*
X93503666Y12946048D01*
X93408428Y12993667D01*
X93217952Y12993667D01*
X93122714Y12946048D01*
X93075095Y12898429D01*
X93027476Y12803191D01*
X19018285Y13279381D02*
X19065904Y13327000D01*
X19161142Y13374620D01*
X19399238Y13374620D01*
X19494476Y13327000D01*
X19542095Y13279381D01*
X19589714Y13184143D01*
X19589714Y13088905D01*
X19542095Y12946048D01*
X18970666Y12374620D01*
X19589714Y12374620D01*
X158035666Y81827620D02*
X158035666Y81113334D01*
X157988047Y80970477D01*
X157892809Y80875239D01*
X157749952Y80827620D01*
X157654714Y80827620D01*
X158940428Y81494286D02*
X158940428Y80827620D01*
X158702333Y81875239D02*
X158464238Y81160953D01*
X159083285Y81160953D01*
X100627380Y43180096D02*
X101436904Y43180096D01*
X101532142Y43227715D01*
X101579761Y43275334D01*
X101627380Y43370572D01*
X101627380Y43561048D01*
X101579761Y43656286D01*
X101532142Y43703905D01*
X101436904Y43751524D01*
X100627380Y43751524D01*
X100627380Y44703905D02*
X100627380Y44227715D01*
X101103571Y44180096D01*
X101055952Y44227715D01*
X101008333Y44322953D01*
X101008333Y44561048D01*
X101055952Y44656286D01*
X101103571Y44703905D01*
X101198809Y44751524D01*
X101436904Y44751524D01*
X101532142Y44703905D01*
X101579761Y44656286D01*
X101627380Y44561048D01*
X101627380Y44322953D01*
X101579761Y44227715D01*
X101532142Y44180096D01*
X115530714Y45394620D02*
X115530714Y46394620D01*
X115864047Y45680334D01*
X116197380Y46394620D01*
X116197380Y45394620D01*
X117245000Y45489858D02*
X117197380Y45442239D01*
X117054523Y45394620D01*
X116959285Y45394620D01*
X116816428Y45442239D01*
X116721190Y45537477D01*
X116673571Y45632715D01*
X116625952Y45823191D01*
X116625952Y45966048D01*
X116673571Y46156524D01*
X116721190Y46251762D01*
X116816428Y46347000D01*
X116959285Y46394620D01*
X117054523Y46394620D01*
X117197380Y46347000D01*
X117245000Y46299381D01*
X117625952Y45442239D02*
X117768809Y45394620D01*
X118006904Y45394620D01*
X118102142Y45442239D01*
X118149761Y45489858D01*
X118197380Y45585096D01*
X118197380Y45680334D01*
X118149761Y45775572D01*
X118102142Y45823191D01*
X118006904Y45870810D01*
X117816428Y45918429D01*
X117721190Y45966048D01*
X117673571Y46013667D01*
X117625952Y46108905D01*
X117625952Y46204143D01*
X117673571Y46299381D01*
X117721190Y46347000D01*
X117816428Y46394620D01*
X118054523Y46394620D01*
X118197380Y46347000D01*
X119054523Y46394620D02*
X118864047Y46394620D01*
X118768809Y46347000D01*
X118721190Y46299381D01*
X118625952Y46156524D01*
X118578333Y45966048D01*
X118578333Y45585096D01*
X118625952Y45489858D01*
X118673571Y45442239D01*
X118768809Y45394620D01*
X118959285Y45394620D01*
X119054523Y45442239D01*
X119102142Y45489858D01*
X119149761Y45585096D01*
X119149761Y45823191D01*
X119102142Y45918429D01*
X119054523Y45966048D01*
X118959285Y46013667D01*
X118768809Y46013667D01*
X118673571Y45966048D01*
X118625952Y45918429D01*
X118578333Y45823191D01*
X120054523Y46394620D02*
X119578333Y46394620D01*
X119530714Y45918429D01*
X119578333Y45966048D01*
X119673571Y46013667D01*
X119911666Y46013667D01*
X120006904Y45966048D01*
X120054523Y45918429D01*
X120102142Y45823191D01*
X120102142Y45585096D01*
X120054523Y45489858D01*
X120006904Y45442239D01*
X119911666Y45394620D01*
X119673571Y45394620D01*
X119578333Y45442239D01*
X119530714Y45489858D01*
X120483095Y46299381D02*
X120530714Y46347000D01*
X120625952Y46394620D01*
X120864047Y46394620D01*
X120959285Y46347000D01*
X121006904Y46299381D01*
X121054523Y46204143D01*
X121054523Y46108905D01*
X121006904Y45966048D01*
X120435476Y45394620D01*
X121054523Y45394620D01*
X121435476Y46299381D02*
X121483095Y46347000D01*
X121578333Y46394620D01*
X121816428Y46394620D01*
X121911666Y46347000D01*
X121959285Y46299381D01*
X122006904Y46204143D01*
X122006904Y46108905D01*
X121959285Y45966048D01*
X121387857Y45394620D01*
X122006904Y45394620D01*
X112807904Y79668620D02*
X112807904Y78859096D01*
X112855523Y78763858D01*
X112903142Y78716239D01*
X112998380Y78668620D01*
X113188857Y78668620D01*
X113284095Y78716239D01*
X113331714Y78763858D01*
X113379333Y78859096D01*
X113379333Y79668620D01*
X114379333Y78668620D02*
X113807904Y78668620D01*
X114093619Y78668620D02*
X114093619Y79668620D01*
X113998380Y79525762D01*
X113903142Y79430524D01*
X113807904Y79382905D01*
X115284095Y79668620D02*
X114807904Y79668620D01*
X114760285Y79192429D01*
X114807904Y79240048D01*
X114903142Y79287667D01*
X115141238Y79287667D01*
X115236476Y79240048D01*
X115284095Y79192429D01*
X115331714Y79097191D01*
X115331714Y78859096D01*
X115284095Y78763858D01*
X115236476Y78716239D01*
X115141238Y78668620D01*
X114903142Y78668620D01*
X114807904Y78716239D01*
X114760285Y78763858D01*
X110704380Y71414096D02*
X110704380Y72080762D01*
X111704380Y71652191D01*
X111037714Y72890286D02*
X111704380Y72890286D01*
X110656761Y72652191D02*
X111371047Y72414096D01*
X111371047Y73033143D01*
X111704380Y73414096D02*
X110704380Y73414096D01*
X111180571Y73414096D02*
X111180571Y73985524D01*
X111704380Y73985524D02*
X110704380Y73985524D01*
X111609142Y75033143D02*
X111656761Y74985524D01*
X111704380Y74842667D01*
X111704380Y74747429D01*
X111656761Y74604572D01*
X111561523Y74509334D01*
X111466285Y74461715D01*
X111275809Y74414096D01*
X111132952Y74414096D01*
X110942476Y74461715D01*
X110847238Y74509334D01*
X110752000Y74604572D01*
X110704380Y74747429D01*
X110704380Y74842667D01*
X110752000Y74985524D01*
X110799619Y75033143D01*
X111704380Y75985524D02*
X111704380Y75414096D01*
X111704380Y75699810D02*
X110704380Y75699810D01*
X110847238Y75604572D01*
X110942476Y75509334D01*
X110990095Y75414096D01*
X110799619Y76366477D02*
X110752000Y76414096D01*
X110704380Y76509334D01*
X110704380Y76747429D01*
X110752000Y76842667D01*
X110799619Y76890286D01*
X110894857Y76937905D01*
X110990095Y76937905D01*
X111132952Y76890286D01*
X111704380Y76318858D01*
X111704380Y76937905D01*
X110704380Y77842667D02*
X110704380Y77366477D01*
X111180571Y77318858D01*
X111132952Y77366477D01*
X111085333Y77461715D01*
X111085333Y77699810D01*
X111132952Y77795048D01*
X111180571Y77842667D01*
X111275809Y77890286D01*
X111513904Y77890286D01*
X111609142Y77842667D01*
X111656761Y77795048D01*
X111704380Y77699810D01*
X111704380Y77461715D01*
X111656761Y77366477D01*
X111609142Y77318858D01*
X149002904Y79668620D02*
X149002904Y78859096D01*
X149050523Y78763858D01*
X149098142Y78716239D01*
X149193380Y78668620D01*
X149383857Y78668620D01*
X149479095Y78716239D01*
X149526714Y78763858D01*
X149574333Y78859096D01*
X149574333Y79668620D01*
X150574333Y78668620D02*
X150002904Y78668620D01*
X150288619Y78668620D02*
X150288619Y79668620D01*
X150193380Y79525762D01*
X150098142Y79430524D01*
X150002904Y79382905D01*
X151431476Y79335286D02*
X151431476Y78668620D01*
X151193380Y79716239D02*
X150955285Y79001953D01*
X151574333Y79001953D01*
X158456380Y72144286D02*
X158456380Y72810953D01*
X159456380Y72382381D01*
X158789714Y73620477D02*
X159456380Y73620477D01*
X158408761Y73382381D02*
X159123047Y73144286D01*
X159123047Y73763334D01*
X159456380Y74144286D02*
X158456380Y74144286D01*
X158932571Y74144286D02*
X158932571Y74715715D01*
X159456380Y74715715D02*
X158456380Y74715715D01*
X159361142Y75763334D02*
X159408761Y75715715D01*
X159456380Y75572858D01*
X159456380Y75477620D01*
X159408761Y75334762D01*
X159313523Y75239524D01*
X159218285Y75191905D01*
X159027809Y75144286D01*
X158884952Y75144286D01*
X158694476Y75191905D01*
X158599238Y75239524D01*
X158504000Y75334762D01*
X158456380Y75477620D01*
X158456380Y75572858D01*
X158504000Y75715715D01*
X158551619Y75763334D01*
X158456380Y76382381D02*
X158456380Y76477620D01*
X158504000Y76572858D01*
X158551619Y76620477D01*
X158646857Y76668096D01*
X158837333Y76715715D01*
X159075428Y76715715D01*
X159265904Y76668096D01*
X159361142Y76620477D01*
X159408761Y76572858D01*
X159456380Y76477620D01*
X159456380Y76382381D01*
X159408761Y76287143D01*
X159361142Y76239524D01*
X159265904Y76191905D01*
X159075428Y76144286D01*
X158837333Y76144286D01*
X158646857Y76191905D01*
X158551619Y76239524D01*
X158504000Y76287143D01*
X158456380Y76382381D01*
X158551619Y77096667D02*
X158504000Y77144286D01*
X158456380Y77239524D01*
X158456380Y77477620D01*
X158504000Y77572858D01*
X158551619Y77620477D01*
X158646857Y77668096D01*
X158742095Y77668096D01*
X158884952Y77620477D01*
X159456380Y77049048D01*
X159456380Y77668096D01*
X146566904Y65190620D02*
X146566904Y64381096D01*
X146614523Y64285858D01*
X146662142Y64238239D01*
X146757380Y64190620D01*
X146947857Y64190620D01*
X147043095Y64238239D01*
X147090714Y64285858D01*
X147138333Y64381096D01*
X147138333Y65190620D01*
X148138333Y64190620D02*
X147566904Y64190620D01*
X147852619Y64190620D02*
X147852619Y65190620D01*
X147757380Y65047762D01*
X147662142Y64952524D01*
X147566904Y64904905D01*
X148471666Y65190620D02*
X149090714Y65190620D01*
X148757380Y64809667D01*
X148900238Y64809667D01*
X148995476Y64762048D01*
X149043095Y64714429D01*
X149090714Y64619191D01*
X149090714Y64381096D01*
X149043095Y64285858D01*
X148995476Y64238239D01*
X148900238Y64190620D01*
X148614523Y64190620D01*
X148519285Y64238239D01*
X148471666Y64285858D01*
X146645380Y54364286D02*
X146645380Y55030953D01*
X147645380Y54602381D01*
X146978714Y55840477D02*
X147645380Y55840477D01*
X146597761Y55602381D02*
X147312047Y55364286D01*
X147312047Y55983334D01*
X147645380Y56364286D02*
X146645380Y56364286D01*
X147121571Y56364286D02*
X147121571Y56935715D01*
X147645380Y56935715D02*
X146645380Y56935715D01*
X147550142Y57983334D02*
X147597761Y57935715D01*
X147645380Y57792858D01*
X147645380Y57697620D01*
X147597761Y57554762D01*
X147502523Y57459524D01*
X147407285Y57411905D01*
X147216809Y57364286D01*
X147073952Y57364286D01*
X146883476Y57411905D01*
X146788238Y57459524D01*
X146693000Y57554762D01*
X146645380Y57697620D01*
X146645380Y57792858D01*
X146693000Y57935715D01*
X146740619Y57983334D01*
X146645380Y58602381D02*
X146645380Y58697620D01*
X146693000Y58792858D01*
X146740619Y58840477D01*
X146835857Y58888096D01*
X147026333Y58935715D01*
X147264428Y58935715D01*
X147454904Y58888096D01*
X147550142Y58840477D01*
X147597761Y58792858D01*
X147645380Y58697620D01*
X147645380Y58602381D01*
X147597761Y58507143D01*
X147550142Y58459524D01*
X147454904Y58411905D01*
X147264428Y58364286D01*
X147026333Y58364286D01*
X146835857Y58411905D01*
X146740619Y58459524D01*
X146693000Y58507143D01*
X146645380Y58602381D01*
X146645380Y59554762D02*
X146645380Y59650000D01*
X146693000Y59745239D01*
X146740619Y59792858D01*
X146835857Y59840477D01*
X147026333Y59888096D01*
X147264428Y59888096D01*
X147454904Y59840477D01*
X147550142Y59792858D01*
X147597761Y59745239D01*
X147645380Y59650000D01*
X147645380Y59554762D01*
X147597761Y59459524D01*
X147550142Y59411905D01*
X147454904Y59364286D01*
X147264428Y59316667D01*
X147026333Y59316667D01*
X146835857Y59364286D01*
X146740619Y59411905D01*
X146693000Y59459524D01*
X146645380Y59554762D01*
X161067904Y65063620D02*
X161067904Y64254096D01*
X161115523Y64158858D01*
X161163142Y64111239D01*
X161258380Y64063620D01*
X161448857Y64063620D01*
X161544095Y64111239D01*
X161591714Y64158858D01*
X161639333Y64254096D01*
X161639333Y65063620D01*
X162639333Y64063620D02*
X162067904Y64063620D01*
X162353619Y64063620D02*
X162353619Y65063620D01*
X162258380Y64920762D01*
X162163142Y64825524D01*
X162067904Y64777905D01*
X163020285Y64968381D02*
X163067904Y65016000D01*
X163163142Y65063620D01*
X163401238Y65063620D01*
X163496476Y65016000D01*
X163544095Y64968381D01*
X163591714Y64873143D01*
X163591714Y64777905D01*
X163544095Y64635048D01*
X162972666Y64063620D01*
X163591714Y64063620D01*
X158964380Y58301286D02*
X158964380Y58967953D01*
X159964380Y58539381D01*
X159297714Y59777477D02*
X159964380Y59777477D01*
X158916761Y59539381D02*
X159631047Y59301286D01*
X159631047Y59920334D01*
X159964380Y60301286D02*
X158964380Y60301286D01*
X159440571Y60301286D02*
X159440571Y60872715D01*
X159964380Y60872715D02*
X158964380Y60872715D01*
X159869142Y61920334D02*
X159916761Y61872715D01*
X159964380Y61729858D01*
X159964380Y61634620D01*
X159916761Y61491762D01*
X159821523Y61396524D01*
X159726285Y61348905D01*
X159535809Y61301286D01*
X159392952Y61301286D01*
X159202476Y61348905D01*
X159107238Y61396524D01*
X159012000Y61491762D01*
X158964380Y61634620D01*
X158964380Y61729858D01*
X159012000Y61872715D01*
X159059619Y61920334D01*
X158964380Y62539381D02*
X158964380Y62634620D01*
X159012000Y62729858D01*
X159059619Y62777477D01*
X159154857Y62825096D01*
X159345333Y62872715D01*
X159583428Y62872715D01*
X159773904Y62825096D01*
X159869142Y62777477D01*
X159916761Y62729858D01*
X159964380Y62634620D01*
X159964380Y62539381D01*
X159916761Y62444143D01*
X159869142Y62396524D01*
X159773904Y62348905D01*
X159583428Y62301286D01*
X159345333Y62301286D01*
X159154857Y62348905D01*
X159059619Y62396524D01*
X159012000Y62444143D01*
X158964380Y62539381D01*
X159059619Y63253667D02*
X159012000Y63301286D01*
X158964380Y63396524D01*
X158964380Y63634620D01*
X159012000Y63729858D01*
X159059619Y63777477D01*
X159154857Y63825096D01*
X159250095Y63825096D01*
X159392952Y63777477D01*
X159964380Y63206048D01*
X159964380Y63825096D01*
X136885904Y79668620D02*
X136885904Y78859096D01*
X136933523Y78763858D01*
X136981142Y78716239D01*
X137076380Y78668620D01*
X137266857Y78668620D01*
X137362095Y78716239D01*
X137409714Y78763858D01*
X137457333Y78859096D01*
X137457333Y79668620D01*
X138457333Y78668620D02*
X137885904Y78668620D01*
X138171619Y78668620D02*
X138171619Y79668620D01*
X138076380Y79525762D01*
X137981142Y79430524D01*
X137885904Y79382905D01*
X139409714Y78668620D02*
X138838285Y78668620D01*
X139124000Y78668620D02*
X139124000Y79668620D01*
X139028761Y79525762D01*
X138933523Y79430524D01*
X138838285Y79382905D01*
X134834380Y71001286D02*
X134834380Y71667953D01*
X135834380Y71239381D01*
X135167714Y72477477D02*
X135834380Y72477477D01*
X134786761Y72239381D02*
X135501047Y72001286D01*
X135501047Y72620334D01*
X135834380Y73001286D02*
X134834380Y73001286D01*
X135310571Y73001286D02*
X135310571Y73572715D01*
X135834380Y73572715D02*
X134834380Y73572715D01*
X135739142Y74620334D02*
X135786761Y74572715D01*
X135834380Y74429858D01*
X135834380Y74334620D01*
X135786761Y74191762D01*
X135691523Y74096524D01*
X135596285Y74048905D01*
X135405809Y74001286D01*
X135262952Y74001286D01*
X135072476Y74048905D01*
X134977238Y74096524D01*
X134882000Y74191762D01*
X134834380Y74334620D01*
X134834380Y74429858D01*
X134882000Y74572715D01*
X134929619Y74620334D01*
X134834380Y75239381D02*
X134834380Y75334620D01*
X134882000Y75429858D01*
X134929619Y75477477D01*
X135024857Y75525096D01*
X135215333Y75572715D01*
X135453428Y75572715D01*
X135643904Y75525096D01*
X135739142Y75477477D01*
X135786761Y75429858D01*
X135834380Y75334620D01*
X135834380Y75239381D01*
X135786761Y75144143D01*
X135739142Y75096524D01*
X135643904Y75048905D01*
X135453428Y75001286D01*
X135215333Y75001286D01*
X135024857Y75048905D01*
X134929619Y75096524D01*
X134882000Y75144143D01*
X134834380Y75239381D01*
X135167714Y76429858D02*
X135834380Y76429858D01*
X134786761Y76191762D02*
X135501047Y75953667D01*
X135501047Y76572715D01*
X134524904Y66333620D02*
X134524904Y65524096D01*
X134572523Y65428858D01*
X134620142Y65381239D01*
X134715380Y65333620D01*
X134905857Y65333620D01*
X135001095Y65381239D01*
X135048714Y65428858D01*
X135096333Y65524096D01*
X135096333Y66333620D01*
X136096333Y65333620D02*
X135524904Y65333620D01*
X135810619Y65333620D02*
X135810619Y66333620D01*
X135715380Y66190762D01*
X135620142Y66095524D01*
X135524904Y66047905D01*
X136715380Y66333620D02*
X136810619Y66333620D01*
X136905857Y66286000D01*
X136953476Y66238381D01*
X137001095Y66143143D01*
X137048714Y65952667D01*
X137048714Y65714572D01*
X137001095Y65524096D01*
X136953476Y65428858D01*
X136905857Y65381239D01*
X136810619Y65333620D01*
X136715380Y65333620D01*
X136620142Y65381239D01*
X136572523Y65428858D01*
X136524904Y65524096D01*
X136477285Y65714572D01*
X136477285Y65952667D01*
X136524904Y66143143D01*
X136572523Y66238381D01*
X136620142Y66286000D01*
X136715380Y66333620D01*
X134834380Y54523096D02*
X134834380Y55189762D01*
X135834380Y54761191D01*
X135167714Y55999286D02*
X135834380Y55999286D01*
X134786761Y55761191D02*
X135501047Y55523096D01*
X135501047Y56142143D01*
X135834380Y56523096D02*
X134834380Y56523096D01*
X135310571Y56523096D02*
X135310571Y57094524D01*
X135834380Y57094524D02*
X134834380Y57094524D01*
X135739142Y58142143D02*
X135786761Y58094524D01*
X135834380Y57951667D01*
X135834380Y57856429D01*
X135786761Y57713572D01*
X135691523Y57618334D01*
X135596285Y57570715D01*
X135405809Y57523096D01*
X135262952Y57523096D01*
X135072476Y57570715D01*
X134977238Y57618334D01*
X134882000Y57713572D01*
X134834380Y57856429D01*
X134834380Y57951667D01*
X134882000Y58094524D01*
X134929619Y58142143D01*
X135834380Y59094524D02*
X135834380Y58523096D01*
X135834380Y58808810D02*
X134834380Y58808810D01*
X134977238Y58713572D01*
X135072476Y58618334D01*
X135120095Y58523096D01*
X134834380Y59427858D02*
X134834380Y60046905D01*
X135215333Y59713572D01*
X135215333Y59856429D01*
X135262952Y59951667D01*
X135310571Y59999286D01*
X135405809Y60046905D01*
X135643904Y60046905D01*
X135739142Y59999286D01*
X135786761Y59951667D01*
X135834380Y59856429D01*
X135834380Y59570715D01*
X135786761Y59475477D01*
X135739142Y59427858D01*
X135834380Y60523096D02*
X135834380Y60713572D01*
X135786761Y60808810D01*
X135739142Y60856429D01*
X135596285Y60951667D01*
X135405809Y60999286D01*
X135024857Y60999286D01*
X134929619Y60951667D01*
X134882000Y60904048D01*
X134834380Y60808810D01*
X134834380Y60618334D01*
X134882000Y60523096D01*
X134929619Y60475477D01*
X135024857Y60427858D01*
X135262952Y60427858D01*
X135358190Y60475477D01*
X135405809Y60523096D01*
X135453428Y60618334D01*
X135453428Y60808810D01*
X135405809Y60904048D01*
X135358190Y60951667D01*
X135262952Y60999286D01*
X100203095Y79668620D02*
X100203095Y78859096D01*
X100250714Y78763858D01*
X100298333Y78716239D01*
X100393571Y78668620D01*
X100584047Y78668620D01*
X100679285Y78716239D01*
X100726904Y78763858D01*
X100774523Y78859096D01*
X100774523Y79668620D01*
X101298333Y78668620D02*
X101488809Y78668620D01*
X101584047Y78716239D01*
X101631666Y78763858D01*
X101726904Y78906715D01*
X101774523Y79097191D01*
X101774523Y79478143D01*
X101726904Y79573381D01*
X101679285Y79621000D01*
X101584047Y79668620D01*
X101393571Y79668620D01*
X101298333Y79621000D01*
X101250714Y79573381D01*
X101203095Y79478143D01*
X101203095Y79240048D01*
X101250714Y79144810D01*
X101298333Y79097191D01*
X101393571Y79049572D01*
X101584047Y79049572D01*
X101679285Y79097191D01*
X101726904Y79144810D01*
X101774523Y79240048D01*
X97623380Y72144286D02*
X97623380Y72810953D01*
X98623380Y72382381D01*
X97956714Y73620477D02*
X98623380Y73620477D01*
X97575761Y73382381D02*
X98290047Y73144286D01*
X98290047Y73763334D01*
X98623380Y74144286D02*
X97623380Y74144286D01*
X98099571Y74144286D02*
X98099571Y74715715D01*
X98623380Y74715715D02*
X97623380Y74715715D01*
X98528142Y75763334D02*
X98575761Y75715715D01*
X98623380Y75572858D01*
X98623380Y75477620D01*
X98575761Y75334762D01*
X98480523Y75239524D01*
X98385285Y75191905D01*
X98194809Y75144286D01*
X98051952Y75144286D01*
X97861476Y75191905D01*
X97766238Y75239524D01*
X97671000Y75334762D01*
X97623380Y75477620D01*
X97623380Y75572858D01*
X97671000Y75715715D01*
X97718619Y75763334D01*
X97623380Y76096667D02*
X97623380Y76763334D01*
X98623380Y76334762D01*
X97956714Y77572858D02*
X98623380Y77572858D01*
X97575761Y77334762D02*
X98290047Y77096667D01*
X98290047Y77715715D01*
X99695095Y68873620D02*
X99695095Y68064096D01*
X99742714Y67968858D01*
X99790333Y67921239D01*
X99885571Y67873620D01*
X100076047Y67873620D01*
X100171285Y67921239D01*
X100218904Y67968858D01*
X100266523Y68064096D01*
X100266523Y68873620D01*
X100885571Y68445048D02*
X100790333Y68492667D01*
X100742714Y68540286D01*
X100695095Y68635524D01*
X100695095Y68683143D01*
X100742714Y68778381D01*
X100790333Y68826000D01*
X100885571Y68873620D01*
X101076047Y68873620D01*
X101171285Y68826000D01*
X101218904Y68778381D01*
X101266523Y68683143D01*
X101266523Y68635524D01*
X101218904Y68540286D01*
X101171285Y68492667D01*
X101076047Y68445048D01*
X100885571Y68445048D01*
X100790333Y68397429D01*
X100742714Y68349810D01*
X100695095Y68254572D01*
X100695095Y68064096D01*
X100742714Y67968858D01*
X100790333Y67921239D01*
X100885571Y67873620D01*
X101076047Y67873620D01*
X101171285Y67921239D01*
X101218904Y67968858D01*
X101266523Y68064096D01*
X101266523Y68254572D01*
X101218904Y68349810D01*
X101171285Y68397429D01*
X101076047Y68445048D01*
X108926380Y55031096D02*
X108926380Y55697762D01*
X109926380Y55269191D01*
X109259714Y56507286D02*
X109926380Y56507286D01*
X108878761Y56269191D02*
X109593047Y56031096D01*
X109593047Y56650143D01*
X109926380Y57031096D02*
X108926380Y57031096D01*
X109402571Y57031096D02*
X109402571Y57602524D01*
X109926380Y57602524D02*
X108926380Y57602524D01*
X109831142Y58650143D02*
X109878761Y58602524D01*
X109926380Y58459667D01*
X109926380Y58364429D01*
X109878761Y58221572D01*
X109783523Y58126334D01*
X109688285Y58078715D01*
X109497809Y58031096D01*
X109354952Y58031096D01*
X109164476Y58078715D01*
X109069238Y58126334D01*
X108974000Y58221572D01*
X108926380Y58364429D01*
X108926380Y58459667D01*
X108974000Y58602524D01*
X109021619Y58650143D01*
X109021619Y59031096D02*
X108974000Y59078715D01*
X108926380Y59173953D01*
X108926380Y59412048D01*
X108974000Y59507286D01*
X109021619Y59554905D01*
X109116857Y59602524D01*
X109212095Y59602524D01*
X109354952Y59554905D01*
X109926380Y58983477D01*
X109926380Y59602524D01*
X109259714Y60459667D02*
X109926380Y60459667D01*
X108878761Y60221572D02*
X109593047Y59983477D01*
X109593047Y60602524D01*
X109259714Y61412048D02*
X109926380Y61412048D01*
X108878761Y61173953D02*
X109593047Y60935858D01*
X109593047Y61554905D01*
X125095095Y66333620D02*
X125095095Y65524096D01*
X125142714Y65428858D01*
X125190333Y65381239D01*
X125285571Y65333620D01*
X125476047Y65333620D01*
X125571285Y65381239D01*
X125618904Y65428858D01*
X125666523Y65524096D01*
X125666523Y66333620D01*
X126047476Y66333620D02*
X126714142Y66333620D01*
X126285571Y65333620D01*
X113792095Y66333620D02*
X113792095Y65524096D01*
X113839714Y65428858D01*
X113887333Y65381239D01*
X113982571Y65333620D01*
X114173047Y65333620D01*
X114268285Y65381239D01*
X114315904Y65428858D01*
X114363523Y65524096D01*
X114363523Y66333620D01*
X115268285Y66333620D02*
X115077809Y66333620D01*
X114982571Y66286000D01*
X114934952Y66238381D01*
X114839714Y66095524D01*
X114792095Y65905048D01*
X114792095Y65524096D01*
X114839714Y65428858D01*
X114887333Y65381239D01*
X114982571Y65333620D01*
X115173047Y65333620D01*
X115268285Y65381239D01*
X115315904Y65428858D01*
X115363523Y65524096D01*
X115363523Y65762191D01*
X115315904Y65857429D01*
X115268285Y65905048D01*
X115173047Y65952667D01*
X114982571Y65952667D01*
X114887333Y65905048D01*
X114839714Y65857429D01*
X114792095Y65762191D01*
X122388380Y55348762D02*
X122388380Y56015429D01*
X123388380Y55586858D01*
X122721714Y56824953D02*
X123388380Y56824953D01*
X122340761Y56586858D02*
X123055047Y56348762D01*
X123055047Y56967810D01*
X123293142Y57920191D02*
X123340761Y57872572D01*
X123388380Y57729715D01*
X123388380Y57634477D01*
X123340761Y57491620D01*
X123245523Y57396381D01*
X123150285Y57348762D01*
X122959809Y57301143D01*
X122816952Y57301143D01*
X122626476Y57348762D01*
X122531238Y57396381D01*
X122436000Y57491620D01*
X122388380Y57634477D01*
X122388380Y57729715D01*
X122436000Y57872572D01*
X122483619Y57920191D01*
X122864571Y58682096D02*
X122912190Y58824953D01*
X122959809Y58872572D01*
X123055047Y58920191D01*
X123197904Y58920191D01*
X123293142Y58872572D01*
X123340761Y58824953D01*
X123388380Y58729715D01*
X123388380Y58348762D01*
X122388380Y58348762D01*
X122388380Y58682096D01*
X122436000Y58777334D01*
X122483619Y58824953D01*
X122578857Y58872572D01*
X122674095Y58872572D01*
X122769333Y58824953D01*
X122816952Y58777334D01*
X122864571Y58682096D01*
X122864571Y58348762D01*
X122388380Y59205905D02*
X122388380Y59777334D01*
X123388380Y59491620D02*
X122388380Y59491620D01*
X122388380Y60015429D02*
X122388380Y60634477D01*
X122769333Y60301143D01*
X122769333Y60444000D01*
X122816952Y60539239D01*
X122864571Y60586858D01*
X122959809Y60634477D01*
X123197904Y60634477D01*
X123293142Y60586858D01*
X123340761Y60539239D01*
X123388380Y60444000D01*
X123388380Y60158286D01*
X123340761Y60063048D01*
X123293142Y60015429D01*
X122483619Y61015429D02*
X122436000Y61063048D01*
X122388380Y61158286D01*
X122388380Y61396381D01*
X122436000Y61491620D01*
X122483619Y61539239D01*
X122578857Y61586858D01*
X122674095Y61586858D01*
X122816952Y61539239D01*
X123388380Y60967810D01*
X123388380Y61586858D01*
X122388380Y62491620D02*
X122388380Y62015429D01*
X122864571Y61967810D01*
X122816952Y62015429D01*
X122769333Y62110667D01*
X122769333Y62348762D01*
X122816952Y62444000D01*
X122864571Y62491620D01*
X122959809Y62539239D01*
X123197904Y62539239D01*
X123293142Y62491620D01*
X123340761Y62444000D01*
X123388380Y62348762D01*
X123388380Y62110667D01*
X123340761Y62015429D01*
X123293142Y61967810D01*
X122388380Y62872572D02*
X122388380Y63539239D01*
X123388380Y63110667D01*
X123293142Y64491620D02*
X123340761Y64444000D01*
X123388380Y64301143D01*
X123388380Y64205905D01*
X123340761Y64063048D01*
X123245523Y63967810D01*
X123150285Y63920191D01*
X122959809Y63872572D01*
X122816952Y63872572D01*
X122626476Y63920191D01*
X122531238Y63967810D01*
X122436000Y64063048D01*
X122388380Y64205905D01*
X122388380Y64301143D01*
X122436000Y64444000D01*
X122483619Y64491620D01*
X15390952Y20216858D02*
X15343333Y20169239D01*
X15200476Y20121620D01*
X15105238Y20121620D01*
X14962380Y20169239D01*
X14867142Y20264477D01*
X14819523Y20359715D01*
X14771904Y20550191D01*
X14771904Y20693048D01*
X14819523Y20883524D01*
X14867142Y20978762D01*
X14962380Y21074000D01*
X15105238Y21121620D01*
X15200476Y21121620D01*
X15343333Y21074000D01*
X15390952Y21026381D01*
X16343333Y20121620D02*
X15771904Y20121620D01*
X16057619Y20121620D02*
X16057619Y21121620D01*
X15962380Y20978762D01*
X15867142Y20883524D01*
X15771904Y20835905D01*
X16962380Y21121620D02*
X17057619Y21121620D01*
X17152857Y21074000D01*
X17200476Y21026381D01*
X17248095Y20931143D01*
X17295714Y20740667D01*
X17295714Y20502572D01*
X17248095Y20312096D01*
X17200476Y20216858D01*
X17152857Y20169239D01*
X17057619Y20121620D01*
X16962380Y20121620D01*
X16867142Y20169239D01*
X16819523Y20216858D01*
X16771904Y20312096D01*
X16724285Y20502572D01*
X16724285Y20740667D01*
X16771904Y20931143D01*
X16819523Y21026381D01*
X16867142Y21074000D01*
X16962380Y21121620D01*
X17914761Y21121620D02*
X18010000Y21121620D01*
X18105238Y21074000D01*
X18152857Y21026381D01*
X18200476Y20931143D01*
X18248095Y20740667D01*
X18248095Y20502572D01*
X18200476Y20312096D01*
X18152857Y20216858D01*
X18105238Y20169239D01*
X18010000Y20121620D01*
X17914761Y20121620D01*
X17819523Y20169239D01*
X17771904Y20216858D01*
X17724285Y20312096D01*
X17676666Y20502572D01*
X17676666Y20740667D01*
X17724285Y20931143D01*
X17771904Y21026381D01*
X17819523Y21074000D01*
X17914761Y21121620D01*
X91440095Y76366620D02*
X91440095Y75557096D01*
X91487714Y75461858D01*
X91535333Y75414239D01*
X91630571Y75366620D01*
X91821047Y75366620D01*
X91916285Y75414239D01*
X91963904Y75461858D01*
X92011523Y75557096D01*
X92011523Y76366620D01*
X92392476Y76366620D02*
X93011523Y76366620D01*
X92678190Y75985667D01*
X92821047Y75985667D01*
X92916285Y75938048D01*
X92963904Y75890429D01*
X93011523Y75795191D01*
X93011523Y75557096D01*
X92963904Y75461858D01*
X92916285Y75414239D01*
X92821047Y75366620D01*
X92535333Y75366620D01*
X92440095Y75414239D01*
X92392476Y75461858D01*
X83351666Y50451286D02*
X83351666Y50927477D01*
X83637380Y50356048D02*
X82637380Y50689381D01*
X83637380Y51022715D01*
X83161190Y51546524D02*
X83637380Y51546524D01*
X82637380Y51213191D02*
X83161190Y51546524D01*
X82637380Y51879858D01*
X83256428Y52213191D02*
X83256428Y52975096D01*
X82637380Y53356048D02*
X82637380Y53975096D01*
X83018333Y53641762D01*
X83018333Y53784620D01*
X83065952Y53879858D01*
X83113571Y53927477D01*
X83208809Y53975096D01*
X83446904Y53975096D01*
X83542142Y53927477D01*
X83589761Y53879858D01*
X83637380Y53784620D01*
X83637380Y53498905D01*
X83589761Y53403667D01*
X83542142Y53356048D01*
X83256428Y54403667D02*
X83256428Y55165572D01*
X83065952Y55784620D02*
X83018333Y55689381D01*
X82970714Y55641762D01*
X82875476Y55594143D01*
X82827857Y55594143D01*
X82732619Y55641762D01*
X82685000Y55689381D01*
X82637380Y55784620D01*
X82637380Y55975096D01*
X82685000Y56070334D01*
X82732619Y56117953D01*
X82827857Y56165572D01*
X82875476Y56165572D01*
X82970714Y56117953D01*
X83018333Y56070334D01*
X83065952Y55975096D01*
X83065952Y55784620D01*
X83113571Y55689381D01*
X83161190Y55641762D01*
X83256428Y55594143D01*
X83446904Y55594143D01*
X83542142Y55641762D01*
X83589761Y55689381D01*
X83637380Y55784620D01*
X83637380Y55975096D01*
X83589761Y56070334D01*
X83542142Y56117953D01*
X83446904Y56165572D01*
X83256428Y56165572D01*
X83161190Y56117953D01*
X83113571Y56070334D01*
X83065952Y55975096D01*
X83637380Y56641762D02*
X83637380Y56832239D01*
X83589761Y56927477D01*
X83542142Y56975096D01*
X83399285Y57070334D01*
X83208809Y57117953D01*
X82827857Y57117953D01*
X82732619Y57070334D01*
X82685000Y57022715D01*
X82637380Y56927477D01*
X82637380Y56737000D01*
X82685000Y56641762D01*
X82732619Y56594143D01*
X82827857Y56546524D01*
X83065952Y56546524D01*
X83161190Y56594143D01*
X83208809Y56641762D01*
X83256428Y56737000D01*
X83256428Y56927477D01*
X83208809Y57022715D01*
X83161190Y57070334D01*
X83065952Y57117953D01*
X83637380Y58070334D02*
X83637380Y57498905D01*
X83637380Y57784620D02*
X82637380Y57784620D01*
X82780238Y57689381D01*
X82875476Y57594143D01*
X82923095Y57498905D01*
X82637380Y58403667D02*
X82637380Y59022715D01*
X83018333Y58689381D01*
X83018333Y58832239D01*
X83065952Y58927477D01*
X83113571Y58975096D01*
X83208809Y59022715D01*
X83446904Y59022715D01*
X83542142Y58975096D01*
X83589761Y58927477D01*
X83637380Y58832239D01*
X83637380Y58546524D01*
X83589761Y58451286D01*
X83542142Y58403667D01*
X87288666Y28861286D02*
X87288666Y29337477D01*
X87574380Y28766048D02*
X86574380Y29099381D01*
X87574380Y29432715D01*
X87098190Y29956524D02*
X87574380Y29956524D01*
X86574380Y29623191D02*
X87098190Y29956524D01*
X86574380Y30289858D01*
X87193428Y30623191D02*
X87193428Y31385096D01*
X86574380Y31766048D02*
X86574380Y32385096D01*
X86955333Y32051762D01*
X86955333Y32194620D01*
X87002952Y32289858D01*
X87050571Y32337477D01*
X87145809Y32385096D01*
X87383904Y32385096D01*
X87479142Y32337477D01*
X87526761Y32289858D01*
X87574380Y32194620D01*
X87574380Y31908905D01*
X87526761Y31813667D01*
X87479142Y31766048D01*
X87193428Y32813667D02*
X87193428Y33575572D01*
X87002952Y34194620D02*
X86955333Y34099381D01*
X86907714Y34051762D01*
X86812476Y34004143D01*
X86764857Y34004143D01*
X86669619Y34051762D01*
X86622000Y34099381D01*
X86574380Y34194620D01*
X86574380Y34385096D01*
X86622000Y34480334D01*
X86669619Y34527953D01*
X86764857Y34575572D01*
X86812476Y34575572D01*
X86907714Y34527953D01*
X86955333Y34480334D01*
X87002952Y34385096D01*
X87002952Y34194620D01*
X87050571Y34099381D01*
X87098190Y34051762D01*
X87193428Y34004143D01*
X87383904Y34004143D01*
X87479142Y34051762D01*
X87526761Y34099381D01*
X87574380Y34194620D01*
X87574380Y34385096D01*
X87526761Y34480334D01*
X87479142Y34527953D01*
X87383904Y34575572D01*
X87193428Y34575572D01*
X87098190Y34527953D01*
X87050571Y34480334D01*
X87002952Y34385096D01*
X87574380Y35051762D02*
X87574380Y35242239D01*
X87526761Y35337477D01*
X87479142Y35385096D01*
X87336285Y35480334D01*
X87145809Y35527953D01*
X86764857Y35527953D01*
X86669619Y35480334D01*
X86622000Y35432715D01*
X86574380Y35337477D01*
X86574380Y35147000D01*
X86622000Y35051762D01*
X86669619Y35004143D01*
X86764857Y34956524D01*
X87002952Y34956524D01*
X87098190Y35004143D01*
X87145809Y35051762D01*
X87193428Y35147000D01*
X87193428Y35337477D01*
X87145809Y35432715D01*
X87098190Y35480334D01*
X87002952Y35527953D01*
X87574380Y36480334D02*
X87574380Y35908905D01*
X87574380Y36194620D02*
X86574380Y36194620D01*
X86717238Y36099381D01*
X86812476Y36004143D01*
X86860095Y35908905D01*
X86574380Y37099381D02*
X86574380Y37194620D01*
X86622000Y37289858D01*
X86669619Y37337477D01*
X86764857Y37385096D01*
X86955333Y37432715D01*
X87193428Y37432715D01*
X87383904Y37385096D01*
X87479142Y37337477D01*
X87526761Y37289858D01*
X87574380Y37194620D01*
X87574380Y37099381D01*
X87526761Y37004143D01*
X87479142Y36956524D01*
X87383904Y36908905D01*
X87193428Y36861286D01*
X86955333Y36861286D01*
X86764857Y36908905D01*
X86669619Y36956524D01*
X86622000Y37004143D01*
X86574380Y37099381D01*
X63373095Y76366620D02*
X63373095Y75557096D01*
X63420714Y75461858D01*
X63468333Y75414239D01*
X63563571Y75366620D01*
X63754047Y75366620D01*
X63849285Y75414239D01*
X63896904Y75461858D01*
X63944523Y75557096D01*
X63944523Y76366620D01*
X64373095Y76271381D02*
X64420714Y76319000D01*
X64515952Y76366620D01*
X64754047Y76366620D01*
X64849285Y76319000D01*
X64896904Y76271381D01*
X64944523Y76176143D01*
X64944523Y76080905D01*
X64896904Y75938048D01*
X64325476Y75366620D01*
X64944523Y75366620D01*
X56681666Y50451286D02*
X56681666Y50927477D01*
X56967380Y50356048D02*
X55967380Y50689381D01*
X56967380Y51022715D01*
X56491190Y51546524D02*
X56967380Y51546524D01*
X55967380Y51213191D02*
X56491190Y51546524D01*
X55967380Y51879858D01*
X56586428Y52213191D02*
X56586428Y52975096D01*
X55967380Y53356048D02*
X55967380Y53975096D01*
X56348333Y53641762D01*
X56348333Y53784620D01*
X56395952Y53879858D01*
X56443571Y53927477D01*
X56538809Y53975096D01*
X56776904Y53975096D01*
X56872142Y53927477D01*
X56919761Y53879858D01*
X56967380Y53784620D01*
X56967380Y53498905D01*
X56919761Y53403667D01*
X56872142Y53356048D01*
X56586428Y54403667D02*
X56586428Y55165572D01*
X56395952Y55784620D02*
X56348333Y55689381D01*
X56300714Y55641762D01*
X56205476Y55594143D01*
X56157857Y55594143D01*
X56062619Y55641762D01*
X56015000Y55689381D01*
X55967380Y55784620D01*
X55967380Y55975096D01*
X56015000Y56070334D01*
X56062619Y56117953D01*
X56157857Y56165572D01*
X56205476Y56165572D01*
X56300714Y56117953D01*
X56348333Y56070334D01*
X56395952Y55975096D01*
X56395952Y55784620D01*
X56443571Y55689381D01*
X56491190Y55641762D01*
X56586428Y55594143D01*
X56776904Y55594143D01*
X56872142Y55641762D01*
X56919761Y55689381D01*
X56967380Y55784620D01*
X56967380Y55975096D01*
X56919761Y56070334D01*
X56872142Y56117953D01*
X56776904Y56165572D01*
X56586428Y56165572D01*
X56491190Y56117953D01*
X56443571Y56070334D01*
X56395952Y55975096D01*
X56967380Y56641762D02*
X56967380Y56832239D01*
X56919761Y56927477D01*
X56872142Y56975096D01*
X56729285Y57070334D01*
X56538809Y57117953D01*
X56157857Y57117953D01*
X56062619Y57070334D01*
X56015000Y57022715D01*
X55967380Y56927477D01*
X55967380Y56737000D01*
X56015000Y56641762D01*
X56062619Y56594143D01*
X56157857Y56546524D01*
X56395952Y56546524D01*
X56491190Y56594143D01*
X56538809Y56641762D01*
X56586428Y56737000D01*
X56586428Y56927477D01*
X56538809Y57022715D01*
X56491190Y57070334D01*
X56395952Y57117953D01*
X56967380Y58070334D02*
X56967380Y57498905D01*
X56967380Y57784620D02*
X55967380Y57784620D01*
X56110238Y57689381D01*
X56205476Y57594143D01*
X56253095Y57498905D01*
X55967380Y58403667D02*
X55967380Y59022715D01*
X56348333Y58689381D01*
X56348333Y58832239D01*
X56395952Y58927477D01*
X56443571Y58975096D01*
X56538809Y59022715D01*
X56776904Y59022715D01*
X56872142Y58975096D01*
X56919761Y58927477D01*
X56967380Y58832239D01*
X56967380Y58546524D01*
X56919761Y58451286D01*
X56872142Y58403667D01*
X61126666Y28861286D02*
X61126666Y29337477D01*
X61412380Y28766048D02*
X60412380Y29099381D01*
X61412380Y29432715D01*
X60936190Y29956524D02*
X61412380Y29956524D01*
X60412380Y29623191D02*
X60936190Y29956524D01*
X60412380Y30289858D01*
X61031428Y30623191D02*
X61031428Y31385096D01*
X60412380Y31766048D02*
X60412380Y32385096D01*
X60793333Y32051762D01*
X60793333Y32194620D01*
X60840952Y32289858D01*
X60888571Y32337477D01*
X60983809Y32385096D01*
X61221904Y32385096D01*
X61317142Y32337477D01*
X61364761Y32289858D01*
X61412380Y32194620D01*
X61412380Y31908905D01*
X61364761Y31813667D01*
X61317142Y31766048D01*
X61031428Y32813667D02*
X61031428Y33575572D01*
X60840952Y34194620D02*
X60793333Y34099381D01*
X60745714Y34051762D01*
X60650476Y34004143D01*
X60602857Y34004143D01*
X60507619Y34051762D01*
X60460000Y34099381D01*
X60412380Y34194620D01*
X60412380Y34385096D01*
X60460000Y34480334D01*
X60507619Y34527953D01*
X60602857Y34575572D01*
X60650476Y34575572D01*
X60745714Y34527953D01*
X60793333Y34480334D01*
X60840952Y34385096D01*
X60840952Y34194620D01*
X60888571Y34099381D01*
X60936190Y34051762D01*
X61031428Y34004143D01*
X61221904Y34004143D01*
X61317142Y34051762D01*
X61364761Y34099381D01*
X61412380Y34194620D01*
X61412380Y34385096D01*
X61364761Y34480334D01*
X61317142Y34527953D01*
X61221904Y34575572D01*
X61031428Y34575572D01*
X60936190Y34527953D01*
X60888571Y34480334D01*
X60840952Y34385096D01*
X61412380Y35051762D02*
X61412380Y35242239D01*
X61364761Y35337477D01*
X61317142Y35385096D01*
X61174285Y35480334D01*
X60983809Y35527953D01*
X60602857Y35527953D01*
X60507619Y35480334D01*
X60460000Y35432715D01*
X60412380Y35337477D01*
X60412380Y35147000D01*
X60460000Y35051762D01*
X60507619Y35004143D01*
X60602857Y34956524D01*
X60840952Y34956524D01*
X60936190Y35004143D01*
X60983809Y35051762D01*
X61031428Y35147000D01*
X61031428Y35337477D01*
X60983809Y35432715D01*
X60936190Y35480334D01*
X60840952Y35527953D01*
X61412380Y36480334D02*
X61412380Y35908905D01*
X61412380Y36194620D02*
X60412380Y36194620D01*
X60555238Y36099381D01*
X60650476Y36004143D01*
X60698095Y35908905D01*
X60412380Y37099381D02*
X60412380Y37194620D01*
X60460000Y37289858D01*
X60507619Y37337477D01*
X60602857Y37385096D01*
X60793333Y37432715D01*
X61031428Y37432715D01*
X61221904Y37385096D01*
X61317142Y37337477D01*
X61364761Y37289858D01*
X61412380Y37194620D01*
X61412380Y37099381D01*
X61364761Y37004143D01*
X61317142Y36956524D01*
X61221904Y36908905D01*
X61031428Y36861286D01*
X60793333Y36861286D01*
X60602857Y36908905D01*
X60507619Y36956524D01*
X60460000Y37004143D01*
X60412380Y37099381D01*
X36703095Y76874620D02*
X36703095Y76065096D01*
X36750714Y75969858D01*
X36798333Y75922239D01*
X36893571Y75874620D01*
X37084047Y75874620D01*
X37179285Y75922239D01*
X37226904Y75969858D01*
X37274523Y76065096D01*
X37274523Y76874620D01*
X38274523Y75874620D02*
X37703095Y75874620D01*
X37988809Y75874620D02*
X37988809Y76874620D01*
X37893571Y76731762D01*
X37798333Y76636524D01*
X37703095Y76588905D01*
X30011666Y51086286D02*
X30011666Y51562477D01*
X30297380Y50991048D02*
X29297380Y51324381D01*
X30297380Y51657715D01*
X29821190Y52181524D02*
X30297380Y52181524D01*
X29297380Y51848191D02*
X29821190Y52181524D01*
X29297380Y52514858D01*
X29916428Y52848191D02*
X29916428Y53610096D01*
X29297380Y53991048D02*
X29297380Y54610096D01*
X29678333Y54276762D01*
X29678333Y54419620D01*
X29725952Y54514858D01*
X29773571Y54562477D01*
X29868809Y54610096D01*
X30106904Y54610096D01*
X30202142Y54562477D01*
X30249761Y54514858D01*
X30297380Y54419620D01*
X30297380Y54133905D01*
X30249761Y54038667D01*
X30202142Y53991048D01*
X29916428Y55038667D02*
X29916428Y55800572D01*
X29725952Y56419620D02*
X29678333Y56324381D01*
X29630714Y56276762D01*
X29535476Y56229143D01*
X29487857Y56229143D01*
X29392619Y56276762D01*
X29345000Y56324381D01*
X29297380Y56419620D01*
X29297380Y56610096D01*
X29345000Y56705334D01*
X29392619Y56752953D01*
X29487857Y56800572D01*
X29535476Y56800572D01*
X29630714Y56752953D01*
X29678333Y56705334D01*
X29725952Y56610096D01*
X29725952Y56419620D01*
X29773571Y56324381D01*
X29821190Y56276762D01*
X29916428Y56229143D01*
X30106904Y56229143D01*
X30202142Y56276762D01*
X30249761Y56324381D01*
X30297380Y56419620D01*
X30297380Y56610096D01*
X30249761Y56705334D01*
X30202142Y56752953D01*
X30106904Y56800572D01*
X29916428Y56800572D01*
X29821190Y56752953D01*
X29773571Y56705334D01*
X29725952Y56610096D01*
X30297380Y57276762D02*
X30297380Y57467239D01*
X30249761Y57562477D01*
X30202142Y57610096D01*
X30059285Y57705334D01*
X29868809Y57752953D01*
X29487857Y57752953D01*
X29392619Y57705334D01*
X29345000Y57657715D01*
X29297380Y57562477D01*
X29297380Y57372000D01*
X29345000Y57276762D01*
X29392619Y57229143D01*
X29487857Y57181524D01*
X29725952Y57181524D01*
X29821190Y57229143D01*
X29868809Y57276762D01*
X29916428Y57372000D01*
X29916428Y57562477D01*
X29868809Y57657715D01*
X29821190Y57705334D01*
X29725952Y57752953D01*
X30297380Y58705334D02*
X30297380Y58133905D01*
X30297380Y58419620D02*
X29297380Y58419620D01*
X29440238Y58324381D01*
X29535476Y58229143D01*
X29583095Y58133905D01*
X29297380Y59038667D02*
X29297380Y59657715D01*
X29678333Y59324381D01*
X29678333Y59467239D01*
X29725952Y59562477D01*
X29773571Y59610096D01*
X29868809Y59657715D01*
X30106904Y59657715D01*
X30202142Y59610096D01*
X30249761Y59562477D01*
X30297380Y59467239D01*
X30297380Y59181524D01*
X30249761Y59086286D01*
X30202142Y59038667D01*
X34456666Y28861286D02*
X34456666Y29337477D01*
X34742380Y28766048D02*
X33742380Y29099381D01*
X34742380Y29432715D01*
X34266190Y29956524D02*
X34742380Y29956524D01*
X33742380Y29623191D02*
X34266190Y29956524D01*
X33742380Y30289858D01*
X34361428Y30623191D02*
X34361428Y31385096D01*
X33742380Y31766048D02*
X33742380Y32385096D01*
X34123333Y32051762D01*
X34123333Y32194620D01*
X34170952Y32289858D01*
X34218571Y32337477D01*
X34313809Y32385096D01*
X34551904Y32385096D01*
X34647142Y32337477D01*
X34694761Y32289858D01*
X34742380Y32194620D01*
X34742380Y31908905D01*
X34694761Y31813667D01*
X34647142Y31766048D01*
X34361428Y32813667D02*
X34361428Y33575572D01*
X34170952Y34194620D02*
X34123333Y34099381D01*
X34075714Y34051762D01*
X33980476Y34004143D01*
X33932857Y34004143D01*
X33837619Y34051762D01*
X33790000Y34099381D01*
X33742380Y34194620D01*
X33742380Y34385096D01*
X33790000Y34480334D01*
X33837619Y34527953D01*
X33932857Y34575572D01*
X33980476Y34575572D01*
X34075714Y34527953D01*
X34123333Y34480334D01*
X34170952Y34385096D01*
X34170952Y34194620D01*
X34218571Y34099381D01*
X34266190Y34051762D01*
X34361428Y34004143D01*
X34551904Y34004143D01*
X34647142Y34051762D01*
X34694761Y34099381D01*
X34742380Y34194620D01*
X34742380Y34385096D01*
X34694761Y34480334D01*
X34647142Y34527953D01*
X34551904Y34575572D01*
X34361428Y34575572D01*
X34266190Y34527953D01*
X34218571Y34480334D01*
X34170952Y34385096D01*
X34742380Y35051762D02*
X34742380Y35242239D01*
X34694761Y35337477D01*
X34647142Y35385096D01*
X34504285Y35480334D01*
X34313809Y35527953D01*
X33932857Y35527953D01*
X33837619Y35480334D01*
X33790000Y35432715D01*
X33742380Y35337477D01*
X33742380Y35147000D01*
X33790000Y35051762D01*
X33837619Y35004143D01*
X33932857Y34956524D01*
X34170952Y34956524D01*
X34266190Y35004143D01*
X34313809Y35051762D01*
X34361428Y35147000D01*
X34361428Y35337477D01*
X34313809Y35432715D01*
X34266190Y35480334D01*
X34170952Y35527953D01*
X34742380Y36480334D02*
X34742380Y35908905D01*
X34742380Y36194620D02*
X33742380Y36194620D01*
X33885238Y36099381D01*
X33980476Y36004143D01*
X34028095Y35908905D01*
X33742380Y37099381D02*
X33742380Y37194620D01*
X33790000Y37289858D01*
X33837619Y37337477D01*
X33932857Y37385096D01*
X34123333Y37432715D01*
X34361428Y37432715D01*
X34551904Y37385096D01*
X34647142Y37337477D01*
X34694761Y37289858D01*
X34742380Y37194620D01*
X34742380Y37099381D01*
X34694761Y37004143D01*
X34647142Y36956524D01*
X34551904Y36908905D01*
X34361428Y36861286D01*
X34123333Y36861286D01*
X33932857Y36908905D01*
X33837619Y36956524D01*
X33790000Y37004143D01*
X33742380Y37099381D01*
X99131380Y80256143D02*
X98655190Y79922810D01*
X99131380Y79684715D02*
X98131380Y79684715D01*
X98131380Y80065667D01*
X98179000Y80160905D01*
X98226619Y80208524D01*
X98321857Y80256143D01*
X98464714Y80256143D01*
X98559952Y80208524D01*
X98607571Y80160905D01*
X98655190Y80065667D01*
X98655190Y79684715D01*
X98131380Y80589477D02*
X98131380Y81208524D01*
X98512333Y80875191D01*
X98512333Y81018048D01*
X98559952Y81113286D01*
X98607571Y81160905D01*
X98702809Y81208524D01*
X98940904Y81208524D01*
X99036142Y81160905D01*
X99083761Y81113286D01*
X99131380Y81018048D01*
X99131380Y80732334D01*
X99083761Y80637096D01*
X99036142Y80589477D01*
X98226619Y81589477D02*
X98179000Y81637096D01*
X98131380Y81732334D01*
X98131380Y81970429D01*
X98179000Y82065667D01*
X98226619Y82113286D01*
X98321857Y82160905D01*
X98417095Y82160905D01*
X98559952Y82113286D01*
X99131380Y81541858D01*
X99131380Y82160905D01*
X91130380Y80383143D02*
X90654190Y80049810D01*
X91130380Y79811715D02*
X90130380Y79811715D01*
X90130380Y80192667D01*
X90178000Y80287905D01*
X90225619Y80335524D01*
X90320857Y80383143D01*
X90463714Y80383143D01*
X90558952Y80335524D01*
X90606571Y80287905D01*
X90654190Y80192667D01*
X90654190Y79811715D01*
X90130380Y80716477D02*
X90130380Y81335524D01*
X90511333Y81002191D01*
X90511333Y81145048D01*
X90558952Y81240286D01*
X90606571Y81287905D01*
X90701809Y81335524D01*
X90939904Y81335524D01*
X91035142Y81287905D01*
X91082761Y81240286D01*
X91130380Y81145048D01*
X91130380Y80859334D01*
X91082761Y80764096D01*
X91035142Y80716477D01*
X91130380Y82287905D02*
X91130380Y81716477D01*
X91130380Y82002191D02*
X90130380Y82002191D01*
X90273238Y81906953D01*
X90368476Y81811715D01*
X90416095Y81716477D01*
X17827380Y32504143D02*
X17351190Y32170810D01*
X17827380Y31932715D02*
X16827380Y31932715D01*
X16827380Y32313667D01*
X16875000Y32408905D01*
X16922619Y32456524D01*
X17017857Y32504143D01*
X17160714Y32504143D01*
X17255952Y32456524D01*
X17303571Y32408905D01*
X17351190Y32313667D01*
X17351190Y31932715D01*
X16922619Y32885096D02*
X16875000Y32932715D01*
X16827380Y33027953D01*
X16827380Y33266048D01*
X16875000Y33361286D01*
X16922619Y33408905D01*
X17017857Y33456524D01*
X17113095Y33456524D01*
X17255952Y33408905D01*
X17827380Y32837477D01*
X17827380Y33456524D01*
X17160714Y34313667D02*
X17827380Y34313667D01*
X16779761Y34075572D02*
X17494047Y33837477D01*
X17494047Y34456524D01*
X76192142Y79684620D02*
X75858809Y80160810D01*
X75620714Y79684620D02*
X75620714Y80684620D01*
X76001666Y80684620D01*
X76096904Y80637000D01*
X76144523Y80589381D01*
X76192142Y80494143D01*
X76192142Y80351286D01*
X76144523Y80256048D01*
X76096904Y80208429D01*
X76001666Y80160810D01*
X75620714Y80160810D01*
X76573095Y80589381D02*
X76620714Y80637000D01*
X76715952Y80684620D01*
X76954047Y80684620D01*
X77049285Y80637000D01*
X77096904Y80589381D01*
X77144523Y80494143D01*
X77144523Y80398905D01*
X77096904Y80256048D01*
X76525476Y79684620D01*
X77144523Y79684620D01*
X77477857Y80684620D02*
X78096904Y80684620D01*
X77763571Y80303667D01*
X77906428Y80303667D01*
X78001666Y80256048D01*
X78049285Y80208429D01*
X78096904Y80113191D01*
X78096904Y79875096D01*
X78049285Y79779858D01*
X78001666Y79732239D01*
X77906428Y79684620D01*
X77620714Y79684620D01*
X77525476Y79732239D01*
X77477857Y79779858D01*
X49522142Y80089620D02*
X49188809Y80565810D01*
X48950714Y80089620D02*
X48950714Y81089620D01*
X49331666Y81089620D01*
X49426904Y81042000D01*
X49474523Y80994381D01*
X49522142Y80899143D01*
X49522142Y80756286D01*
X49474523Y80661048D01*
X49426904Y80613429D01*
X49331666Y80565810D01*
X48950714Y80565810D01*
X49903095Y80994381D02*
X49950714Y81042000D01*
X50045952Y81089620D01*
X50284047Y81089620D01*
X50379285Y81042000D01*
X50426904Y80994381D01*
X50474523Y80899143D01*
X50474523Y80803905D01*
X50426904Y80661048D01*
X49855476Y80089620D01*
X50474523Y80089620D01*
X50855476Y80994381D02*
X50903095Y81042000D01*
X50998333Y81089620D01*
X51236428Y81089620D01*
X51331666Y81042000D01*
X51379285Y80994381D01*
X51426904Y80899143D01*
X51426904Y80803905D01*
X51379285Y80661048D01*
X50807857Y80089620D01*
X51426904Y80089620D01*
X26027142Y80089620D02*
X25693809Y80565810D01*
X25455714Y80089620D02*
X25455714Y81089620D01*
X25836666Y81089620D01*
X25931904Y81042000D01*
X25979523Y80994381D01*
X26027142Y80899143D01*
X26027142Y80756286D01*
X25979523Y80661048D01*
X25931904Y80613429D01*
X25836666Y80565810D01*
X25455714Y80565810D01*
X26408095Y80994381D02*
X26455714Y81042000D01*
X26550952Y81089620D01*
X26789047Y81089620D01*
X26884285Y81042000D01*
X26931904Y80994381D01*
X26979523Y80899143D01*
X26979523Y80803905D01*
X26931904Y80661048D01*
X26360476Y80089620D01*
X26979523Y80089620D01*
X27931904Y80089620D02*
X27360476Y80089620D01*
X27646190Y80089620D02*
X27646190Y81089620D01*
X27550952Y80946762D01*
X27455714Y80851524D01*
X27360476Y80803905D01*
X71112142Y64039620D02*
X70778809Y64515810D01*
X70540714Y64039620D02*
X70540714Y65039620D01*
X70921666Y65039620D01*
X71016904Y64992000D01*
X71064523Y64944381D01*
X71112142Y64849143D01*
X71112142Y64706286D01*
X71064523Y64611048D01*
X71016904Y64563429D01*
X70921666Y64515810D01*
X70540714Y64515810D01*
X72064523Y64039620D02*
X71493095Y64039620D01*
X71778809Y64039620D02*
X71778809Y65039620D01*
X71683571Y64896762D01*
X71588333Y64801524D01*
X71493095Y64753905D01*
X72540714Y64039620D02*
X72731190Y64039620D01*
X72826428Y64087239D01*
X72874047Y64134858D01*
X72969285Y64277715D01*
X73016904Y64468191D01*
X73016904Y64849143D01*
X72969285Y64944381D01*
X72921666Y64992000D01*
X72826428Y65039620D01*
X72635952Y65039620D01*
X72540714Y64992000D01*
X72493095Y64944381D01*
X72445476Y64849143D01*
X72445476Y64611048D01*
X72493095Y64515810D01*
X72540714Y64468191D01*
X72635952Y64420572D01*
X72826428Y64420572D01*
X72921666Y64468191D01*
X72969285Y64515810D01*
X73016904Y64611048D01*
X75176142Y73842620D02*
X74842809Y74318810D01*
X74604714Y73842620D02*
X74604714Y74842620D01*
X74985666Y74842620D01*
X75080904Y74795000D01*
X75128523Y74747381D01*
X75176142Y74652143D01*
X75176142Y74509286D01*
X75128523Y74414048D01*
X75080904Y74366429D01*
X74985666Y74318810D01*
X74604714Y74318810D01*
X76128523Y73842620D02*
X75557095Y73842620D01*
X75842809Y73842620D02*
X75842809Y74842620D01*
X75747571Y74699762D01*
X75652333Y74604524D01*
X75557095Y74556905D01*
X76699952Y74414048D02*
X76604714Y74461667D01*
X76557095Y74509286D01*
X76509476Y74604524D01*
X76509476Y74652143D01*
X76557095Y74747381D01*
X76604714Y74795000D01*
X76699952Y74842620D01*
X76890428Y74842620D01*
X76985666Y74795000D01*
X77033285Y74747381D01*
X77080904Y74652143D01*
X77080904Y74604524D01*
X77033285Y74509286D01*
X76985666Y74461667D01*
X76890428Y74414048D01*
X76699952Y74414048D01*
X76604714Y74366429D01*
X76557095Y74318810D01*
X76509476Y74223572D01*
X76509476Y74033096D01*
X76557095Y73937858D01*
X76604714Y73890239D01*
X76699952Y73842620D01*
X76890428Y73842620D01*
X76985666Y73890239D01*
X77033285Y73937858D01*
X77080904Y74033096D01*
X77080904Y74223572D01*
X77033285Y74318810D01*
X76985666Y74366429D01*
X76890428Y74414048D01*
X75176142Y70794620D02*
X74842809Y71270810D01*
X74604714Y70794620D02*
X74604714Y71794620D01*
X74985666Y71794620D01*
X75080904Y71747000D01*
X75128523Y71699381D01*
X75176142Y71604143D01*
X75176142Y71461286D01*
X75128523Y71366048D01*
X75080904Y71318429D01*
X74985666Y71270810D01*
X74604714Y71270810D01*
X76128523Y70794620D02*
X75557095Y70794620D01*
X75842809Y70794620D02*
X75842809Y71794620D01*
X75747571Y71651762D01*
X75652333Y71556524D01*
X75557095Y71508905D01*
X76461857Y71794620D02*
X77128523Y71794620D01*
X76699952Y70794620D01*
X44442142Y64039620D02*
X44108809Y64515810D01*
X43870714Y64039620D02*
X43870714Y65039620D01*
X44251666Y65039620D01*
X44346904Y64992000D01*
X44394523Y64944381D01*
X44442142Y64849143D01*
X44442142Y64706286D01*
X44394523Y64611048D01*
X44346904Y64563429D01*
X44251666Y64515810D01*
X43870714Y64515810D01*
X45394523Y64039620D02*
X44823095Y64039620D01*
X45108809Y64039620D02*
X45108809Y65039620D01*
X45013571Y64896762D01*
X44918333Y64801524D01*
X44823095Y64753905D01*
X46251666Y65039620D02*
X46061190Y65039620D01*
X45965952Y64992000D01*
X45918333Y64944381D01*
X45823095Y64801524D01*
X45775476Y64611048D01*
X45775476Y64230096D01*
X45823095Y64134858D01*
X45870714Y64087239D01*
X45965952Y64039620D01*
X46156428Y64039620D01*
X46251666Y64087239D01*
X46299285Y64134858D01*
X46346904Y64230096D01*
X46346904Y64468191D01*
X46299285Y64563429D01*
X46251666Y64611048D01*
X46156428Y64658667D01*
X45965952Y64658667D01*
X45870714Y64611048D01*
X45823095Y64563429D01*
X45775476Y64468191D01*
X48506142Y73969620D02*
X48172809Y74445810D01*
X47934714Y73969620D02*
X47934714Y74969620D01*
X48315666Y74969620D01*
X48410904Y74922000D01*
X48458523Y74874381D01*
X48506142Y74779143D01*
X48506142Y74636286D01*
X48458523Y74541048D01*
X48410904Y74493429D01*
X48315666Y74445810D01*
X47934714Y74445810D01*
X49458523Y73969620D02*
X48887095Y73969620D01*
X49172809Y73969620D02*
X49172809Y74969620D01*
X49077571Y74826762D01*
X48982333Y74731524D01*
X48887095Y74683905D01*
X50363285Y74969620D02*
X49887095Y74969620D01*
X49839476Y74493429D01*
X49887095Y74541048D01*
X49982333Y74588667D01*
X50220428Y74588667D01*
X50315666Y74541048D01*
X50363285Y74493429D01*
X50410904Y74398191D01*
X50410904Y74160096D01*
X50363285Y74064858D01*
X50315666Y74017239D01*
X50220428Y73969620D01*
X49982333Y73969620D01*
X49887095Y74017239D01*
X49839476Y74064858D01*
X48506142Y70794620D02*
X48172809Y71270810D01*
X47934714Y70794620D02*
X47934714Y71794620D01*
X48315666Y71794620D01*
X48410904Y71747000D01*
X48458523Y71699381D01*
X48506142Y71604143D01*
X48506142Y71461286D01*
X48458523Y71366048D01*
X48410904Y71318429D01*
X48315666Y71270810D01*
X47934714Y71270810D01*
X49458523Y70794620D02*
X48887095Y70794620D01*
X49172809Y70794620D02*
X49172809Y71794620D01*
X49077571Y71651762D01*
X48982333Y71556524D01*
X48887095Y71508905D01*
X50315666Y71461286D02*
X50315666Y70794620D01*
X50077571Y71842239D02*
X49839476Y71127953D01*
X50458523Y71127953D01*
X13962142Y66349620D02*
X13628809Y66825810D01*
X13390714Y66349620D02*
X13390714Y67349620D01*
X13771666Y67349620D01*
X13866904Y67302000D01*
X13914523Y67254381D01*
X13962142Y67159143D01*
X13962142Y67016286D01*
X13914523Y66921048D01*
X13866904Y66873429D01*
X13771666Y66825810D01*
X13390714Y66825810D01*
X14914523Y66349620D02*
X14343095Y66349620D01*
X14628809Y66349620D02*
X14628809Y67349620D01*
X14533571Y67206762D01*
X14438333Y67111524D01*
X14343095Y67063905D01*
X15247857Y67349620D02*
X15866904Y67349620D01*
X15533571Y66968667D01*
X15676428Y66968667D01*
X15771666Y66921048D01*
X15819285Y66873429D01*
X15866904Y66778191D01*
X15866904Y66540096D01*
X15819285Y66444858D01*
X15771666Y66397239D01*
X15676428Y66349620D01*
X15390714Y66349620D01*
X15295476Y66397239D01*
X15247857Y66444858D01*
X14089142Y72953620D02*
X13755809Y73429810D01*
X13517714Y72953620D02*
X13517714Y73953620D01*
X13898666Y73953620D01*
X13993904Y73906000D01*
X14041523Y73858381D01*
X14089142Y73763143D01*
X14089142Y73620286D01*
X14041523Y73525048D01*
X13993904Y73477429D01*
X13898666Y73429810D01*
X13517714Y73429810D01*
X15041523Y72953620D02*
X14470095Y72953620D01*
X14755809Y72953620D02*
X14755809Y73953620D01*
X14660571Y73810762D01*
X14565333Y73715524D01*
X14470095Y73667905D01*
X15422476Y73858381D02*
X15470095Y73906000D01*
X15565333Y73953620D01*
X15803428Y73953620D01*
X15898666Y73906000D01*
X15946285Y73858381D01*
X15993904Y73763143D01*
X15993904Y73667905D01*
X15946285Y73525048D01*
X15374857Y72953620D01*
X15993904Y72953620D01*
X13962142Y70159620D02*
X13628809Y70635810D01*
X13390714Y70159620D02*
X13390714Y71159620D01*
X13771666Y71159620D01*
X13866904Y71112000D01*
X13914523Y71064381D01*
X13962142Y70969143D01*
X13962142Y70826286D01*
X13914523Y70731048D01*
X13866904Y70683429D01*
X13771666Y70635810D01*
X13390714Y70635810D01*
X14914523Y70159620D02*
X14343095Y70159620D01*
X14628809Y70159620D02*
X14628809Y71159620D01*
X14533571Y71016762D01*
X14438333Y70921524D01*
X14343095Y70873905D01*
X15866904Y70159620D02*
X15295476Y70159620D01*
X15581190Y70159620D02*
X15581190Y71159620D01*
X15485952Y71016762D01*
X15390714Y70921524D01*
X15295476Y70873905D01*
X160647142Y50982620D02*
X160313809Y51458810D01*
X160075714Y50982620D02*
X160075714Y51982620D01*
X160456666Y51982620D01*
X160551904Y51935000D01*
X160599523Y51887381D01*
X160647142Y51792143D01*
X160647142Y51649286D01*
X160599523Y51554048D01*
X160551904Y51506429D01*
X160456666Y51458810D01*
X160075714Y51458810D01*
X161599523Y50982620D02*
X161028095Y50982620D01*
X161313809Y50982620D02*
X161313809Y51982620D01*
X161218571Y51839762D01*
X161123333Y51744524D01*
X161028095Y51696905D01*
X162218571Y51982620D02*
X162313809Y51982620D01*
X162409047Y51935000D01*
X162456666Y51887381D01*
X162504285Y51792143D01*
X162551904Y51601667D01*
X162551904Y51363572D01*
X162504285Y51173096D01*
X162456666Y51077858D01*
X162409047Y51030239D01*
X162313809Y50982620D01*
X162218571Y50982620D01*
X162123333Y51030239D01*
X162075714Y51077858D01*
X162028095Y51173096D01*
X161980476Y51363572D01*
X161980476Y51601667D01*
X162028095Y51792143D01*
X162075714Y51887381D01*
X162123333Y51935000D01*
X162218571Y51982620D01*
X160742333Y47299620D02*
X160409000Y47775810D01*
X160170904Y47299620D02*
X160170904Y48299620D01*
X160551857Y48299620D01*
X160647095Y48252000D01*
X160694714Y48204381D01*
X160742333Y48109143D01*
X160742333Y47966286D01*
X160694714Y47871048D01*
X160647095Y47823429D01*
X160551857Y47775810D01*
X160170904Y47775810D01*
X161218523Y47299620D02*
X161409000Y47299620D01*
X161504238Y47347239D01*
X161551857Y47394858D01*
X161647095Y47537715D01*
X161694714Y47728191D01*
X161694714Y48109143D01*
X161647095Y48204381D01*
X161599476Y48252000D01*
X161504238Y48299620D01*
X161313761Y48299620D01*
X161218523Y48252000D01*
X161170904Y48204381D01*
X161123285Y48109143D01*
X161123285Y47871048D01*
X161170904Y47775810D01*
X161218523Y47728191D01*
X161313761Y47680572D01*
X161504238Y47680572D01*
X161599476Y47728191D01*
X161647095Y47775810D01*
X161694714Y47871048D01*
X160742333Y43362620D02*
X160409000Y43838810D01*
X160170904Y43362620D02*
X160170904Y44362620D01*
X160551857Y44362620D01*
X160647095Y44315000D01*
X160694714Y44267381D01*
X160742333Y44172143D01*
X160742333Y44029286D01*
X160694714Y43934048D01*
X160647095Y43886429D01*
X160551857Y43838810D01*
X160170904Y43838810D01*
X161313761Y43934048D02*
X161218523Y43981667D01*
X161170904Y44029286D01*
X161123285Y44124524D01*
X161123285Y44172143D01*
X161170904Y44267381D01*
X161218523Y44315000D01*
X161313761Y44362620D01*
X161504238Y44362620D01*
X161599476Y44315000D01*
X161647095Y44267381D01*
X161694714Y44172143D01*
X161694714Y44124524D01*
X161647095Y44029286D01*
X161599476Y43981667D01*
X161504238Y43934048D01*
X161313761Y43934048D01*
X161218523Y43886429D01*
X161170904Y43838810D01*
X161123285Y43743572D01*
X161123285Y43553096D01*
X161170904Y43457858D01*
X161218523Y43410239D01*
X161313761Y43362620D01*
X161504238Y43362620D01*
X161599476Y43410239D01*
X161647095Y43457858D01*
X161694714Y43553096D01*
X161694714Y43743572D01*
X161647095Y43838810D01*
X161599476Y43886429D01*
X161504238Y43934048D01*
X160742333Y39552620D02*
X160409000Y40028810D01*
X160170904Y39552620D02*
X160170904Y40552620D01*
X160551857Y40552620D01*
X160647095Y40505000D01*
X160694714Y40457381D01*
X160742333Y40362143D01*
X160742333Y40219286D01*
X160694714Y40124048D01*
X160647095Y40076429D01*
X160551857Y40028810D01*
X160170904Y40028810D01*
X161075666Y40552620D02*
X161742333Y40552620D01*
X161313761Y39552620D01*
X160742333Y35996620D02*
X160409000Y36472810D01*
X160170904Y35996620D02*
X160170904Y36996620D01*
X160551857Y36996620D01*
X160647095Y36949000D01*
X160694714Y36901381D01*
X160742333Y36806143D01*
X160742333Y36663286D01*
X160694714Y36568048D01*
X160647095Y36520429D01*
X160551857Y36472810D01*
X160170904Y36472810D01*
X161599476Y36996620D02*
X161409000Y36996620D01*
X161313761Y36949000D01*
X161266142Y36901381D01*
X161170904Y36758524D01*
X161123285Y36568048D01*
X161123285Y36187096D01*
X161170904Y36091858D01*
X161218523Y36044239D01*
X161313761Y35996620D01*
X161504238Y35996620D01*
X161599476Y36044239D01*
X161647095Y36091858D01*
X161694714Y36187096D01*
X161694714Y36425191D01*
X161647095Y36520429D01*
X161599476Y36568048D01*
X161504238Y36615667D01*
X161313761Y36615667D01*
X161218523Y36568048D01*
X161170904Y36520429D01*
X161123285Y36425191D01*
X160742333Y18089620D02*
X160409000Y18565810D01*
X160170904Y18089620D02*
X160170904Y19089620D01*
X160551857Y19089620D01*
X160647095Y19042000D01*
X160694714Y18994381D01*
X160742333Y18899143D01*
X160742333Y18756286D01*
X160694714Y18661048D01*
X160647095Y18613429D01*
X160551857Y18565810D01*
X160170904Y18565810D01*
X161647095Y19089620D02*
X161170904Y19089620D01*
X161123285Y18613429D01*
X161170904Y18661048D01*
X161266142Y18708667D01*
X161504238Y18708667D01*
X161599476Y18661048D01*
X161647095Y18613429D01*
X161694714Y18518191D01*
X161694714Y18280096D01*
X161647095Y18184858D01*
X161599476Y18137239D01*
X161504238Y18089620D01*
X161266142Y18089620D01*
X161170904Y18137239D01*
X161123285Y18184858D01*
X160742333Y21899620D02*
X160409000Y22375810D01*
X160170904Y21899620D02*
X160170904Y22899620D01*
X160551857Y22899620D01*
X160647095Y22852000D01*
X160694714Y22804381D01*
X160742333Y22709143D01*
X160742333Y22566286D01*
X160694714Y22471048D01*
X160647095Y22423429D01*
X160551857Y22375810D01*
X160170904Y22375810D01*
X161599476Y22566286D02*
X161599476Y21899620D01*
X161361380Y22947239D02*
X161123285Y22232953D01*
X161742333Y22232953D01*
X160742333Y25709620D02*
X160409000Y26185810D01*
X160170904Y25709620D02*
X160170904Y26709620D01*
X160551857Y26709620D01*
X160647095Y26662000D01*
X160694714Y26614381D01*
X160742333Y26519143D01*
X160742333Y26376286D01*
X160694714Y26281048D01*
X160647095Y26233429D01*
X160551857Y26185810D01*
X160170904Y26185810D01*
X161075666Y26709620D02*
X161694714Y26709620D01*
X161361380Y26328667D01*
X161504238Y26328667D01*
X161599476Y26281048D01*
X161647095Y26233429D01*
X161694714Y26138191D01*
X161694714Y25900096D01*
X161647095Y25804858D01*
X161599476Y25757239D01*
X161504238Y25709620D01*
X161218523Y25709620D01*
X161123285Y25757239D01*
X161075666Y25804858D01*
X82891333Y80192620D02*
X82558000Y80668810D01*
X82319904Y80192620D02*
X82319904Y81192620D01*
X82700857Y81192620D01*
X82796095Y81145000D01*
X82843714Y81097381D01*
X82891333Y81002143D01*
X82891333Y80859286D01*
X82843714Y80764048D01*
X82796095Y80716429D01*
X82700857Y80668810D01*
X82319904Y80668810D01*
X83843714Y80192620D02*
X83272285Y80192620D01*
X83558000Y80192620D02*
X83558000Y81192620D01*
X83462761Y81049762D01*
X83367523Y80954524D01*
X83272285Y80906905D01*
X68881666Y16168620D02*
X68881666Y15454334D01*
X68834047Y15311477D01*
X68738809Y15216239D01*
X68595952Y15168620D01*
X68500714Y15168620D01*
X69881666Y15168620D02*
X69310238Y15168620D01*
X69595952Y15168620D02*
X69595952Y16168620D01*
X69500714Y16025762D01*
X69405476Y15930524D01*
X69310238Y15882905D01*
X63873190Y15168620D02*
X63873190Y16168620D01*
X64920809Y15168620D02*
X64587476Y15644810D01*
X64349380Y15168620D02*
X64349380Y16168620D01*
X64730333Y16168620D01*
X64825571Y16121000D01*
X64873190Y16073381D01*
X64920809Y15978143D01*
X64920809Y15835286D01*
X64873190Y15740048D01*
X64825571Y15692429D01*
X64730333Y15644810D01*
X64349380Y15644810D01*
X66016047Y15073381D02*
X65920809Y15121000D01*
X65825571Y15216239D01*
X65682714Y15359096D01*
X65587476Y15406715D01*
X65492238Y15406715D01*
X65539857Y15168620D02*
X65444619Y15216239D01*
X65349380Y15311477D01*
X65301761Y15501953D01*
X65301761Y15835286D01*
X65349380Y16025762D01*
X65444619Y16121000D01*
X65539857Y16168620D01*
X65730333Y16168620D01*
X65825571Y16121000D01*
X65920809Y16025762D01*
X65968428Y15835286D01*
X65968428Y15501953D01*
X65920809Y15311477D01*
X65825571Y15216239D01*
X65730333Y15168620D01*
X65539857Y15168620D01*
X73048952Y15565429D02*
X72715619Y15565429D01*
X72715619Y15041620D02*
X72715619Y16041620D01*
X73191809Y16041620D01*
X73572761Y15041620D02*
X73572761Y16041620D01*
X74620380Y15041620D02*
X74287047Y15517810D01*
X74048952Y15041620D02*
X74048952Y16041620D01*
X74429904Y16041620D01*
X74525142Y15994000D01*
X74572761Y15946381D01*
X74620380Y15851143D01*
X74620380Y15708286D01*
X74572761Y15613048D01*
X74525142Y15565429D01*
X74429904Y15517810D01*
X74048952Y15517810D01*
X75715619Y14946381D02*
X75620380Y14994000D01*
X75525142Y15089239D01*
X75382285Y15232096D01*
X75287047Y15279715D01*
X75191809Y15279715D01*
X75239428Y15041620D02*
X75144190Y15089239D01*
X75048952Y15184477D01*
X75001333Y15374953D01*
X75001333Y15708286D01*
X75048952Y15898762D01*
X75144190Y15994000D01*
X75239428Y16041620D01*
X75429904Y16041620D01*
X75525142Y15994000D01*
X75620380Y15898762D01*
X75668000Y15708286D01*
X75668000Y15374953D01*
X75620380Y15184477D01*
X75525142Y15089239D01*
X75429904Y15041620D01*
X75239428Y15041620D01*
X65055714Y12755620D02*
X64484285Y12755620D01*
X64770000Y12755620D02*
X64770000Y13755620D01*
X64674761Y13612762D01*
X64579523Y13517524D01*
X64484285Y13469905D01*
X15009952Y27836858D02*
X14962333Y27789239D01*
X14819476Y27741620D01*
X14724238Y27741620D01*
X14581380Y27789239D01*
X14486142Y27884477D01*
X14438523Y27979715D01*
X14390904Y28170191D01*
X14390904Y28313048D01*
X14438523Y28503524D01*
X14486142Y28598762D01*
X14581380Y28694000D01*
X14724238Y28741620D01*
X14819476Y28741620D01*
X14962333Y28694000D01*
X15009952Y28646381D01*
X15962333Y27741620D02*
X15390904Y27741620D01*
X15676619Y27741620D02*
X15676619Y28741620D01*
X15581380Y28598762D01*
X15486142Y28503524D01*
X15390904Y28455905D01*
X16581380Y28741620D02*
X16676619Y28741620D01*
X16771857Y28694000D01*
X16819476Y28646381D01*
X16867095Y28551143D01*
X16914714Y28360667D01*
X16914714Y28122572D01*
X16867095Y27932096D01*
X16819476Y27836858D01*
X16771857Y27789239D01*
X16676619Y27741620D01*
X16581380Y27741620D01*
X16486142Y27789239D01*
X16438523Y27836858D01*
X16390904Y27932096D01*
X16343285Y28122572D01*
X16343285Y28360667D01*
X16390904Y28551143D01*
X16438523Y28646381D01*
X16486142Y28694000D01*
X16581380Y28741620D01*
X17771857Y28408286D02*
X17771857Y27741620D01*
X17533761Y28789239D02*
X17295666Y28074953D01*
X17914714Y28074953D01*
X71905952Y81684858D02*
X71858333Y81637239D01*
X71715476Y81589620D01*
X71620238Y81589620D01*
X71477380Y81637239D01*
X71382142Y81732477D01*
X71334523Y81827715D01*
X71286904Y82018191D01*
X71286904Y82161048D01*
X71334523Y82351524D01*
X71382142Y82446762D01*
X71477380Y82542000D01*
X71620238Y82589620D01*
X71715476Y82589620D01*
X71858333Y82542000D01*
X71905952Y82494381D01*
X72858333Y81589620D02*
X72286904Y81589620D01*
X72572619Y81589620D02*
X72572619Y82589620D01*
X72477380Y82446762D01*
X72382142Y82351524D01*
X72286904Y82303905D01*
X73477380Y82589620D02*
X73572619Y82589620D01*
X73667857Y82542000D01*
X73715476Y82494381D01*
X73763095Y82399143D01*
X73810714Y82208667D01*
X73810714Y81970572D01*
X73763095Y81780096D01*
X73715476Y81684858D01*
X73667857Y81637239D01*
X73572619Y81589620D01*
X73477380Y81589620D01*
X73382142Y81637239D01*
X73334523Y81684858D01*
X73286904Y81780096D01*
X73239285Y81970572D01*
X73239285Y82208667D01*
X73286904Y82399143D01*
X73334523Y82494381D01*
X73382142Y82542000D01*
X73477380Y82589620D01*
X74144047Y82589620D02*
X74763095Y82589620D01*
X74429761Y82208667D01*
X74572619Y82208667D01*
X74667857Y82161048D01*
X74715476Y82113429D01*
X74763095Y82018191D01*
X74763095Y81780096D01*
X74715476Y81684858D01*
X74667857Y81637239D01*
X74572619Y81589620D01*
X74286904Y81589620D01*
X74191666Y81637239D01*
X74144047Y81684858D01*
X45235952Y81684858D02*
X45188333Y81637239D01*
X45045476Y81589620D01*
X44950238Y81589620D01*
X44807380Y81637239D01*
X44712142Y81732477D01*
X44664523Y81827715D01*
X44616904Y82018191D01*
X44616904Y82161048D01*
X44664523Y82351524D01*
X44712142Y82446762D01*
X44807380Y82542000D01*
X44950238Y82589620D01*
X45045476Y82589620D01*
X45188333Y82542000D01*
X45235952Y82494381D01*
X46188333Y81589620D02*
X45616904Y81589620D01*
X45902619Y81589620D02*
X45902619Y82589620D01*
X45807380Y82446762D01*
X45712142Y82351524D01*
X45616904Y82303905D01*
X46807380Y82589620D02*
X46902619Y82589620D01*
X46997857Y82542000D01*
X47045476Y82494381D01*
X47093095Y82399143D01*
X47140714Y82208667D01*
X47140714Y81970572D01*
X47093095Y81780096D01*
X47045476Y81684858D01*
X46997857Y81637239D01*
X46902619Y81589620D01*
X46807380Y81589620D01*
X46712142Y81637239D01*
X46664523Y81684858D01*
X46616904Y81780096D01*
X46569285Y81970572D01*
X46569285Y82208667D01*
X46616904Y82399143D01*
X46664523Y82494381D01*
X46712142Y82542000D01*
X46807380Y82589620D01*
X47521666Y82494381D02*
X47569285Y82542000D01*
X47664523Y82589620D01*
X47902619Y82589620D01*
X47997857Y82542000D01*
X48045476Y82494381D01*
X48093095Y82399143D01*
X48093095Y82303905D01*
X48045476Y82161048D01*
X47474047Y81589620D01*
X48093095Y81589620D01*
X23645952Y81811858D02*
X23598333Y81764239D01*
X23455476Y81716620D01*
X23360238Y81716620D01*
X23217380Y81764239D01*
X23122142Y81859477D01*
X23074523Y81954715D01*
X23026904Y82145191D01*
X23026904Y82288048D01*
X23074523Y82478524D01*
X23122142Y82573762D01*
X23217380Y82669000D01*
X23360238Y82716620D01*
X23455476Y82716620D01*
X23598333Y82669000D01*
X23645952Y82621381D01*
X24598333Y81716620D02*
X24026904Y81716620D01*
X24312619Y81716620D02*
X24312619Y82716620D01*
X24217380Y82573762D01*
X24122142Y82478524D01*
X24026904Y82430905D01*
X25217380Y82716620D02*
X25312619Y82716620D01*
X25407857Y82669000D01*
X25455476Y82621381D01*
X25503095Y82526143D01*
X25550714Y82335667D01*
X25550714Y82097572D01*
X25503095Y81907096D01*
X25455476Y81811858D01*
X25407857Y81764239D01*
X25312619Y81716620D01*
X25217380Y81716620D01*
X25122142Y81764239D01*
X25074523Y81811858D01*
X25026904Y81907096D01*
X24979285Y82097572D01*
X24979285Y82335667D01*
X25026904Y82526143D01*
X25074523Y82621381D01*
X25122142Y82669000D01*
X25217380Y82716620D01*
X26503095Y81716620D02*
X25931666Y81716620D01*
X26217380Y81716620D02*
X26217380Y82716620D01*
X26122142Y82573762D01*
X26026904Y82478524D01*
X25931666Y82430905D01*
X8862142Y49934858D02*
X8814523Y49887239D01*
X8671666Y49839620D01*
X8576428Y49839620D01*
X8433571Y49887239D01*
X8338333Y49982477D01*
X8290714Y50077715D01*
X8243095Y50268191D01*
X8243095Y50411048D01*
X8290714Y50601524D01*
X8338333Y50696762D01*
X8433571Y50792000D01*
X8576428Y50839620D01*
X8671666Y50839620D01*
X8814523Y50792000D01*
X8862142Y50744381D01*
X9814523Y49839620D02*
X9243095Y49839620D01*
X9528809Y49839620D02*
X9528809Y50839620D01*
X9433571Y50696762D01*
X9338333Y50601524D01*
X9243095Y50553905D01*
X10290714Y49839620D02*
X10481190Y49839620D01*
X10576428Y49887239D01*
X10624047Y49934858D01*
X10719285Y50077715D01*
X10766904Y50268191D01*
X10766904Y50649143D01*
X10719285Y50744381D01*
X10671666Y50792000D01*
X10576428Y50839620D01*
X10385952Y50839620D01*
X10290714Y50792000D01*
X10243095Y50744381D01*
X10195476Y50649143D01*
X10195476Y50411048D01*
X10243095Y50315810D01*
X10290714Y50268191D01*
X10385952Y50220572D01*
X10576428Y50220572D01*
X10671666Y50268191D01*
X10719285Y50315810D01*
X10766904Y50411048D01*
X113784142Y80541858D02*
X113736523Y80494239D01*
X113593666Y80446620D01*
X113498428Y80446620D01*
X113355571Y80494239D01*
X113260333Y80589477D01*
X113212714Y80684715D01*
X113165095Y80875191D01*
X113165095Y81018048D01*
X113212714Y81208524D01*
X113260333Y81303762D01*
X113355571Y81399000D01*
X113498428Y81446620D01*
X113593666Y81446620D01*
X113736523Y81399000D01*
X113784142Y81351381D01*
X114736523Y80446620D02*
X114165095Y80446620D01*
X114450809Y80446620D02*
X114450809Y81446620D01*
X114355571Y81303762D01*
X114260333Y81208524D01*
X114165095Y81160905D01*
X115641285Y81446620D02*
X115165095Y81446620D01*
X115117476Y80970429D01*
X115165095Y81018048D01*
X115260333Y81065667D01*
X115498428Y81065667D01*
X115593666Y81018048D01*
X115641285Y80970429D01*
X115688904Y80875191D01*
X115688904Y80637096D01*
X115641285Y80541858D01*
X115593666Y80494239D01*
X115498428Y80446620D01*
X115260333Y80446620D01*
X115165095Y80494239D01*
X115117476Y80541858D01*
X149598142Y80922858D02*
X149550523Y80875239D01*
X149407666Y80827620D01*
X149312428Y80827620D01*
X149169571Y80875239D01*
X149074333Y80970477D01*
X149026714Y81065715D01*
X148979095Y81256191D01*
X148979095Y81399048D01*
X149026714Y81589524D01*
X149074333Y81684762D01*
X149169571Y81780000D01*
X149312428Y81827620D01*
X149407666Y81827620D01*
X149550523Y81780000D01*
X149598142Y81732381D01*
X150550523Y80827620D02*
X149979095Y80827620D01*
X150264809Y80827620D02*
X150264809Y81827620D01*
X150169571Y81684762D01*
X150074333Y81589524D01*
X149979095Y81541905D01*
X151407666Y81494286D02*
X151407666Y80827620D01*
X151169571Y81875239D02*
X150931476Y81160953D01*
X151550523Y81160953D01*
X149852142Y66063858D02*
X149804523Y66016239D01*
X149661666Y65968620D01*
X149566428Y65968620D01*
X149423571Y66016239D01*
X149328333Y66111477D01*
X149280714Y66206715D01*
X149233095Y66397191D01*
X149233095Y66540048D01*
X149280714Y66730524D01*
X149328333Y66825762D01*
X149423571Y66921000D01*
X149566428Y66968620D01*
X149661666Y66968620D01*
X149804523Y66921000D01*
X149852142Y66873381D01*
X150804523Y65968620D02*
X150233095Y65968620D01*
X150518809Y65968620D02*
X150518809Y66968620D01*
X150423571Y66825762D01*
X150328333Y66730524D01*
X150233095Y66682905D01*
X151137857Y66968620D02*
X151756904Y66968620D01*
X151423571Y66587667D01*
X151566428Y66587667D01*
X151661666Y66540048D01*
X151709285Y66492429D01*
X151756904Y66397191D01*
X151756904Y66159096D01*
X151709285Y66063858D01*
X151661666Y66016239D01*
X151566428Y65968620D01*
X151280714Y65968620D01*
X151185476Y66016239D01*
X151137857Y66063858D01*
X161917142Y65936858D02*
X161869523Y65889239D01*
X161726666Y65841620D01*
X161631428Y65841620D01*
X161488571Y65889239D01*
X161393333Y65984477D01*
X161345714Y66079715D01*
X161298095Y66270191D01*
X161298095Y66413048D01*
X161345714Y66603524D01*
X161393333Y66698762D01*
X161488571Y66794000D01*
X161631428Y66841620D01*
X161726666Y66841620D01*
X161869523Y66794000D01*
X161917142Y66746381D01*
X162869523Y65841620D02*
X162298095Y65841620D01*
X162583809Y65841620D02*
X162583809Y66841620D01*
X162488571Y66698762D01*
X162393333Y66603524D01*
X162298095Y66555905D01*
X163250476Y66746381D02*
X163298095Y66794000D01*
X163393333Y66841620D01*
X163631428Y66841620D01*
X163726666Y66794000D01*
X163774285Y66746381D01*
X163821904Y66651143D01*
X163821904Y66555905D01*
X163774285Y66413048D01*
X163202857Y65841620D01*
X163821904Y65841620D01*
X137787142Y80795858D02*
X137739523Y80748239D01*
X137596666Y80700620D01*
X137501428Y80700620D01*
X137358571Y80748239D01*
X137263333Y80843477D01*
X137215714Y80938715D01*
X137168095Y81129191D01*
X137168095Y81272048D01*
X137215714Y81462524D01*
X137263333Y81557762D01*
X137358571Y81653000D01*
X137501428Y81700620D01*
X137596666Y81700620D01*
X137739523Y81653000D01*
X137787142Y81605381D01*
X138739523Y80700620D02*
X138168095Y80700620D01*
X138453809Y80700620D02*
X138453809Y81700620D01*
X138358571Y81557762D01*
X138263333Y81462524D01*
X138168095Y81414905D01*
X139691904Y80700620D02*
X139120476Y80700620D01*
X139406190Y80700620D02*
X139406190Y81700620D01*
X139310952Y81557762D01*
X139215714Y81462524D01*
X139120476Y81414905D01*
X137914142Y66825858D02*
X137866523Y66778239D01*
X137723666Y66730620D01*
X137628428Y66730620D01*
X137485571Y66778239D01*
X137390333Y66873477D01*
X137342714Y66968715D01*
X137295095Y67159191D01*
X137295095Y67302048D01*
X137342714Y67492524D01*
X137390333Y67587762D01*
X137485571Y67683000D01*
X137628428Y67730620D01*
X137723666Y67730620D01*
X137866523Y67683000D01*
X137914142Y67635381D01*
X138866523Y66730620D02*
X138295095Y66730620D01*
X138580809Y66730620D02*
X138580809Y67730620D01*
X138485571Y67587762D01*
X138390333Y67492524D01*
X138295095Y67444905D01*
X139485571Y67730620D02*
X139580809Y67730620D01*
X139676047Y67683000D01*
X139723666Y67635381D01*
X139771285Y67540143D01*
X139818904Y67349667D01*
X139818904Y67111572D01*
X139771285Y66921096D01*
X139723666Y66825858D01*
X139676047Y66778239D01*
X139580809Y66730620D01*
X139485571Y66730620D01*
X139390333Y66778239D01*
X139342714Y66825858D01*
X139295095Y66921096D01*
X139247476Y67111572D01*
X139247476Y67349667D01*
X139295095Y67540143D01*
X139342714Y67635381D01*
X139390333Y67683000D01*
X139485571Y67730620D01*
X101433333Y81049858D02*
X101385714Y81002239D01*
X101242857Y80954620D01*
X101147619Y80954620D01*
X101004761Y81002239D01*
X100909523Y81097477D01*
X100861904Y81192715D01*
X100814285Y81383191D01*
X100814285Y81526048D01*
X100861904Y81716524D01*
X100909523Y81811762D01*
X101004761Y81907000D01*
X101147619Y81954620D01*
X101242857Y81954620D01*
X101385714Y81907000D01*
X101433333Y81859381D01*
X101909523Y80954620D02*
X102100000Y80954620D01*
X102195238Y81002239D01*
X102242857Y81049858D01*
X102338095Y81192715D01*
X102385714Y81383191D01*
X102385714Y81764143D01*
X102338095Y81859381D01*
X102290476Y81907000D01*
X102195238Y81954620D01*
X102004761Y81954620D01*
X101909523Y81907000D01*
X101861904Y81859381D01*
X101814285Y81764143D01*
X101814285Y81526048D01*
X101861904Y81430810D01*
X101909523Y81383191D01*
X102004761Y81335572D01*
X102195238Y81335572D01*
X102290476Y81383191D01*
X102338095Y81430810D01*
X102385714Y81526048D01*
X109561333Y68222858D02*
X109513714Y68175239D01*
X109370857Y68127620D01*
X109275619Y68127620D01*
X109132761Y68175239D01*
X109037523Y68270477D01*
X108989904Y68365715D01*
X108942285Y68556191D01*
X108942285Y68699048D01*
X108989904Y68889524D01*
X109037523Y68984762D01*
X109132761Y69080000D01*
X109275619Y69127620D01*
X109370857Y69127620D01*
X109513714Y69080000D01*
X109561333Y69032381D01*
X110132761Y68699048D02*
X110037523Y68746667D01*
X109989904Y68794286D01*
X109942285Y68889524D01*
X109942285Y68937143D01*
X109989904Y69032381D01*
X110037523Y69080000D01*
X110132761Y69127620D01*
X110323238Y69127620D01*
X110418476Y69080000D01*
X110466095Y69032381D01*
X110513714Y68937143D01*
X110513714Y68889524D01*
X110466095Y68794286D01*
X110418476Y68746667D01*
X110323238Y68699048D01*
X110132761Y68699048D01*
X110037523Y68651429D01*
X109989904Y68603810D01*
X109942285Y68508572D01*
X109942285Y68318096D01*
X109989904Y68222858D01*
X110037523Y68175239D01*
X110132761Y68127620D01*
X110323238Y68127620D01*
X110418476Y68175239D01*
X110466095Y68222858D01*
X110513714Y68318096D01*
X110513714Y68508572D01*
X110466095Y68603810D01*
X110418476Y68651429D01*
X110323238Y68699048D01*
X126706333Y66825858D02*
X126658714Y66778239D01*
X126515857Y66730620D01*
X126420619Y66730620D01*
X126277761Y66778239D01*
X126182523Y66873477D01*
X126134904Y66968715D01*
X126087285Y67159191D01*
X126087285Y67302048D01*
X126134904Y67492524D01*
X126182523Y67587762D01*
X126277761Y67683000D01*
X126420619Y67730620D01*
X126515857Y67730620D01*
X126658714Y67683000D01*
X126706333Y67635381D01*
X127039666Y67730620D02*
X127706333Y67730620D01*
X127277761Y66730620D01*
X114768333Y67333858D02*
X114720714Y67286239D01*
X114577857Y67238620D01*
X114482619Y67238620D01*
X114339761Y67286239D01*
X114244523Y67381477D01*
X114196904Y67476715D01*
X114149285Y67667191D01*
X114149285Y67810048D01*
X114196904Y68000524D01*
X114244523Y68095762D01*
X114339761Y68191000D01*
X114482619Y68238620D01*
X114577857Y68238620D01*
X114720714Y68191000D01*
X114768333Y68143381D01*
X115625476Y68238620D02*
X115435000Y68238620D01*
X115339761Y68191000D01*
X115292142Y68143381D01*
X115196904Y68000524D01*
X115149285Y67810048D01*
X115149285Y67429096D01*
X115196904Y67333858D01*
X115244523Y67286239D01*
X115339761Y67238620D01*
X115530238Y67238620D01*
X115625476Y67286239D01*
X115673095Y67333858D01*
X115720714Y67429096D01*
X115720714Y67667191D01*
X115673095Y67762429D01*
X115625476Y67810048D01*
X115530238Y67857667D01*
X115339761Y67857667D01*
X115244523Y67810048D01*
X115196904Y67762429D01*
X115149285Y67667191D01*
X159345333Y32789858D02*
X159297714Y32742239D01*
X159154857Y32694620D01*
X159059619Y32694620D01*
X158916761Y32742239D01*
X158821523Y32837477D01*
X158773904Y32932715D01*
X158726285Y33123191D01*
X158726285Y33266048D01*
X158773904Y33456524D01*
X158821523Y33551762D01*
X158916761Y33647000D01*
X159059619Y33694620D01*
X159154857Y33694620D01*
X159297714Y33647000D01*
X159345333Y33599381D01*
X160250095Y33694620D02*
X159773904Y33694620D01*
X159726285Y33218429D01*
X159773904Y33266048D01*
X159869142Y33313667D01*
X160107238Y33313667D01*
X160202476Y33266048D01*
X160250095Y33218429D01*
X160297714Y33123191D01*
X160297714Y32885096D01*
X160250095Y32789858D01*
X160202476Y32742239D01*
X160107238Y32694620D01*
X159869142Y32694620D01*
X159773904Y32742239D01*
X159726285Y32789858D01*
X159345333Y14374858D02*
X159297714Y14327239D01*
X159154857Y14279620D01*
X159059619Y14279620D01*
X158916761Y14327239D01*
X158821523Y14422477D01*
X158773904Y14517715D01*
X158726285Y14708191D01*
X158726285Y14851048D01*
X158773904Y15041524D01*
X158821523Y15136762D01*
X158916761Y15232000D01*
X159059619Y15279620D01*
X159154857Y15279620D01*
X159297714Y15232000D01*
X159345333Y15184381D01*
X160202476Y14946286D02*
X160202476Y14279620D01*
X159964380Y15327239D02*
X159726285Y14612953D01*
X160345333Y14612953D01*
X82764333Y76604858D02*
X82716714Y76557239D01*
X82573857Y76509620D01*
X82478619Y76509620D01*
X82335761Y76557239D01*
X82240523Y76652477D01*
X82192904Y76747715D01*
X82145285Y76938191D01*
X82145285Y77081048D01*
X82192904Y77271524D01*
X82240523Y77366762D01*
X82335761Y77462000D01*
X82478619Y77509620D01*
X82573857Y77509620D01*
X82716714Y77462000D01*
X82764333Y77414381D01*
X83097666Y77509620D02*
X83716714Y77509620D01*
X83383380Y77128667D01*
X83526238Y77128667D01*
X83621476Y77081048D01*
X83669095Y77033429D01*
X83716714Y76938191D01*
X83716714Y76700096D01*
X83669095Y76604858D01*
X83621476Y76557239D01*
X83526238Y76509620D01*
X83240523Y76509620D01*
X83145285Y76557239D01*
X83097666Y76604858D01*
X55713333Y77239858D02*
X55665714Y77192239D01*
X55522857Y77144620D01*
X55427619Y77144620D01*
X55284761Y77192239D01*
X55189523Y77287477D01*
X55141904Y77382715D01*
X55094285Y77573191D01*
X55094285Y77716048D01*
X55141904Y77906524D01*
X55189523Y78001762D01*
X55284761Y78097000D01*
X55427619Y78144620D01*
X55522857Y78144620D01*
X55665714Y78097000D01*
X55713333Y78049381D01*
X56094285Y78049381D02*
X56141904Y78097000D01*
X56237142Y78144620D01*
X56475238Y78144620D01*
X56570476Y78097000D01*
X56618095Y78049381D01*
X56665714Y77954143D01*
X56665714Y77858905D01*
X56618095Y77716048D01*
X56046666Y77144620D01*
X56665714Y77144620D01*
X29678333Y76604858D02*
X29630714Y76557239D01*
X29487857Y76509620D01*
X29392619Y76509620D01*
X29249761Y76557239D01*
X29154523Y76652477D01*
X29106904Y76747715D01*
X29059285Y76938191D01*
X29059285Y77081048D01*
X29106904Y77271524D01*
X29154523Y77366762D01*
X29249761Y77462000D01*
X29392619Y77509620D01*
X29487857Y77509620D01*
X29630714Y77462000D01*
X29678333Y77414381D01*
X30630714Y76509620D02*
X30059285Y76509620D01*
X30345000Y76509620D02*
X30345000Y77509620D01*
X30249761Y77366762D01*
X30154523Y77271524D01*
X30059285Y77223905D01*
X6651666Y43219620D02*
X6651666Y42505334D01*
X6604047Y42362477D01*
X6508809Y42267239D01*
X6365952Y42219620D01*
X6270714Y42219620D01*
X7080238Y43124381D02*
X7127857Y43172000D01*
X7223095Y43219620D01*
X7461190Y43219620D01*
X7556428Y43172000D01*
X7604047Y43124381D01*
X7651666Y43029143D01*
X7651666Y42933905D01*
X7604047Y42791048D01*
X7032619Y42219620D01*
X7651666Y42219620D01*
X4222714Y39679620D02*
X3651285Y39679620D01*
X3937000Y39679620D02*
X3937000Y40679620D01*
X3841761Y40536762D01*
X3746523Y40441524D01*
X3651285Y40393905D01*
X7286666Y67349620D02*
X7286666Y66635334D01*
X7239047Y66492477D01*
X7143809Y66397239D01*
X7000952Y66349620D01*
X6905714Y66349620D01*
X7667619Y67349620D02*
X8286666Y67349620D01*
X7953333Y66968667D01*
X8096190Y66968667D01*
X8191428Y66921048D01*
X8239047Y66873429D01*
X8286666Y66778191D01*
X8286666Y66540096D01*
X8239047Y66444858D01*
X8191428Y66397239D01*
X8096190Y66349620D01*
X7810476Y66349620D01*
X7715238Y66397239D01*
X7667619Y66444858D01*
X4222714Y63809620D02*
X3651285Y63809620D01*
X3937000Y63809620D02*
X3937000Y64809620D01*
X3841761Y64666762D01*
X3746523Y64571524D01*
X3651285Y64523905D01*
M02*
