M48
; DRILL file {KiCad (5.1.8)-1} date 07/09/21 23:37:56
; FORMAT={-:-/ absolute / inch / decimal}
; #@! TF.CreationDate,2021-07-09T23:37:56+09:00
; #@! TF.GenerationSoftware,Kicad,Pcbnew,(5.1.8)-1
; #@! TF.FileFunction,Plated,1,2,PTH
FMAT,2
INCH
T1C0.0118
T2C0.0157
T3C0.0300
T4C0.0315
T5C0.0394
%
G90
G05
T1
X0.95Y0.705
X1.05Y0.715
X1.15Y0.6849
X1.255Y0.6464
X1.345Y0.6064
X1.425Y1.855
X1.45Y0.5706
X1.55Y0.53
X1.625Y0.48
X1.85Y1.155
X1.925Y1.455
X2.125Y1.255
X2.425Y0.5514
X2.525Y0.5514
X2.9Y1.155
X3.2Y0.5556
X3.2187Y0.9404
X3.25Y1.305
X3.273Y0.9404
X3.365Y1.735
X3.3685Y1.405
X3.47Y1.405
X3.5Y1.265
X3.5075Y2.5125
X3.5075Y1.8975
X3.525Y1.505
X3.525Y0.58
X3.545Y3.11
X3.56Y2.855
X3.5725Y1.4775
X3.575Y2.98
X3.65Y2.35
X3.7335Y0.9404
X3.7472Y2.2472
X3.7491Y2.055
X3.77Y2.5814
X3.775Y2.135
X3.775Y2.085
X3.7794Y0.55
X3.78Y2.275
X3.7812Y2.405
X3.7988Y2.2168
X3.815Y0.52
X3.8253Y2.5794
X3.84Y0.49
X3.8463Y2.3774
X3.8467Y2.5015
X3.855Y1.63
X3.87Y2.11
X3.8738Y2.4564
X3.875Y2.825
X3.875Y2.63
X3.8771Y2.5821
X3.885Y2.33
X3.885Y2.23
X3.89Y1.54
X3.8903Y2.4295
X3.895Y1.805
X3.915Y1.56
X3.935Y1.27
X3.94Y1.58
X3.96Y2.13
X3.965Y0.6184
X4.003Y1.68
X4.025Y1.775
X4.0325Y0.7405
X4.0579Y2.3287
X4.0584Y2.28
X4.0593Y2.2328
X4.0616Y2.955
X4.065Y2.805
X4.065Y2.615
X4.07Y3.005
X4.0747Y2.5446
X4.08Y2.5
X4.09Y2.33
X4.0914Y2.28
X4.0966Y2.1787
X4.105Y2.605
X4.105Y2.38
X4.11Y2.78
X4.125Y1.505
X4.275Y3.11
X4.275Y2.53
X4.275Y2.48
X4.275Y1.055
X4.2978Y3.0098
X4.3017Y2.7567
X4.3033Y3.055
X4.3237Y2.9531
X4.325Y2.895
X4.325Y1.9236
X4.3267Y2.4567
X4.335Y2.28
X4.35Y2.995
X4.35Y2.845
X4.355Y2.48
X4.36Y2.33
X4.375Y2.085
X4.375Y1.355
X4.3786Y2.2036
X4.38Y2.38
X4.41Y2.6894
X4.4208Y1.9508
X4.425Y1.865
X4.475Y0.8074
X4.475Y2.085
X4.545Y0.805
X4.5494Y2.8536
X4.55Y3.055
X4.55Y2.53
X4.55Y1.49
X4.565Y2.235
X4.575Y1.93
X4.58Y3.0
X4.585Y0.785
X4.59Y2.35
X4.5976Y2.9649
X4.6Y2.28
X4.605Y2.43
X4.615Y2.38
X4.6249Y0.7834
X4.625Y3.08
X4.625Y1.9236
X4.6303Y2.7565
X4.635Y2.08
X4.65Y2.93
X4.65Y1.5099
X4.67Y0.7833
X4.675Y1.9631
X4.675Y1.355
X4.725Y2.08
X4.75Y1.505
X4.775Y0.96
X4.7838Y1.9656
X4.7964Y3.005
X4.8Y2.43
X4.8Y2.355
X4.8014Y2.28
X4.815Y2.855
X4.815Y2.69
X4.82Y2.955
X4.825Y2.08
X4.83Y2.78
X4.845Y3.075
X4.845Y1.915
X4.875Y1.355
X4.875Y0.955
X4.88Y2.455
X4.9186Y1.8164
X4.95Y1.49
X4.975Y0.95
X4.99Y1.67
X4.995Y1.34
X5.025Y3.055
X5.025Y3.005
X5.025Y2.805
X5.025Y2.085
X5.03Y2.38
X5.04Y2.255
X5.05Y2.835
X5.05Y1.355
X5.07Y1.965
X5.07Y1.8164
X5.075Y2.955
X5.075Y2.2
X5.075Y0.96
X5.075Y1.695
X5.11Y2.38
X5.11Y2.33
X5.15Y1.805
X5.16Y0.95
X5.16Y0.7286
X5.175Y1.9636
X5.175Y1.72
X5.21Y0.96
X5.225Y2.0806
X5.25Y1.505
X5.265Y2.28
X5.2653Y2.426
X5.275Y3.02
X5.275Y2.98
X5.275Y2.905
X5.275Y2.78
X5.275Y1.8614
X5.2825Y2.2275
X5.3025Y0.9525
X5.3056Y2.455
X5.3067Y2.4196
X5.325Y0.73
X5.355Y2.48
X5.375Y0.875
X5.395Y1.9078
X5.415Y2.59
X5.4214Y1.03
X5.45Y2.565
X5.46Y0.925
X5.475Y1.505
X5.495Y2.905
X5.5Y1.8338
X5.505Y2.455
X5.525Y3.08
X5.54Y2.43
X5.55Y2.38
X5.555Y1.91
X5.6Y1.98
X5.725Y1.975
X5.725Y1.355
X5.75Y2.955
X5.75Y2.855
X5.75Y2.755
X5.75Y2.67
X5.7506Y2.37
X5.755Y2.43
X5.775Y2.48
X5.775Y1.505
X5.795Y2.415
X5.795Y2.805
X5.8Y2.98
X5.815Y2.6514
X5.825Y2.33
X5.8282Y2.38
X5.84Y3.11
X5.855Y2.685
X5.875Y1.63
X5.925Y1.28
X5.93Y1.78
X5.95Y0.705
X5.97Y2.28
X5.97Y3.03
X5.99Y2.445
X5.9914Y2.405
X6.0Y2.68
X6.01Y2.8567
X6.01Y2.2266
X6.015Y2.33
X6.025Y3.005
X6.03Y2.805
X6.07Y2.23
X6.2Y1.155
X6.205Y0.82
X6.21Y2.28
X6.22Y2.88
X6.225Y2.955
X6.225Y2.18
X6.25Y2.755
X6.275Y2.28
X6.425Y2.755
X6.45Y2.805
X6.4586Y2.278
X6.4735Y2.3792
X6.475Y2.33
X6.475Y2.1872
X6.525Y2.0781
X6.535Y2.96
X6.55Y2.38
X6.7Y2.43
T2
X0.6Y1.985
X0.6Y1.925
X0.6991Y0.9041
X0.8738Y3.235
X0.8738Y3.1688
X0.9Y2.98
X1.3Y1.005
X1.3045Y1.6095
X1.3045Y1.4595
X1.3045Y1.3095
X1.3103Y2.1547
X1.3105Y2.3555
X1.5502Y3.2398
X1.5502Y3.1702
X1.95Y2.98
X2.15Y2.155
X2.35Y1.005
X2.36Y1.555
X2.3603Y2.1547
X2.3645Y2.3545
X2.59Y3.24
X2.59Y3.17
X2.95Y0.505
X2.998Y1.003
X3.0Y2.98
X3.015Y0.94
X3.025Y0.505
X3.125Y0.505
X3.2Y2.155
X3.39Y1.555
X3.3904Y2.8146
X3.3996Y2.3446
X3.3996Y2.155
X3.3996Y1.055
X3.45Y0.905
X3.51Y0.5
X3.6Y0.91
X3.6Y0.5
X3.87Y1.34
X3.87Y0.91
X3.995Y1.81
X4.0Y1.0595
X4.0Y0.98
X4.0472Y2.145
X4.05Y1.865
X4.075Y1.73
X4.075Y1.605
X4.1002Y2.7209
X4.1079Y2.1096
X4.19Y2.66
X4.6Y2.7345
X4.6064Y2.1485
X4.6786Y2.1131
X4.765Y2.56
X4.7924Y3.0626
X5.0756Y2.1468
X5.1Y2.11
X5.1Y2.805
X5.105Y2.7255
X5.23Y2.555
X5.2758Y3.0674
X5.55Y2.73
X5.555Y2.175
X5.6955Y2.11
X5.75Y3.07
X6.055Y2.155
X6.065Y2.11
X6.065Y2.725
X6.16Y3.085
X6.5008Y2.1096
X6.545Y2.145
T3
X1.95Y2.705
X1.95Y2.605
X1.95Y2.505
X1.95Y2.405
X1.95Y2.305
X1.95Y2.205
X1.95Y2.105
X1.95Y2.005
X1.95Y1.905
X1.95Y1.805
X1.95Y1.705
X1.95Y1.605
X2.05Y2.905
X2.05Y2.805
X2.05Y2.705
X2.05Y2.605
X2.05Y2.505
X2.05Y2.405
X2.05Y2.305
X2.05Y2.205
X2.05Y2.105
X2.05Y2.005
X2.05Y1.905
X2.05Y1.805
X2.05Y1.705
X2.05Y1.605
X2.05Y1.505
X2.05Y1.405
X2.05Y1.305
X2.05Y1.205
X2.05Y1.105
X2.05Y1.005
X2.55Y2.705
X2.55Y2.605
X2.55Y2.505
X2.55Y2.405
X2.55Y2.305
X2.55Y2.205
X2.55Y2.105
X2.55Y2.005
X2.55Y1.905
X2.55Y1.805
X2.55Y1.705
X2.55Y1.605
X2.65Y2.905
X2.65Y2.805
X2.65Y2.705
X2.65Y2.605
X2.65Y2.505
X2.65Y2.405
X2.65Y2.305
X2.65Y2.205
X2.65Y2.105
X2.65Y2.005
X2.65Y1.905
X2.65Y1.805
X2.65Y1.705
X2.65Y1.605
X2.65Y1.505
X2.65Y1.405
X2.65Y1.305
X2.65Y1.205
X2.65Y1.105
X2.65Y1.005
X4.075Y1.18
X4.075Y0.58
X4.175Y1.18
X4.175Y0.58
X4.275Y1.18
X4.275Y0.58
X4.375Y1.18
X4.375Y0.58
X4.475Y1.18
X4.475Y0.58
X4.575Y1.18
X4.575Y0.58
X4.675Y1.18
X4.675Y0.58
X4.775Y1.18
X4.775Y0.58
X4.875Y1.18
X4.875Y0.58
X4.975Y1.18
X4.975Y0.58
X5.075Y1.18
X5.075Y0.58
X5.175Y1.18
X5.175Y0.58
X5.275Y1.18
X5.275Y0.58
X5.375Y1.18
X5.375Y0.58
X5.475Y1.18
X5.475Y0.58
X5.575Y1.18
X5.575Y0.58
X5.675Y1.18
X5.675Y0.58
X5.775Y1.18
X5.775Y0.58
X5.875Y1.18
X5.875Y0.58
X5.975Y1.18
X5.975Y0.58
X0.9Y2.705
X0.9Y2.605
X0.9Y2.505
X0.9Y2.405
X0.9Y2.305
X0.9Y2.205
X0.9Y2.105
X0.9Y2.005
X0.9Y1.905
X0.9Y1.805
X0.9Y1.705
X0.9Y1.605
X1.0Y2.905
X1.0Y2.805
X1.0Y2.705
X1.0Y2.605
X1.0Y2.505
X1.0Y2.405
X1.0Y2.305
X1.0Y2.205
X1.0Y2.105
X1.0Y2.005
X1.0Y1.905
X1.0Y1.805
X1.0Y1.705
X1.0Y1.605
X1.0Y1.505
X1.0Y1.405
X1.0Y1.305
X1.0Y1.205
X1.0Y1.105
X1.0Y1.005
X1.5Y2.705
X1.5Y2.605
X1.5Y2.505
X1.5Y2.405
X1.5Y2.305
X1.5Y2.205
X1.5Y2.105
X1.5Y2.005
X1.5Y1.905
X1.5Y1.805
X1.5Y1.705
X1.5Y1.605
X1.6Y2.905
X1.6Y2.805
X1.6Y2.705
X1.6Y2.605
X1.6Y2.505
X1.6Y2.405
X1.6Y2.305
X1.6Y2.205
X1.6Y2.105
X1.6Y2.005
X1.6Y1.905
X1.6Y1.805
X1.6Y1.705
X1.6Y1.605
X1.6Y1.505
X1.6Y1.405
X1.6Y1.305
X1.6Y1.205
X1.6Y1.105
X1.6Y1.005
X3.0Y2.705
X3.0Y2.605
X3.0Y2.505
X3.0Y2.405
X3.0Y2.305
X3.0Y2.205
X3.0Y2.105
X3.0Y2.005
X3.0Y1.905
X3.0Y1.805
X3.0Y1.705
X3.0Y1.605
X3.1Y2.905
X3.1Y2.805
X3.1Y2.705
X3.1Y2.605
X3.1Y2.505
X3.1Y2.405
X3.1Y2.305
X3.1Y2.205
X3.1Y2.105
X3.1Y2.005
X3.1Y1.905
X3.1Y1.805
X3.1Y1.705
X3.1Y1.605
X3.1Y1.505
X3.1Y1.405
X3.1Y1.305
X3.1Y1.205
X3.1Y1.105
X3.1Y1.005
X3.6Y2.705
X3.6Y2.605
X3.6Y2.505
X3.6Y2.405
X3.6Y2.305
X3.6Y2.205
X3.6Y2.105
X3.6Y2.005
X3.6Y1.905
X3.6Y1.805
X3.6Y1.705
X3.6Y1.605
X3.7Y2.905
X3.7Y2.805
X3.7Y2.705
X3.7Y2.605
X3.7Y2.505
X3.7Y2.405
X3.7Y2.305
X3.7Y2.205
X3.7Y2.105
X3.7Y2.005
X3.7Y1.905
X3.7Y1.805
X3.7Y1.705
X3.7Y1.605
X3.7Y1.505
X3.7Y1.405
X3.7Y1.305
X3.7Y1.205
X3.7Y1.105
X3.7Y1.005
X4.075Y2.03
X4.075Y1.43
X4.175Y2.03
X4.175Y1.43
X4.275Y2.03
X4.275Y1.43
X4.375Y2.03
X4.375Y1.43
X4.475Y2.03
X4.475Y1.43
X4.575Y2.03
X4.575Y1.43
X4.675Y2.03
X4.675Y1.43
X4.775Y2.03
X4.775Y1.43
X4.875Y2.03
X4.875Y1.43
X4.975Y2.03
X4.975Y1.43
X5.075Y2.03
X5.075Y1.43
X5.175Y2.03
X5.175Y1.43
X5.275Y2.03
X5.275Y1.43
X5.375Y2.03
X5.375Y1.43
X5.475Y2.03
X5.475Y1.43
X5.575Y2.03
X5.575Y1.43
X5.675Y2.03
X5.675Y1.43
X5.775Y2.03
X5.775Y1.43
X5.875Y2.03
X5.875Y1.43
X5.975Y2.03
X5.975Y1.43
T4
X1.725Y2.78
X1.825Y2.78
X3.3516Y3.03
X3.45Y3.03
X0.675Y2.63
X0.775Y2.63
X5.5516Y2.63
X5.65Y2.63
X6.15Y1.03
X6.25Y1.03
X4.6016Y2.63
X4.7Y2.63
X2.925Y3.08
X3.025Y3.08
X1.725Y2.93
X1.825Y2.93
X1.725Y2.63
X1.825Y2.63
X2.775Y2.78
X2.875Y2.78
X1.2516Y3.03
X1.35Y3.03
X5.5516Y3.155
X5.65Y3.155
X0.325Y1.83
X0.4234Y1.83
X4.0766Y3.155
X4.175Y3.155
X0.775Y1.355
X0.775Y1.255
X1.875Y3.08
X1.975Y3.08
X6.15Y1.43
X6.25Y1.43
X6.1Y1.305
X6.1984Y1.305
X0.675Y2.93
X0.775Y2.93
X6.5016Y2.58
X6.6Y2.58
X2.6766Y3.13
X2.775Y3.13
X5.0716Y2.635
X5.17Y2.635
X3.65Y3.18
X3.65Y3.08
X0.95Y3.08
X1.05Y3.08
X6.15Y1.58
X6.25Y1.58
X6.1Y0.58
X6.1984Y0.58
X5.075Y3.155
X5.1734Y3.155
X0.7016Y3.13
X0.8Y3.13
X4.325Y2.63
X4.4234Y2.63
X2.775Y2.93
X2.875Y2.93
X6.15Y1.73
X6.25Y1.73
X6.0016Y3.155
X6.1Y3.155
X1.6266Y3.13
X1.725Y3.13
X3.8Y3.18
X3.8Y3.08
X6.15Y2.03
X6.25Y2.03
X6.15Y1.88
X6.25Y1.88
X4.6016Y3.155
X4.7Y3.155
X0.775Y1.0534
X0.775Y0.955
X6.15Y0.88
X6.25Y0.88
X0.75Y0.68
X0.8484Y0.68
X2.775Y2.63
X2.875Y2.63
X0.675Y2.78
X0.775Y2.78
X2.3016Y3.03
X2.4Y3.03
X3.35Y3.18
X3.45Y3.18
X6.0266Y2.58
X6.125Y2.58
X6.15Y0.73
X6.25Y0.73
T5
X6.325Y3.155
X0.3Y2.53
X0.3Y2.43
X0.3Y2.33
X2.625Y0.53
X2.725Y0.53
X2.825Y0.53
X0.3Y1.58
X0.3Y1.48
X0.3Y1.38
T0
M30
